  0
SECTION
  2
HEADER
  9
$ANGBASE
  50
0.0
  9
$ANGDIR
  70
1
  9
$MEASUREMENT
  70
0
  0
ENDSEC
  0
SECTION
  2
TABLES
  0
TABLE
  2
LTYPE
  70
4
  0
LTYPE
  5
40F
  2
CONTINUOUS
  70
0
  3
Solid line
  72
65
  73
0
  40
0.0
  0
LTYPE
  5
410
  2
DASHDOT
 70
0
  3
Dash Dot ____ _ ____ _
 72
65
 73
4
 40
2.0
 49
1.25
 49
-0.25
 49
0.25
 49
-0.25
  0
LTYPE
  5
411
  2
DASHED
 70
0
  3
Dashed __ __ __ __ __
 72
65
 73
2
 40
0.75
 49
0.5
 49
-0.25
  0
LTYPE
  5
43B
  2
DOTTED
 70
0
  3
Dotted .  .  .  .
 72
65
 73
2
 40
0.2
 49
0.0
 49
-0.2
  0
ENDTAB
  0
TABLE
  2
STYLE
  70
4
  0
STYLE
  2
KICAD
  70
0
  40
0
  41
1
  42
1
  50
0
  71
0
  3
isocp.shx
  0
STYLE
  2
KICADB
  70
0
  40
0
  41
1
  42
1
  50
0
  71
0
  3
isocp.shx
  0
STYLE
  2
KICADI
  70
0
  40
0
  41
1
  42
1
  50
15
  71
0
  3
isocp.shx
  0
STYLE
  2
KICADBI
  70
0
  40
0
  41
1
  42
1
  50
15
  71
0
  3
isocp.shx
  0
ENDTAB
  0
TABLE
  2
LAYER
  70
1
  0
LAYER
  2
BLACK
  70
0
  62
7
  6
CONTINUOUS
  0
ENDTAB
  0
ENDSEC
  0
SECTION
  2
ENTITIES
0
LINE
8
BLACK
6
CONTINUOUS
10
0.75
20
-0.75
11
10.5499999999999989
21
-0.75
0
LINE
8
BLACK
6
CONTINUOUS
10
10.5499999999999989
20
-0.75
11
10.5499999999999989
21
-3.7999999999999998
0
LINE
8
BLACK
6
CONTINUOUS
10
10.5499999999999989
20
-3.7999999999999998
11
0.75
21
-3.7999999999999998
0
LINE
8
BLACK
6
CONTINUOUS
10
0.75
20
-3.7999999999999998
11
0.75
21
-0.75
0
LINE
8
BLACK
6
CONTINUOUS
10
5.3786811023622043
20
-3.1340944881889765
11
5.4219881889763775
21
-3.1340944881889765
0
LINE
8
BLACK
6
CONTINUOUS
10
5.4377362204724404
20
-3.1340944881889765
11
5.4810433070866145
21
-3.1340944881889765
0
LINE
8
BLACK
6
CONTINUOUS
10
5.4967913385826774
20
-3.1340944881889765
11
5.5400984251968506
21
-3.1340944881889765
0
LINE
8
BLACK
6
CONTINUOUS
10
5.5558464566929135
20
-3.1340944881889765
11
5.5991535433070867
21
-3.1340944881889765
0
LINE
8
BLACK
6
CONTINUOUS
10
5.6149015748031497
20
-3.1340944881889765
11
5.6582086614173228
21
-3.1340944881889765
0
LINE
8
BLACK
6
CONTINUOUS
10
5.6739566929133858
20
-3.1340944881889765
11
5.7172637795275589
21
-3.1340944881889765
0
LINE
8
BLACK
6
CONTINUOUS
10
5.7330118110236219
20
-3.1340944881889765
11
5.776318897637795
21
-3.1340944881889765
0
LINE
8
BLACK
6
CONTINUOUS
10
5.792066929133858
20
-3.1340944881889765
11
5.8353740157480312
21
-3.1340944881889765
0
LINE
8
BLACK
6
CONTINUOUS
10
5.8511220472440941
20
-3.1340944881889765
11
5.8944291338582673
21
-3.1340944881889765
0
LINE
8
BLACK
6
CONTINUOUS
10
5.9062401574803145
20
-3.1340944881889765
11
5.9062401574803145
21
-3.1774015748031497
0
LINE
8
BLACK
6
CONTINUOUS
10
5.9062401574803145
20
-3.1931496062992126
11
5.9062401574803145
21
-3.2364566929133858
0
LINE
8
BLACK
6
CONTINUOUS
10
5.9062401574803145
20
-3.2522047244094487
11
5.9062401574803145
21
-3.2955118110236219
0
LINE
8
BLACK
6
CONTINUOUS
10
5.9062401574803145
20
-3.3112598425196849
11
5.9062401574803145
21
-3.354566929133858
0
LINE
8
BLACK
6
CONTINUOUS
10
5.9062401574803145
20
-3.370314960629921
11
5.9062401574803145
21
-3.4136220472440946
0
LINE
8
BLACK
6
CONTINUOUS
10
5.9062401574803145
20
-3.4293700787401575
11
5.9062401574803145
21
-3.4726771653543307
0
LINE
8
BLACK
6
CONTINUOUS
10
5.9062401574803145
20
-3.4884251968503937
11
5.9062401574803145
21
-3.5317322834645668
0
LINE
8
BLACK
6
CONTINUOUS
10
5.9062401574803145
20
-3.5474803149606298
11
5.9062401574803145
21
-3.5907874015748029
0
LINE
8
BLACK
6
CONTINUOUS
10
5.9062401574803145
20
-3.6065354330708659
11
5.9062401574803145
21
-3.6459055118110237
0
LINE
8
BLACK
6
CONTINUOUS
10
5.9062401574803145
20
-3.6459055118110237
11
5.8629330708661413
21
-3.6459055118110237
0
LINE
8
BLACK
6
CONTINUOUS
10
5.8471850393700784
20
-3.6459055118110237
11
5.8038779527559052
21
-3.6459055118110237
0
LINE
8
BLACK
6
CONTINUOUS
10
5.7881299212598423
20
-3.6459055118110237
11
5.7448228346456691
21
-3.6459055118110237
0
LINE
8
BLACK
6
CONTINUOUS
10
5.7290748031496062
20
-3.6459055118110237
11
5.685767716535433
21
-3.6459055118110237
0
LINE
8
BLACK
6
CONTINUOUS
10
5.67001968503937
20
-3.6459055118110237
11
5.6267125984251969
21
-3.6459055118110237
0
LINE
8
BLACK
6
CONTINUOUS
10
5.6109645669291339
20
-3.6459055118110237
11
5.5676574803149608
21
-3.6459055118110237
0
LINE
8
BLACK
6
CONTINUOUS
10
5.5519094488188978
20
-3.6459055118110237
11
5.5086023622047247
21
-3.6459055118110237
0
LINE
8
BLACK
6
CONTINUOUS
10
5.4928543307086617
20
-3.6459055118110237
11
5.4495472440944877
21
-3.6459055118110237
0
LINE
8
BLACK
6
CONTINUOUS
10
5.4337992125984247
20
-3.6459055118110237
11
5.3904921259842515
21
-3.6459055118110237
0
LINE
8
BLACK
6
CONTINUOUS
10
5.3786811023622043
20
-3.6459055118110237
11
5.3786811023622043
21
-3.6025984251968501
0
LINE
8
BLACK
6
CONTINUOUS
10
5.3786811023622043
20
-3.5868503937007872
11
5.3786811023622043
21
-3.543543307086614
0
LINE
8
BLACK
6
CONTINUOUS
10
5.3786811023622043
20
-3.5277952755905511
11
5.3786811023622043
21
-3.4844881889763779
0
LINE
8
BLACK
6
CONTINUOUS
10
5.3786811023622043
20
-3.4687401574803149
11
5.3786811023622043
21
-3.4254330708661418
0
LINE
8
BLACK
6
CONTINUOUS
10
5.3786811023622043
20
-3.4096850393700788
11
5.3786811023622043
21
-3.3663779527559052
0
LINE
8
BLACK
6
CONTINUOUS
10
5.3786811023622043
20
-3.3506299212598423
11
5.3786811023622043
21
-3.3073228346456691
0
LINE
8
BLACK
6
CONTINUOUS
10
5.3786811023622043
20
-3.2915748031496062
11
5.3786811023622043
21
-3.248267716535433
0
LINE
8
BLACK
6
CONTINUOUS
10
5.3786811023622043
20
-3.23251968503937
11
5.3786811023622043
21
-3.1892125984251969
0
LINE
8
BLACK
6
CONTINUOUS
10
5.3786811023622043
20
-3.1734645669291339
11
5.3786811023622043
21
-3.1340944881889765
  0
ENDSEC
  0
EOF
