%TF.GenerationSoftware,KiCad,Pcbnew,9.0.2*%
%TF.CreationDate,2025-10-16T11:04:55+03:00*%
%TF.ProjectId,eg48,65673438-2e6b-4696-9361-645f70636258,rev?*%
%TF.SameCoordinates,Original*%
%TF.FileFunction,Legend,Top*%
%TF.FilePolarity,Positive*%
%FSLAX46Y46*%
G04 Gerber Fmt 4.6, Leading zero omitted, Abs format (unit mm)*
G04 Created by KiCad (PCBNEW 9.0.2) date 2025-10-16 11:04:55*
%MOMM*%
%LPD*%
G01*
G04 APERTURE LIST*
%ADD10C,0.000000*%
%ADD11C,0.100000*%
%ADD12C,0.150000*%
%ADD13C,0.120000*%
G04 APERTURE END LIST*
D10*
G36*
X261843461Y-94941264D02*
G01*
X262061723Y-94941264D01*
X262061723Y-95228494D01*
X261843461Y-95228494D01*
X261843461Y-95504000D01*
X261470411Y-95504000D01*
X261470411Y-95228494D01*
X260792088Y-95228494D01*
X260792088Y-94941264D01*
X261038010Y-94941264D01*
X261470411Y-94941264D01*
X261470411Y-94299577D01*
X261038010Y-94941264D01*
X260792088Y-94941264D01*
X260792088Y-94889423D01*
X261404832Y-93974062D01*
X261843461Y-93974062D01*
X261843461Y-94941264D01*
G37*
D11*
X139700000Y-45085000D02*
X143510000Y-41275000D01*
D10*
G36*
X263031663Y-93952338D02*
G01*
X263146411Y-93973138D01*
X263238392Y-94004786D01*
X263311575Y-94045778D01*
X263374531Y-94101842D01*
X263418992Y-94168283D01*
X263446430Y-94247138D01*
X263456105Y-94341709D01*
X263447719Y-94426055D01*
X263423785Y-94497695D01*
X263384848Y-94559238D01*
X263332352Y-94610396D01*
X263263325Y-94653621D01*
X263174371Y-94688473D01*
X263273762Y-94725081D01*
X263350837Y-94771910D01*
X263409486Y-94828424D01*
X263452768Y-94896884D01*
X263479492Y-94977370D01*
X263488895Y-95072972D01*
X263478511Y-95184656D01*
X263449310Y-95276820D01*
X263402661Y-95353383D01*
X263337770Y-95416988D01*
X263260566Y-95464322D01*
X263163169Y-95500710D01*
X263041192Y-95524594D01*
X262889431Y-95533309D01*
X262737207Y-95524600D01*
X262614721Y-95500724D01*
X262516800Y-95464333D01*
X262439078Y-95416988D01*
X262373702Y-95353318D01*
X262326751Y-95276726D01*
X262297385Y-95184585D01*
X262286945Y-95072972D01*
X262288891Y-95053188D01*
X262659996Y-95053188D01*
X262667370Y-95126429D01*
X262687616Y-95183051D01*
X262719438Y-95226845D01*
X262762687Y-95259224D01*
X262818174Y-95279690D01*
X262889523Y-95287112D01*
X262960167Y-95279687D01*
X263014942Y-95259226D01*
X263057501Y-95226845D01*
X263088742Y-95183132D01*
X263108669Y-95126513D01*
X263115936Y-95053188D01*
X263108643Y-94979114D01*
X263088692Y-94922203D01*
X263057501Y-94878524D01*
X263014935Y-94846090D01*
X262960159Y-94825600D01*
X262889523Y-94818166D01*
X262818219Y-94825645D01*
X262762730Y-94846284D01*
X262719438Y-94878982D01*
X262687603Y-94923057D01*
X262667361Y-94979877D01*
X262659996Y-95053188D01*
X262288891Y-95053188D01*
X262296348Y-94977370D01*
X262323073Y-94896884D01*
X262366355Y-94828424D01*
X262425006Y-94771915D01*
X262502108Y-94725085D01*
X262601561Y-94688473D01*
X262512624Y-94653602D01*
X262443766Y-94610375D01*
X262391542Y-94559238D01*
X262352923Y-94497733D01*
X262329163Y-94426091D01*
X262324703Y-94380910D01*
X262693793Y-94380910D01*
X262700026Y-94440159D01*
X262717239Y-94486333D01*
X262744534Y-94522418D01*
X262781297Y-94548970D01*
X262828597Y-94565837D01*
X262889523Y-94571969D01*
X262949069Y-94565869D01*
X262995560Y-94549035D01*
X263031947Y-94522418D01*
X263058923Y-94486376D01*
X263075963Y-94440205D01*
X263082139Y-94380910D01*
X263075952Y-94321688D01*
X263058906Y-94275748D01*
X263031947Y-94240043D01*
X262995596Y-94213691D01*
X262949106Y-94197002D01*
X262889523Y-94190950D01*
X262828597Y-94197082D01*
X262781297Y-94213949D01*
X262744534Y-94240501D01*
X262717190Y-94276563D01*
X262700000Y-94322406D01*
X262693793Y-94380910D01*
X262324703Y-94380910D01*
X262320834Y-94341709D01*
X262330475Y-94247725D01*
X262357854Y-94169115D01*
X262402285Y-94102645D01*
X262465273Y-94046328D01*
X262538510Y-94005154D01*
X262630812Y-93973333D01*
X262746239Y-93952396D01*
X262889523Y-93944753D01*
X263031663Y-93952338D01*
G37*
D11*
X147320000Y-45085000D02*
X143510000Y-48895000D01*
X138430000Y-30480000D02*
X140335000Y-30480000D01*
X140335000Y-34290000D01*
X138430000Y-34290000D01*
X138430000Y-30480000D01*
D10*
G36*
X255307706Y-94583692D02*
G01*
X254804596Y-94583692D01*
X254804596Y-95504000D01*
X254437774Y-95504000D01*
X254437774Y-94355081D01*
X255081293Y-94355081D01*
X255081293Y-94032681D01*
X255307706Y-94032681D01*
X255307706Y-94583692D01*
G37*
D11*
X141605000Y-30480000D02*
X145415000Y-30480000D01*
X145415000Y-34290000D01*
X141605000Y-34290000D01*
X141605000Y-30480000D01*
D10*
G36*
X259108552Y-94929724D02*
G01*
X259366839Y-94355081D01*
X259789990Y-94355081D01*
X259789990Y-95504000D01*
X259424267Y-95504000D01*
X259424267Y-94852787D01*
X259230551Y-95281250D01*
X258989759Y-95281250D01*
X258795036Y-94852787D01*
X258795036Y-95504000D01*
X258428214Y-95504000D01*
X258428214Y-94355081D01*
X258850357Y-94355081D01*
X259108552Y-94929724D01*
G37*
D11*
X143510000Y-48895000D02*
X139700000Y-45085000D01*
D10*
G36*
X256192684Y-94332899D02*
G01*
X256288518Y-94353332D01*
X256373583Y-94386142D01*
X256449419Y-94431087D01*
X256517166Y-94488621D01*
X256574462Y-94556457D01*
X256619272Y-94632526D01*
X256652019Y-94717990D01*
X256672432Y-94814411D01*
X256679557Y-94923678D01*
X256679557Y-95029191D01*
X255821898Y-95029191D01*
X255839276Y-95111311D01*
X255870579Y-95174452D01*
X255915138Y-95222632D01*
X255971907Y-95256899D01*
X256044893Y-95279024D01*
X256138529Y-95287112D01*
X256254451Y-95278573D01*
X256375750Y-95252216D01*
X256496521Y-95209304D01*
X256625244Y-95146428D01*
X256625244Y-95427796D01*
X256494239Y-95473872D01*
X256364942Y-95506656D01*
X256234551Y-95526677D01*
X256104732Y-95533309D01*
X255977736Y-95526040D01*
X255868095Y-95505465D01*
X255773352Y-95472984D01*
X255691404Y-95429359D01*
X255620581Y-95374673D01*
X255559960Y-95308137D01*
X255512431Y-95231996D01*
X255477528Y-95144860D01*
X255455628Y-95044820D01*
X255447932Y-94929540D01*
X255455431Y-94816501D01*
X255458879Y-94800580D01*
X255826020Y-94800580D01*
X256302477Y-94800580D01*
X256295244Y-94734534D01*
X256274770Y-94680160D01*
X256241477Y-94634892D01*
X256197395Y-94600328D01*
X256145109Y-94579330D01*
X256082200Y-94571969D01*
X256013337Y-94578993D01*
X255956447Y-94598833D01*
X255909001Y-94630862D01*
X255871359Y-94674120D01*
X255843517Y-94729713D01*
X255826020Y-94800580D01*
X255458879Y-94800580D01*
X255476838Y-94717665D01*
X255511063Y-94630891D01*
X255557785Y-94554423D01*
X255617467Y-94486972D01*
X255687500Y-94430882D01*
X255767532Y-94386491D01*
X255859020Y-94353683D01*
X255963841Y-94333033D01*
X256084215Y-94325772D01*
X256192684Y-94332899D01*
G37*
G36*
X266685790Y-95228494D02*
G01*
X267034202Y-95228494D01*
X267034202Y-95504000D01*
X265964418Y-95504000D01*
X265964418Y-95228494D01*
X266312831Y-95228494D01*
X266312831Y-94243706D01*
X265955168Y-94319910D01*
X265955168Y-94050266D01*
X266310724Y-93974062D01*
X266685790Y-93974062D01*
X266685790Y-95228494D01*
G37*
D11*
X148907500Y-32385000D02*
G75*
G02*
X147002500Y-32385000I-952500J0D01*
G01*
X147002500Y-32385000D02*
G75*
G02*
X148907500Y-32385000I952500J0D01*
G01*
X140335000Y-32385000D02*
G75*
G02*
X138430000Y-32385000I-952500J0D01*
G01*
X138430000Y-32385000D02*
G75*
G02*
X140335000Y-32385000I952500J0D01*
G01*
X143510000Y-41275000D02*
X147320000Y-45085000D01*
D10*
G36*
X257331043Y-93942765D02*
G01*
X257351677Y-93978488D01*
X257380687Y-94006760D01*
X257437398Y-94034256D01*
X257516425Y-94044404D01*
X257595452Y-94034256D01*
X257652163Y-94006760D01*
X257681173Y-93978488D01*
X257701806Y-93942765D01*
X257714170Y-93897859D01*
X257860715Y-93897859D01*
X257846374Y-93992384D01*
X257814291Y-94066306D01*
X257765369Y-94124180D01*
X257701581Y-94166145D01*
X257620234Y-94192937D01*
X257516425Y-94202674D01*
X257412614Y-94192939D01*
X257331233Y-94166148D01*
X257267389Y-94124180D01*
X257218521Y-94066313D01*
X257186466Y-93992392D01*
X257172134Y-93897859D01*
X257318680Y-93897859D01*
X257331043Y-93942765D01*
G37*
G36*
X250939270Y-94273016D02*
G01*
X250269098Y-94273016D01*
X250269098Y-94554383D01*
X250899336Y-94554383D01*
X250899336Y-94853337D01*
X250269098Y-94853337D01*
X250269098Y-95205046D01*
X250961801Y-95205046D01*
X250961801Y-95504000D01*
X249874616Y-95504000D01*
X249874616Y-93974062D01*
X250939270Y-93974062D01*
X250939270Y-94273016D01*
G37*
G36*
X143556000Y-57099200D02*
G01*
X143556000Y-61224200D01*
X145956000Y-56649200D01*
X145956000Y-63249199D01*
X144081000Y-63249199D01*
X143406000Y-64599199D01*
X142731000Y-63249199D01*
X143031000Y-63249199D01*
X143256000Y-63699199D01*
X143556000Y-63699199D01*
X143781000Y-63249199D01*
X143706000Y-63249199D01*
X143556000Y-63399199D01*
X143556000Y-63699199D01*
X143256000Y-63699199D01*
X143256000Y-63399199D01*
X143106000Y-63249199D01*
X143031000Y-63249199D01*
X142731000Y-63249199D01*
X140856000Y-63249199D01*
X140856000Y-62949200D01*
X141606000Y-62949200D01*
X142806000Y-62949200D01*
X142431000Y-62574200D01*
X141606000Y-62949200D01*
X140856000Y-62949200D01*
X140856000Y-62874200D01*
X141156000Y-62874200D01*
X142056001Y-62424199D01*
X142656000Y-62424199D01*
X143181000Y-62949199D01*
X143256000Y-62949199D01*
X143256000Y-62124200D01*
X143556000Y-62124200D01*
X143556000Y-62949200D01*
X143631000Y-62949200D01*
X144005999Y-62949200D01*
X145205999Y-62949200D01*
X144381000Y-62574200D01*
X144005999Y-62949200D01*
X143631000Y-62949200D01*
X144156000Y-62424200D01*
X144005999Y-62349199D01*
X144606000Y-62349199D01*
X145656000Y-62874200D01*
X145656000Y-61374200D01*
X144606000Y-62349199D01*
X144005999Y-62349199D01*
X143556000Y-62124200D01*
X143256000Y-62124200D01*
X142656000Y-62424199D01*
X142056001Y-62424199D01*
X142206000Y-62349199D01*
X141156000Y-61374200D01*
X141156000Y-62874200D01*
X140856000Y-62874200D01*
X140856000Y-61374200D01*
X140856000Y-60999199D01*
X140856000Y-57849200D01*
X141156000Y-57849200D01*
X141156000Y-60999199D01*
X142431000Y-62199199D01*
X143256000Y-61824199D01*
X143556000Y-61824199D01*
X144381000Y-62199199D01*
X145656000Y-60999199D01*
X145656000Y-57849200D01*
X143556000Y-61824199D01*
X143256000Y-61824199D01*
X141156000Y-57849200D01*
X140856000Y-57849200D01*
X140856000Y-56649200D01*
X143256000Y-61224199D01*
X143256000Y-57099200D01*
X143404240Y-55899200D01*
X143556000Y-57099200D01*
G37*
G36*
X257323717Y-94966452D02*
G01*
X257693653Y-94355081D01*
X258074855Y-94355081D01*
X258074855Y-95504000D01*
X257708033Y-95504000D01*
X257708033Y-94892629D01*
X257338097Y-95504000D01*
X256956895Y-95504000D01*
X256956895Y-94355081D01*
X257323717Y-94355081D01*
X257323717Y-94966452D01*
G37*
D11*
X147002500Y-30480000D02*
X148907500Y-30480000D01*
X148907500Y-34290000D01*
X147002500Y-34290000D01*
X147002500Y-30480000D01*
D10*
G36*
X265034219Y-95149084D02*
G01*
X265319068Y-94355081D01*
X265686989Y-94355081D01*
X265235079Y-95504000D01*
X264832353Y-95504000D01*
X264381542Y-94355081D01*
X264748364Y-94355081D01*
X265034219Y-95149084D01*
G37*
G36*
X251658260Y-94794718D02*
G01*
X252022060Y-94794718D01*
X252022060Y-94355081D01*
X252388882Y-94355081D01*
X252388882Y-95504000D01*
X252022060Y-95504000D01*
X252022060Y-95023330D01*
X251658260Y-95023330D01*
X251658260Y-95504000D01*
X251291438Y-95504000D01*
X251291438Y-94355081D01*
X251658260Y-94355081D01*
X251658260Y-94794718D01*
G37*
G36*
X253952433Y-95240217D02*
G01*
X254143034Y-95240217D01*
X254143034Y-95791229D01*
X253880717Y-95791229D01*
X253880717Y-95504000D01*
X252946214Y-95504000D01*
X252946214Y-95791229D01*
X252683897Y-95791229D01*
X252683897Y-95240217D01*
X252745354Y-95240217D01*
X253242327Y-95240217D01*
X253585611Y-95240217D01*
X253585611Y-94618863D01*
X253327324Y-94618863D01*
X253327324Y-94650554D01*
X253320908Y-94844533D01*
X253303246Y-95004345D01*
X253276468Y-95134781D01*
X253242327Y-95240217D01*
X252745354Y-95240217D01*
X252798979Y-95215419D01*
X252843926Y-95179941D01*
X252881308Y-95132737D01*
X252911317Y-95071690D01*
X252934893Y-94980898D01*
X252953062Y-94823584D01*
X252960502Y-94572244D01*
X252960502Y-94355081D01*
X253952433Y-94355081D01*
X253952433Y-95240217D01*
G37*
D12*
X153060475Y-43453485D02*
X153098571Y-43415390D01*
X153098571Y-43415390D02*
X153174761Y-43377295D01*
X153174761Y-43377295D02*
X153365237Y-43377295D01*
X153365237Y-43377295D02*
X153441428Y-43415390D01*
X153441428Y-43415390D02*
X153479523Y-43453485D01*
X153479523Y-43453485D02*
X153517618Y-43529676D01*
X153517618Y-43529676D02*
X153517618Y-43605866D01*
X153517618Y-43605866D02*
X153479523Y-43720152D01*
X153479523Y-43720152D02*
X153022380Y-44177295D01*
X153022380Y-44177295D02*
X153517618Y-44177295D01*
X153822380Y-43453485D02*
X153860476Y-43415390D01*
X153860476Y-43415390D02*
X153936666Y-43377295D01*
X153936666Y-43377295D02*
X154127142Y-43377295D01*
X154127142Y-43377295D02*
X154203333Y-43415390D01*
X154203333Y-43415390D02*
X154241428Y-43453485D01*
X154241428Y-43453485D02*
X154279523Y-43529676D01*
X154279523Y-43529676D02*
X154279523Y-43605866D01*
X154279523Y-43605866D02*
X154241428Y-43720152D01*
X154241428Y-43720152D02*
X153784285Y-44177295D01*
X153784285Y-44177295D02*
X154279523Y-44177295D01*
X133540476Y-40837295D02*
X133159524Y-40837295D01*
X133159524Y-40837295D02*
X133121428Y-41218247D01*
X133121428Y-41218247D02*
X133159524Y-41180152D01*
X133159524Y-41180152D02*
X133235714Y-41142057D01*
X133235714Y-41142057D02*
X133426190Y-41142057D01*
X133426190Y-41142057D02*
X133502381Y-41180152D01*
X133502381Y-41180152D02*
X133540476Y-41218247D01*
X133540476Y-41218247D02*
X133578571Y-41294438D01*
X133578571Y-41294438D02*
X133578571Y-41484914D01*
X133578571Y-41484914D02*
X133540476Y-41561104D01*
X133540476Y-41561104D02*
X133502381Y-41599200D01*
X133502381Y-41599200D02*
X133426190Y-41637295D01*
X133426190Y-41637295D02*
X133235714Y-41637295D01*
X133235714Y-41637295D02*
X133159524Y-41599200D01*
X133159524Y-41599200D02*
X133121428Y-41561104D01*
X133273809Y-48800152D02*
X133197619Y-48762057D01*
X133197619Y-48762057D02*
X133159524Y-48723961D01*
X133159524Y-48723961D02*
X133121428Y-48647771D01*
X133121428Y-48647771D02*
X133121428Y-48609676D01*
X133121428Y-48609676D02*
X133159524Y-48533485D01*
X133159524Y-48533485D02*
X133197619Y-48495390D01*
X133197619Y-48495390D02*
X133273809Y-48457295D01*
X133273809Y-48457295D02*
X133426190Y-48457295D01*
X133426190Y-48457295D02*
X133502381Y-48495390D01*
X133502381Y-48495390D02*
X133540476Y-48533485D01*
X133540476Y-48533485D02*
X133578571Y-48609676D01*
X133578571Y-48609676D02*
X133578571Y-48647771D01*
X133578571Y-48647771D02*
X133540476Y-48723961D01*
X133540476Y-48723961D02*
X133502381Y-48762057D01*
X133502381Y-48762057D02*
X133426190Y-48800152D01*
X133426190Y-48800152D02*
X133273809Y-48800152D01*
X133273809Y-48800152D02*
X133197619Y-48838247D01*
X133197619Y-48838247D02*
X133159524Y-48876342D01*
X133159524Y-48876342D02*
X133121428Y-48952533D01*
X133121428Y-48952533D02*
X133121428Y-49104914D01*
X133121428Y-49104914D02*
X133159524Y-49181104D01*
X133159524Y-49181104D02*
X133197619Y-49219200D01*
X133197619Y-49219200D02*
X133273809Y-49257295D01*
X133273809Y-49257295D02*
X133426190Y-49257295D01*
X133426190Y-49257295D02*
X133502381Y-49219200D01*
X133502381Y-49219200D02*
X133540476Y-49181104D01*
X133540476Y-49181104D02*
X133578571Y-49104914D01*
X133578571Y-49104914D02*
X133578571Y-48952533D01*
X133578571Y-48952533D02*
X133540476Y-48876342D01*
X133540476Y-48876342D02*
X133502381Y-48838247D01*
X133502381Y-48838247D02*
X133426190Y-48800152D01*
X133083333Y-45917295D02*
X133616667Y-45917295D01*
X133616667Y-45917295D02*
X133273809Y-46717295D01*
X153060476Y-25635390D02*
X152984286Y-25597295D01*
X152984286Y-25597295D02*
X152870000Y-25597295D01*
X152870000Y-25597295D02*
X152755714Y-25635390D01*
X152755714Y-25635390D02*
X152679524Y-25711580D01*
X152679524Y-25711580D02*
X152641429Y-25787771D01*
X152641429Y-25787771D02*
X152603333Y-25940152D01*
X152603333Y-25940152D02*
X152603333Y-26054438D01*
X152603333Y-26054438D02*
X152641429Y-26206819D01*
X152641429Y-26206819D02*
X152679524Y-26283009D01*
X152679524Y-26283009D02*
X152755714Y-26359200D01*
X152755714Y-26359200D02*
X152870000Y-26397295D01*
X152870000Y-26397295D02*
X152946191Y-26397295D01*
X152946191Y-26397295D02*
X153060476Y-26359200D01*
X153060476Y-26359200D02*
X153098572Y-26321104D01*
X153098572Y-26321104D02*
X153098572Y-26054438D01*
X153098572Y-26054438D02*
X152946191Y-26054438D01*
X153441429Y-26397295D02*
X153441429Y-25597295D01*
X153441429Y-25597295D02*
X153898572Y-26397295D01*
X153898572Y-26397295D02*
X153898572Y-25597295D01*
X154279524Y-26397295D02*
X154279524Y-25597295D01*
X154279524Y-25597295D02*
X154470000Y-25597295D01*
X154470000Y-25597295D02*
X154584286Y-25635390D01*
X154584286Y-25635390D02*
X154660476Y-25711580D01*
X154660476Y-25711580D02*
X154698571Y-25787771D01*
X154698571Y-25787771D02*
X154736667Y-25940152D01*
X154736667Y-25940152D02*
X154736667Y-26054438D01*
X154736667Y-26054438D02*
X154698571Y-26206819D01*
X154698571Y-26206819D02*
X154660476Y-26283009D01*
X154660476Y-26283009D02*
X154584286Y-26359200D01*
X154584286Y-26359200D02*
X154470000Y-26397295D01*
X154470000Y-26397295D02*
X154279524Y-26397295D01*
X133502381Y-43377295D02*
X133350000Y-43377295D01*
X133350000Y-43377295D02*
X133273809Y-43415390D01*
X133273809Y-43415390D02*
X133235714Y-43453485D01*
X133235714Y-43453485D02*
X133159524Y-43567771D01*
X133159524Y-43567771D02*
X133121428Y-43720152D01*
X133121428Y-43720152D02*
X133121428Y-44024914D01*
X133121428Y-44024914D02*
X133159524Y-44101104D01*
X133159524Y-44101104D02*
X133197619Y-44139200D01*
X133197619Y-44139200D02*
X133273809Y-44177295D01*
X133273809Y-44177295D02*
X133426190Y-44177295D01*
X133426190Y-44177295D02*
X133502381Y-44139200D01*
X133502381Y-44139200D02*
X133540476Y-44101104D01*
X133540476Y-44101104D02*
X133578571Y-44024914D01*
X133578571Y-44024914D02*
X133578571Y-43834438D01*
X133578571Y-43834438D02*
X133540476Y-43758247D01*
X133540476Y-43758247D02*
X133502381Y-43720152D01*
X133502381Y-43720152D02*
X133426190Y-43682057D01*
X133426190Y-43682057D02*
X133273809Y-43682057D01*
X133273809Y-43682057D02*
X133197619Y-43720152D01*
X133197619Y-43720152D02*
X133159524Y-43758247D01*
X133159524Y-43758247D02*
X133121428Y-43834438D01*
X132740476Y-28175390D02*
X132664286Y-28137295D01*
X132664286Y-28137295D02*
X132550000Y-28137295D01*
X132550000Y-28137295D02*
X132435714Y-28175390D01*
X132435714Y-28175390D02*
X132359524Y-28251580D01*
X132359524Y-28251580D02*
X132321429Y-28327771D01*
X132321429Y-28327771D02*
X132283333Y-28480152D01*
X132283333Y-28480152D02*
X132283333Y-28594438D01*
X132283333Y-28594438D02*
X132321429Y-28746819D01*
X132321429Y-28746819D02*
X132359524Y-28823009D01*
X132359524Y-28823009D02*
X132435714Y-28899200D01*
X132435714Y-28899200D02*
X132550000Y-28937295D01*
X132550000Y-28937295D02*
X132626191Y-28937295D01*
X132626191Y-28937295D02*
X132740476Y-28899200D01*
X132740476Y-28899200D02*
X132778572Y-28861104D01*
X132778572Y-28861104D02*
X132778572Y-28594438D01*
X132778572Y-28594438D02*
X132626191Y-28594438D01*
X133121429Y-28937295D02*
X133121429Y-28137295D01*
X133121429Y-28137295D02*
X133578572Y-28937295D01*
X133578572Y-28937295D02*
X133578572Y-28137295D01*
X133959524Y-28937295D02*
X133959524Y-28137295D01*
X133959524Y-28137295D02*
X134150000Y-28137295D01*
X134150000Y-28137295D02*
X134264286Y-28175390D01*
X134264286Y-28175390D02*
X134340476Y-28251580D01*
X134340476Y-28251580D02*
X134378571Y-28327771D01*
X134378571Y-28327771D02*
X134416667Y-28480152D01*
X134416667Y-28480152D02*
X134416667Y-28594438D01*
X134416667Y-28594438D02*
X134378571Y-28746819D01*
X134378571Y-28746819D02*
X134340476Y-28823009D01*
X134340476Y-28823009D02*
X134264286Y-28899200D01*
X134264286Y-28899200D02*
X134150000Y-28937295D01*
X134150000Y-28937295D02*
X133959524Y-28937295D01*
X153517619Y-23057295D02*
X153136667Y-23057295D01*
X153136667Y-23057295D02*
X153098571Y-23438247D01*
X153098571Y-23438247D02*
X153136667Y-23400152D01*
X153136667Y-23400152D02*
X153212857Y-23362057D01*
X153212857Y-23362057D02*
X153403333Y-23362057D01*
X153403333Y-23362057D02*
X153479524Y-23400152D01*
X153479524Y-23400152D02*
X153517619Y-23438247D01*
X153517619Y-23438247D02*
X153555714Y-23514438D01*
X153555714Y-23514438D02*
X153555714Y-23704914D01*
X153555714Y-23704914D02*
X153517619Y-23781104D01*
X153517619Y-23781104D02*
X153479524Y-23819200D01*
X153479524Y-23819200D02*
X153403333Y-23857295D01*
X153403333Y-23857295D02*
X153212857Y-23857295D01*
X153212857Y-23857295D02*
X153136667Y-23819200D01*
X153136667Y-23819200D02*
X153098571Y-23781104D01*
X153784286Y-23057295D02*
X154050953Y-23857295D01*
X154050953Y-23857295D02*
X154317619Y-23057295D01*
X133197619Y-51797295D02*
X133350000Y-51797295D01*
X133350000Y-51797295D02*
X133426190Y-51759200D01*
X133426190Y-51759200D02*
X133464286Y-51721104D01*
X133464286Y-51721104D02*
X133540476Y-51606819D01*
X133540476Y-51606819D02*
X133578571Y-51454438D01*
X133578571Y-51454438D02*
X133578571Y-51149676D01*
X133578571Y-51149676D02*
X133540476Y-51073485D01*
X133540476Y-51073485D02*
X133502381Y-51035390D01*
X133502381Y-51035390D02*
X133426190Y-50997295D01*
X133426190Y-50997295D02*
X133273809Y-50997295D01*
X133273809Y-50997295D02*
X133197619Y-51035390D01*
X133197619Y-51035390D02*
X133159524Y-51073485D01*
X133159524Y-51073485D02*
X133121428Y-51149676D01*
X133121428Y-51149676D02*
X133121428Y-51340152D01*
X133121428Y-51340152D02*
X133159524Y-51416342D01*
X133159524Y-51416342D02*
X133197619Y-51454438D01*
X133197619Y-51454438D02*
X133273809Y-51492533D01*
X133273809Y-51492533D02*
X133426190Y-51492533D01*
X133426190Y-51492533D02*
X133502381Y-51454438D01*
X133502381Y-51454438D02*
X133540476Y-51416342D01*
X133540476Y-51416342D02*
X133578571Y-51340152D01*
X153231905Y-28937295D02*
X152965238Y-28556342D01*
X152774762Y-28937295D02*
X152774762Y-28137295D01*
X152774762Y-28137295D02*
X153079524Y-28137295D01*
X153079524Y-28137295D02*
X153155714Y-28175390D01*
X153155714Y-28175390D02*
X153193809Y-28213485D01*
X153193809Y-28213485D02*
X153231905Y-28289676D01*
X153231905Y-28289676D02*
X153231905Y-28403961D01*
X153231905Y-28403961D02*
X153193809Y-28480152D01*
X153193809Y-28480152D02*
X153155714Y-28518247D01*
X153155714Y-28518247D02*
X153079524Y-28556342D01*
X153079524Y-28556342D02*
X152774762Y-28556342D01*
X153536666Y-28899200D02*
X153650952Y-28937295D01*
X153650952Y-28937295D02*
X153841428Y-28937295D01*
X153841428Y-28937295D02*
X153917619Y-28899200D01*
X153917619Y-28899200D02*
X153955714Y-28861104D01*
X153955714Y-28861104D02*
X153993809Y-28784914D01*
X153993809Y-28784914D02*
X153993809Y-28708723D01*
X153993809Y-28708723D02*
X153955714Y-28632533D01*
X153955714Y-28632533D02*
X153917619Y-28594438D01*
X153917619Y-28594438D02*
X153841428Y-28556342D01*
X153841428Y-28556342D02*
X153689047Y-28518247D01*
X153689047Y-28518247D02*
X153612857Y-28480152D01*
X153612857Y-28480152D02*
X153574762Y-28442057D01*
X153574762Y-28442057D02*
X153536666Y-28365866D01*
X153536666Y-28365866D02*
X153536666Y-28289676D01*
X153536666Y-28289676D02*
X153574762Y-28213485D01*
X153574762Y-28213485D02*
X153612857Y-28175390D01*
X153612857Y-28175390D02*
X153689047Y-28137295D01*
X153689047Y-28137295D02*
X153879524Y-28137295D01*
X153879524Y-28137295D02*
X153993809Y-28175390D01*
X154222381Y-28137295D02*
X154679524Y-28137295D01*
X154450952Y-28937295D02*
X154450952Y-28137295D01*
X153060475Y-40913485D02*
X153098571Y-40875390D01*
X153098571Y-40875390D02*
X153174761Y-40837295D01*
X153174761Y-40837295D02*
X153365237Y-40837295D01*
X153365237Y-40837295D02*
X153441428Y-40875390D01*
X153441428Y-40875390D02*
X153479523Y-40913485D01*
X153479523Y-40913485D02*
X153517618Y-40989676D01*
X153517618Y-40989676D02*
X153517618Y-41065866D01*
X153517618Y-41065866D02*
X153479523Y-41180152D01*
X153479523Y-41180152D02*
X153022380Y-41637295D01*
X153022380Y-41637295D02*
X153517618Y-41637295D01*
X154203333Y-40837295D02*
X154050952Y-40837295D01*
X154050952Y-40837295D02*
X153974761Y-40875390D01*
X153974761Y-40875390D02*
X153936666Y-40913485D01*
X153936666Y-40913485D02*
X153860476Y-41027771D01*
X153860476Y-41027771D02*
X153822380Y-41180152D01*
X153822380Y-41180152D02*
X153822380Y-41484914D01*
X153822380Y-41484914D02*
X153860476Y-41561104D01*
X153860476Y-41561104D02*
X153898571Y-41599200D01*
X153898571Y-41599200D02*
X153974761Y-41637295D01*
X153974761Y-41637295D02*
X154127142Y-41637295D01*
X154127142Y-41637295D02*
X154203333Y-41599200D01*
X154203333Y-41599200D02*
X154241428Y-41561104D01*
X154241428Y-41561104D02*
X154279523Y-41484914D01*
X154279523Y-41484914D02*
X154279523Y-41294438D01*
X154279523Y-41294438D02*
X154241428Y-41218247D01*
X154241428Y-41218247D02*
X154203333Y-41180152D01*
X154203333Y-41180152D02*
X154127142Y-41142057D01*
X154127142Y-41142057D02*
X153974761Y-41142057D01*
X153974761Y-41142057D02*
X153898571Y-41180152D01*
X153898571Y-41180152D02*
X153860476Y-41218247D01*
X153860476Y-41218247D02*
X153822380Y-41294438D01*
X153060475Y-45993485D02*
X153098571Y-45955390D01*
X153098571Y-45955390D02*
X153174761Y-45917295D01*
X153174761Y-45917295D02*
X153365237Y-45917295D01*
X153365237Y-45917295D02*
X153441428Y-45955390D01*
X153441428Y-45955390D02*
X153479523Y-45993485D01*
X153479523Y-45993485D02*
X153517618Y-46069676D01*
X153517618Y-46069676D02*
X153517618Y-46145866D01*
X153517618Y-46145866D02*
X153479523Y-46260152D01*
X153479523Y-46260152D02*
X153022380Y-46717295D01*
X153022380Y-46717295D02*
X153517618Y-46717295D01*
X154012857Y-45917295D02*
X154089047Y-45917295D01*
X154089047Y-45917295D02*
X154165238Y-45955390D01*
X154165238Y-45955390D02*
X154203333Y-45993485D01*
X154203333Y-45993485D02*
X154241428Y-46069676D01*
X154241428Y-46069676D02*
X154279523Y-46222057D01*
X154279523Y-46222057D02*
X154279523Y-46412533D01*
X154279523Y-46412533D02*
X154241428Y-46564914D01*
X154241428Y-46564914D02*
X154203333Y-46641104D01*
X154203333Y-46641104D02*
X154165238Y-46679200D01*
X154165238Y-46679200D02*
X154089047Y-46717295D01*
X154089047Y-46717295D02*
X154012857Y-46717295D01*
X154012857Y-46717295D02*
X153936666Y-46679200D01*
X153936666Y-46679200D02*
X153898571Y-46641104D01*
X153898571Y-46641104D02*
X153860476Y-46564914D01*
X153860476Y-46564914D02*
X153822380Y-46412533D01*
X153822380Y-46412533D02*
X153822380Y-46222057D01*
X153822380Y-46222057D02*
X153860476Y-46069676D01*
X153860476Y-46069676D02*
X153898571Y-45993485D01*
X153898571Y-45993485D02*
X153936666Y-45955390D01*
X153936666Y-45955390D02*
X154012857Y-45917295D01*
X153060475Y-33293485D02*
X153098571Y-33255390D01*
X153098571Y-33255390D02*
X153174761Y-33217295D01*
X153174761Y-33217295D02*
X153365237Y-33217295D01*
X153365237Y-33217295D02*
X153441428Y-33255390D01*
X153441428Y-33255390D02*
X153479523Y-33293485D01*
X153479523Y-33293485D02*
X153517618Y-33369676D01*
X153517618Y-33369676D02*
X153517618Y-33445866D01*
X153517618Y-33445866D02*
X153479523Y-33560152D01*
X153479523Y-33560152D02*
X153022380Y-34017295D01*
X153022380Y-34017295D02*
X153517618Y-34017295D01*
X153898571Y-34017295D02*
X154050952Y-34017295D01*
X154050952Y-34017295D02*
X154127142Y-33979200D01*
X154127142Y-33979200D02*
X154165238Y-33941104D01*
X154165238Y-33941104D02*
X154241428Y-33826819D01*
X154241428Y-33826819D02*
X154279523Y-33674438D01*
X154279523Y-33674438D02*
X154279523Y-33369676D01*
X154279523Y-33369676D02*
X154241428Y-33293485D01*
X154241428Y-33293485D02*
X154203333Y-33255390D01*
X154203333Y-33255390D02*
X154127142Y-33217295D01*
X154127142Y-33217295D02*
X153974761Y-33217295D01*
X153974761Y-33217295D02*
X153898571Y-33255390D01*
X153898571Y-33255390D02*
X153860476Y-33293485D01*
X153860476Y-33293485D02*
X153822380Y-33369676D01*
X153822380Y-33369676D02*
X153822380Y-33560152D01*
X153822380Y-33560152D02*
X153860476Y-33636342D01*
X153860476Y-33636342D02*
X153898571Y-33674438D01*
X153898571Y-33674438D02*
X153974761Y-33712533D01*
X153974761Y-33712533D02*
X154127142Y-33712533D01*
X154127142Y-33712533D02*
X154203333Y-33674438D01*
X154203333Y-33674438D02*
X154241428Y-33636342D01*
X154241428Y-33636342D02*
X154279523Y-33560152D01*
X153060475Y-35833485D02*
X153098571Y-35795390D01*
X153098571Y-35795390D02*
X153174761Y-35757295D01*
X153174761Y-35757295D02*
X153365237Y-35757295D01*
X153365237Y-35757295D02*
X153441428Y-35795390D01*
X153441428Y-35795390D02*
X153479523Y-35833485D01*
X153479523Y-35833485D02*
X153517618Y-35909676D01*
X153517618Y-35909676D02*
X153517618Y-35985866D01*
X153517618Y-35985866D02*
X153479523Y-36100152D01*
X153479523Y-36100152D02*
X153022380Y-36557295D01*
X153022380Y-36557295D02*
X153517618Y-36557295D01*
X153974761Y-36100152D02*
X153898571Y-36062057D01*
X153898571Y-36062057D02*
X153860476Y-36023961D01*
X153860476Y-36023961D02*
X153822380Y-35947771D01*
X153822380Y-35947771D02*
X153822380Y-35909676D01*
X153822380Y-35909676D02*
X153860476Y-35833485D01*
X153860476Y-35833485D02*
X153898571Y-35795390D01*
X153898571Y-35795390D02*
X153974761Y-35757295D01*
X153974761Y-35757295D02*
X154127142Y-35757295D01*
X154127142Y-35757295D02*
X154203333Y-35795390D01*
X154203333Y-35795390D02*
X154241428Y-35833485D01*
X154241428Y-35833485D02*
X154279523Y-35909676D01*
X154279523Y-35909676D02*
X154279523Y-35947771D01*
X154279523Y-35947771D02*
X154241428Y-36023961D01*
X154241428Y-36023961D02*
X154203333Y-36062057D01*
X154203333Y-36062057D02*
X154127142Y-36100152D01*
X154127142Y-36100152D02*
X153974761Y-36100152D01*
X153974761Y-36100152D02*
X153898571Y-36138247D01*
X153898571Y-36138247D02*
X153860476Y-36176342D01*
X153860476Y-36176342D02*
X153822380Y-36252533D01*
X153822380Y-36252533D02*
X153822380Y-36404914D01*
X153822380Y-36404914D02*
X153860476Y-36481104D01*
X153860476Y-36481104D02*
X153898571Y-36519200D01*
X153898571Y-36519200D02*
X153974761Y-36557295D01*
X153974761Y-36557295D02*
X154127142Y-36557295D01*
X154127142Y-36557295D02*
X154203333Y-36519200D01*
X154203333Y-36519200D02*
X154241428Y-36481104D01*
X154241428Y-36481104D02*
X154279523Y-36404914D01*
X154279523Y-36404914D02*
X154279523Y-36252533D01*
X154279523Y-36252533D02*
X154241428Y-36176342D01*
X154241428Y-36176342D02*
X154203333Y-36138247D01*
X154203333Y-36138247D02*
X154127142Y-36100152D01*
X133311905Y-23057295D02*
X133388095Y-23057295D01*
X133388095Y-23057295D02*
X133464286Y-23095390D01*
X133464286Y-23095390D02*
X133502381Y-23133485D01*
X133502381Y-23133485D02*
X133540476Y-23209676D01*
X133540476Y-23209676D02*
X133578571Y-23362057D01*
X133578571Y-23362057D02*
X133578571Y-23552533D01*
X133578571Y-23552533D02*
X133540476Y-23704914D01*
X133540476Y-23704914D02*
X133502381Y-23781104D01*
X133502381Y-23781104D02*
X133464286Y-23819200D01*
X133464286Y-23819200D02*
X133388095Y-23857295D01*
X133388095Y-23857295D02*
X133311905Y-23857295D01*
X133311905Y-23857295D02*
X133235714Y-23819200D01*
X133235714Y-23819200D02*
X133197619Y-23781104D01*
X133197619Y-23781104D02*
X133159524Y-23704914D01*
X133159524Y-23704914D02*
X133121428Y-23552533D01*
X133121428Y-23552533D02*
X133121428Y-23362057D01*
X133121428Y-23362057D02*
X133159524Y-23209676D01*
X133159524Y-23209676D02*
X133197619Y-23133485D01*
X133197619Y-23133485D02*
X133235714Y-23095390D01*
X133235714Y-23095390D02*
X133311905Y-23057295D01*
X133197618Y-21317295D02*
X132740475Y-21317295D01*
X132969047Y-21317295D02*
X132969047Y-20517295D01*
X132969047Y-20517295D02*
X132892856Y-20631580D01*
X132892856Y-20631580D02*
X132816666Y-20707771D01*
X132816666Y-20707771D02*
X132740475Y-20745866D01*
X133692857Y-20517295D02*
X133769047Y-20517295D01*
X133769047Y-20517295D02*
X133845238Y-20555390D01*
X133845238Y-20555390D02*
X133883333Y-20593485D01*
X133883333Y-20593485D02*
X133921428Y-20669676D01*
X133921428Y-20669676D02*
X133959523Y-20822057D01*
X133959523Y-20822057D02*
X133959523Y-21012533D01*
X133959523Y-21012533D02*
X133921428Y-21164914D01*
X133921428Y-21164914D02*
X133883333Y-21241104D01*
X133883333Y-21241104D02*
X133845238Y-21279200D01*
X133845238Y-21279200D02*
X133769047Y-21317295D01*
X133769047Y-21317295D02*
X133692857Y-21317295D01*
X133692857Y-21317295D02*
X133616666Y-21279200D01*
X133616666Y-21279200D02*
X133578571Y-21241104D01*
X133578571Y-21241104D02*
X133540476Y-21164914D01*
X133540476Y-21164914D02*
X133502380Y-21012533D01*
X133502380Y-21012533D02*
X133502380Y-20822057D01*
X133502380Y-20822057D02*
X133540476Y-20669676D01*
X133540476Y-20669676D02*
X133578571Y-20593485D01*
X133578571Y-20593485D02*
X133616666Y-20555390D01*
X133616666Y-20555390D02*
X133692857Y-20517295D01*
X153060475Y-51073485D02*
X153098571Y-51035390D01*
X153098571Y-51035390D02*
X153174761Y-50997295D01*
X153174761Y-50997295D02*
X153365237Y-50997295D01*
X153365237Y-50997295D02*
X153441428Y-51035390D01*
X153441428Y-51035390D02*
X153479523Y-51073485D01*
X153479523Y-51073485D02*
X153517618Y-51149676D01*
X153517618Y-51149676D02*
X153517618Y-51225866D01*
X153517618Y-51225866D02*
X153479523Y-51340152D01*
X153479523Y-51340152D02*
X153022380Y-51797295D01*
X153022380Y-51797295D02*
X153517618Y-51797295D01*
X154279523Y-51797295D02*
X153822380Y-51797295D01*
X154050952Y-51797295D02*
X154050952Y-50997295D01*
X154050952Y-50997295D02*
X153974761Y-51111580D01*
X153974761Y-51111580D02*
X153898571Y-51187771D01*
X153898571Y-51187771D02*
X153822380Y-51225866D01*
X133502381Y-38563961D02*
X133502381Y-39097295D01*
X133311905Y-38259200D02*
X133121428Y-38830628D01*
X133121428Y-38830628D02*
X133616667Y-38830628D01*
X133578571Y-26397295D02*
X133121428Y-26397295D01*
X133350000Y-26397295D02*
X133350000Y-25597295D01*
X133350000Y-25597295D02*
X133273809Y-25711580D01*
X133273809Y-25711580D02*
X133197619Y-25787771D01*
X133197619Y-25787771D02*
X133121428Y-25825866D01*
X132740476Y-30715390D02*
X132664286Y-30677295D01*
X132664286Y-30677295D02*
X132550000Y-30677295D01*
X132550000Y-30677295D02*
X132435714Y-30715390D01*
X132435714Y-30715390D02*
X132359524Y-30791580D01*
X132359524Y-30791580D02*
X132321429Y-30867771D01*
X132321429Y-30867771D02*
X132283333Y-31020152D01*
X132283333Y-31020152D02*
X132283333Y-31134438D01*
X132283333Y-31134438D02*
X132321429Y-31286819D01*
X132321429Y-31286819D02*
X132359524Y-31363009D01*
X132359524Y-31363009D02*
X132435714Y-31439200D01*
X132435714Y-31439200D02*
X132550000Y-31477295D01*
X132550000Y-31477295D02*
X132626191Y-31477295D01*
X132626191Y-31477295D02*
X132740476Y-31439200D01*
X132740476Y-31439200D02*
X132778572Y-31401104D01*
X132778572Y-31401104D02*
X132778572Y-31134438D01*
X132778572Y-31134438D02*
X132626191Y-31134438D01*
X133121429Y-31477295D02*
X133121429Y-30677295D01*
X133121429Y-30677295D02*
X133578572Y-31477295D01*
X133578572Y-31477295D02*
X133578572Y-30677295D01*
X133959524Y-31477295D02*
X133959524Y-30677295D01*
X133959524Y-30677295D02*
X134150000Y-30677295D01*
X134150000Y-30677295D02*
X134264286Y-30715390D01*
X134264286Y-30715390D02*
X134340476Y-30791580D01*
X134340476Y-30791580D02*
X134378571Y-30867771D01*
X134378571Y-30867771D02*
X134416667Y-31020152D01*
X134416667Y-31020152D02*
X134416667Y-31134438D01*
X134416667Y-31134438D02*
X134378571Y-31286819D01*
X134378571Y-31286819D02*
X134340476Y-31363009D01*
X134340476Y-31363009D02*
X134264286Y-31439200D01*
X134264286Y-31439200D02*
X134150000Y-31477295D01*
X134150000Y-31477295D02*
X133959524Y-31477295D01*
X153060475Y-38373485D02*
X153098571Y-38335390D01*
X153098571Y-38335390D02*
X153174761Y-38297295D01*
X153174761Y-38297295D02*
X153365237Y-38297295D01*
X153365237Y-38297295D02*
X153441428Y-38335390D01*
X153441428Y-38335390D02*
X153479523Y-38373485D01*
X153479523Y-38373485D02*
X153517618Y-38449676D01*
X153517618Y-38449676D02*
X153517618Y-38525866D01*
X153517618Y-38525866D02*
X153479523Y-38640152D01*
X153479523Y-38640152D02*
X153022380Y-39097295D01*
X153022380Y-39097295D02*
X153517618Y-39097295D01*
X153784285Y-38297295D02*
X154317619Y-38297295D01*
X154317619Y-38297295D02*
X153974761Y-39097295D01*
X152679523Y-30677295D02*
X153174761Y-30677295D01*
X153174761Y-30677295D02*
X152908095Y-30982057D01*
X152908095Y-30982057D02*
X153022380Y-30982057D01*
X153022380Y-30982057D02*
X153098571Y-31020152D01*
X153098571Y-31020152D02*
X153136666Y-31058247D01*
X153136666Y-31058247D02*
X153174761Y-31134438D01*
X153174761Y-31134438D02*
X153174761Y-31324914D01*
X153174761Y-31324914D02*
X153136666Y-31401104D01*
X153136666Y-31401104D02*
X153098571Y-31439200D01*
X153098571Y-31439200D02*
X153022380Y-31477295D01*
X153022380Y-31477295D02*
X152793809Y-31477295D01*
X152793809Y-31477295D02*
X152717618Y-31439200D01*
X152717618Y-31439200D02*
X152679523Y-31401104D01*
X153403333Y-30677295D02*
X153670000Y-31477295D01*
X153670000Y-31477295D02*
X153936666Y-30677295D01*
X154127142Y-30677295D02*
X154622380Y-30677295D01*
X154622380Y-30677295D02*
X154355714Y-30982057D01*
X154355714Y-30982057D02*
X154469999Y-30982057D01*
X154469999Y-30982057D02*
X154546190Y-31020152D01*
X154546190Y-31020152D02*
X154584285Y-31058247D01*
X154584285Y-31058247D02*
X154622380Y-31134438D01*
X154622380Y-31134438D02*
X154622380Y-31324914D01*
X154622380Y-31324914D02*
X154584285Y-31401104D01*
X154584285Y-31401104D02*
X154546190Y-31439200D01*
X154546190Y-31439200D02*
X154469999Y-31477295D01*
X154469999Y-31477295D02*
X154241428Y-31477295D01*
X154241428Y-31477295D02*
X154165237Y-31439200D01*
X154165237Y-31439200D02*
X154127142Y-31401104D01*
X133121428Y-33293485D02*
X133159524Y-33255390D01*
X133159524Y-33255390D02*
X133235714Y-33217295D01*
X133235714Y-33217295D02*
X133426190Y-33217295D01*
X133426190Y-33217295D02*
X133502381Y-33255390D01*
X133502381Y-33255390D02*
X133540476Y-33293485D01*
X133540476Y-33293485D02*
X133578571Y-33369676D01*
X133578571Y-33369676D02*
X133578571Y-33445866D01*
X133578571Y-33445866D02*
X133540476Y-33560152D01*
X133540476Y-33560152D02*
X133083333Y-34017295D01*
X133083333Y-34017295D02*
X133578571Y-34017295D01*
X153060475Y-48533485D02*
X153098571Y-48495390D01*
X153098571Y-48495390D02*
X153174761Y-48457295D01*
X153174761Y-48457295D02*
X153365237Y-48457295D01*
X153365237Y-48457295D02*
X153441428Y-48495390D01*
X153441428Y-48495390D02*
X153479523Y-48533485D01*
X153479523Y-48533485D02*
X153517618Y-48609676D01*
X153517618Y-48609676D02*
X153517618Y-48685866D01*
X153517618Y-48685866D02*
X153479523Y-48800152D01*
X153479523Y-48800152D02*
X153022380Y-49257295D01*
X153022380Y-49257295D02*
X153517618Y-49257295D01*
X153784285Y-48457295D02*
X154279523Y-48457295D01*
X154279523Y-48457295D02*
X154012857Y-48762057D01*
X154012857Y-48762057D02*
X154127142Y-48762057D01*
X154127142Y-48762057D02*
X154203333Y-48800152D01*
X154203333Y-48800152D02*
X154241428Y-48838247D01*
X154241428Y-48838247D02*
X154279523Y-48914438D01*
X154279523Y-48914438D02*
X154279523Y-49104914D01*
X154279523Y-49104914D02*
X154241428Y-49181104D01*
X154241428Y-49181104D02*
X154203333Y-49219200D01*
X154203333Y-49219200D02*
X154127142Y-49257295D01*
X154127142Y-49257295D02*
X153898571Y-49257295D01*
X153898571Y-49257295D02*
X153822380Y-49219200D01*
X153822380Y-49219200D02*
X153784285Y-49181104D01*
X133083333Y-35757295D02*
X133578571Y-35757295D01*
X133578571Y-35757295D02*
X133311905Y-36062057D01*
X133311905Y-36062057D02*
X133426190Y-36062057D01*
X133426190Y-36062057D02*
X133502381Y-36100152D01*
X133502381Y-36100152D02*
X133540476Y-36138247D01*
X133540476Y-36138247D02*
X133578571Y-36214438D01*
X133578571Y-36214438D02*
X133578571Y-36404914D01*
X133578571Y-36404914D02*
X133540476Y-36481104D01*
X133540476Y-36481104D02*
X133502381Y-36519200D01*
X133502381Y-36519200D02*
X133426190Y-36557295D01*
X133426190Y-36557295D02*
X133197619Y-36557295D01*
X133197619Y-36557295D02*
X133121428Y-36519200D01*
X133121428Y-36519200D02*
X133083333Y-36481104D01*
X153517618Y-21317295D02*
X153060475Y-21317295D01*
X153289047Y-21317295D02*
X153289047Y-20517295D01*
X153289047Y-20517295D02*
X153212856Y-20631580D01*
X153212856Y-20631580D02*
X153136666Y-20707771D01*
X153136666Y-20707771D02*
X153060475Y-20745866D01*
X154279523Y-21317295D02*
X153822380Y-21317295D01*
X154050952Y-21317295D02*
X154050952Y-20517295D01*
X154050952Y-20517295D02*
X153974761Y-20631580D01*
X153974761Y-20631580D02*
X153898571Y-20707771D01*
X153898571Y-20707771D02*
X153822380Y-20745866D01*
D11*
X142718095Y-45692419D02*
X142718095Y-46501942D01*
X142718095Y-46501942D02*
X142765714Y-46597180D01*
X142765714Y-46597180D02*
X142813333Y-46644800D01*
X142813333Y-46644800D02*
X142908571Y-46692419D01*
X142908571Y-46692419D02*
X143099047Y-46692419D01*
X143099047Y-46692419D02*
X143194285Y-46644800D01*
X143194285Y-46644800D02*
X143241904Y-46597180D01*
X143241904Y-46597180D02*
X143289523Y-46501942D01*
X143289523Y-46501942D02*
X143289523Y-45692419D01*
X144289523Y-46692419D02*
X143718095Y-46692419D01*
X144003809Y-46692419D02*
X144003809Y-45692419D01*
X144003809Y-45692419D02*
X143908571Y-45835276D01*
X143908571Y-45835276D02*
X143813333Y-45930514D01*
X143813333Y-45930514D02*
X143718095Y-45978133D01*
D12*
X217820476Y-59472200D02*
X217963333Y-59519819D01*
X217963333Y-59519819D02*
X218201428Y-59519819D01*
X218201428Y-59519819D02*
X218296666Y-59472200D01*
X218296666Y-59472200D02*
X218344285Y-59424580D01*
X218344285Y-59424580D02*
X218391904Y-59329342D01*
X218391904Y-59329342D02*
X218391904Y-59234104D01*
X218391904Y-59234104D02*
X218344285Y-59138866D01*
X218344285Y-59138866D02*
X218296666Y-59091247D01*
X218296666Y-59091247D02*
X218201428Y-59043628D01*
X218201428Y-59043628D02*
X218010952Y-58996009D01*
X218010952Y-58996009D02*
X217915714Y-58948390D01*
X217915714Y-58948390D02*
X217868095Y-58900771D01*
X217868095Y-58900771D02*
X217820476Y-58805533D01*
X217820476Y-58805533D02*
X217820476Y-58710295D01*
X217820476Y-58710295D02*
X217868095Y-58615057D01*
X217868095Y-58615057D02*
X217915714Y-58567438D01*
X217915714Y-58567438D02*
X218010952Y-58519819D01*
X218010952Y-58519819D02*
X218249047Y-58519819D01*
X218249047Y-58519819D02*
X218391904Y-58567438D01*
X218725238Y-58519819D02*
X218963333Y-59519819D01*
X218963333Y-59519819D02*
X219153809Y-58805533D01*
X219153809Y-58805533D02*
X219344285Y-59519819D01*
X219344285Y-59519819D02*
X219582381Y-58519819D01*
X219868095Y-58519819D02*
X220487142Y-58519819D01*
X220487142Y-58519819D02*
X220153809Y-58900771D01*
X220153809Y-58900771D02*
X220296666Y-58900771D01*
X220296666Y-58900771D02*
X220391904Y-58948390D01*
X220391904Y-58948390D02*
X220439523Y-58996009D01*
X220439523Y-58996009D02*
X220487142Y-59091247D01*
X220487142Y-59091247D02*
X220487142Y-59329342D01*
X220487142Y-59329342D02*
X220439523Y-59424580D01*
X220439523Y-59424580D02*
X220391904Y-59472200D01*
X220391904Y-59472200D02*
X220296666Y-59519819D01*
X220296666Y-59519819D02*
X220010952Y-59519819D01*
X220010952Y-59519819D02*
X219915714Y-59472200D01*
X219915714Y-59472200D02*
X219868095Y-59424580D01*
X221344285Y-58853152D02*
X221344285Y-59519819D01*
X221106190Y-58472200D02*
X220868095Y-59186485D01*
X220868095Y-59186485D02*
X221487142Y-59186485D01*
X46846667Y-21372200D02*
X46989524Y-21419819D01*
X46989524Y-21419819D02*
X47227619Y-21419819D01*
X47227619Y-21419819D02*
X47322857Y-21372200D01*
X47322857Y-21372200D02*
X47370476Y-21324580D01*
X47370476Y-21324580D02*
X47418095Y-21229342D01*
X47418095Y-21229342D02*
X47418095Y-21134104D01*
X47418095Y-21134104D02*
X47370476Y-21038866D01*
X47370476Y-21038866D02*
X47322857Y-20991247D01*
X47322857Y-20991247D02*
X47227619Y-20943628D01*
X47227619Y-20943628D02*
X47037143Y-20896009D01*
X47037143Y-20896009D02*
X46941905Y-20848390D01*
X46941905Y-20848390D02*
X46894286Y-20800771D01*
X46894286Y-20800771D02*
X46846667Y-20705533D01*
X46846667Y-20705533D02*
X46846667Y-20610295D01*
X46846667Y-20610295D02*
X46894286Y-20515057D01*
X46894286Y-20515057D02*
X46941905Y-20467438D01*
X46941905Y-20467438D02*
X47037143Y-20419819D01*
X47037143Y-20419819D02*
X47275238Y-20419819D01*
X47275238Y-20419819D02*
X47418095Y-20467438D01*
X47751429Y-20419819D02*
X47989524Y-21419819D01*
X47989524Y-21419819D02*
X48180000Y-20705533D01*
X48180000Y-20705533D02*
X48370476Y-21419819D01*
X48370476Y-21419819D02*
X48608572Y-20419819D01*
X48941905Y-20515057D02*
X48989524Y-20467438D01*
X48989524Y-20467438D02*
X49084762Y-20419819D01*
X49084762Y-20419819D02*
X49322857Y-20419819D01*
X49322857Y-20419819D02*
X49418095Y-20467438D01*
X49418095Y-20467438D02*
X49465714Y-20515057D01*
X49465714Y-20515057D02*
X49513333Y-20610295D01*
X49513333Y-20610295D02*
X49513333Y-20705533D01*
X49513333Y-20705533D02*
X49465714Y-20848390D01*
X49465714Y-20848390D02*
X48894286Y-21419819D01*
X48894286Y-21419819D02*
X49513333Y-21419819D01*
X27320476Y-40422200D02*
X27463333Y-40469819D01*
X27463333Y-40469819D02*
X27701428Y-40469819D01*
X27701428Y-40469819D02*
X27796666Y-40422200D01*
X27796666Y-40422200D02*
X27844285Y-40374580D01*
X27844285Y-40374580D02*
X27891904Y-40279342D01*
X27891904Y-40279342D02*
X27891904Y-40184104D01*
X27891904Y-40184104D02*
X27844285Y-40088866D01*
X27844285Y-40088866D02*
X27796666Y-40041247D01*
X27796666Y-40041247D02*
X27701428Y-39993628D01*
X27701428Y-39993628D02*
X27510952Y-39946009D01*
X27510952Y-39946009D02*
X27415714Y-39898390D01*
X27415714Y-39898390D02*
X27368095Y-39850771D01*
X27368095Y-39850771D02*
X27320476Y-39755533D01*
X27320476Y-39755533D02*
X27320476Y-39660295D01*
X27320476Y-39660295D02*
X27368095Y-39565057D01*
X27368095Y-39565057D02*
X27415714Y-39517438D01*
X27415714Y-39517438D02*
X27510952Y-39469819D01*
X27510952Y-39469819D02*
X27749047Y-39469819D01*
X27749047Y-39469819D02*
X27891904Y-39517438D01*
X28225238Y-39469819D02*
X28463333Y-40469819D01*
X28463333Y-40469819D02*
X28653809Y-39755533D01*
X28653809Y-39755533D02*
X28844285Y-40469819D01*
X28844285Y-40469819D02*
X29082381Y-39469819D01*
X29987142Y-40469819D02*
X29415714Y-40469819D01*
X29701428Y-40469819D02*
X29701428Y-39469819D01*
X29701428Y-39469819D02*
X29606190Y-39612676D01*
X29606190Y-39612676D02*
X29510952Y-39707914D01*
X29510952Y-39707914D02*
X29415714Y-39755533D01*
X30320476Y-39469819D02*
X30939523Y-39469819D01*
X30939523Y-39469819D02*
X30606190Y-39850771D01*
X30606190Y-39850771D02*
X30749047Y-39850771D01*
X30749047Y-39850771D02*
X30844285Y-39898390D01*
X30844285Y-39898390D02*
X30891904Y-39946009D01*
X30891904Y-39946009D02*
X30939523Y-40041247D01*
X30939523Y-40041247D02*
X30939523Y-40279342D01*
X30939523Y-40279342D02*
X30891904Y-40374580D01*
X30891904Y-40374580D02*
X30844285Y-40422200D01*
X30844285Y-40422200D02*
X30749047Y-40469819D01*
X30749047Y-40469819D02*
X30463333Y-40469819D01*
X30463333Y-40469819D02*
X30368095Y-40422200D01*
X30368095Y-40422200D02*
X30320476Y-40374580D01*
X46370476Y-78522200D02*
X46513333Y-78569819D01*
X46513333Y-78569819D02*
X46751428Y-78569819D01*
X46751428Y-78569819D02*
X46846666Y-78522200D01*
X46846666Y-78522200D02*
X46894285Y-78474580D01*
X46894285Y-78474580D02*
X46941904Y-78379342D01*
X46941904Y-78379342D02*
X46941904Y-78284104D01*
X46941904Y-78284104D02*
X46894285Y-78188866D01*
X46894285Y-78188866D02*
X46846666Y-78141247D01*
X46846666Y-78141247D02*
X46751428Y-78093628D01*
X46751428Y-78093628D02*
X46560952Y-78046009D01*
X46560952Y-78046009D02*
X46465714Y-77998390D01*
X46465714Y-77998390D02*
X46418095Y-77950771D01*
X46418095Y-77950771D02*
X46370476Y-77855533D01*
X46370476Y-77855533D02*
X46370476Y-77760295D01*
X46370476Y-77760295D02*
X46418095Y-77665057D01*
X46418095Y-77665057D02*
X46465714Y-77617438D01*
X46465714Y-77617438D02*
X46560952Y-77569819D01*
X46560952Y-77569819D02*
X46799047Y-77569819D01*
X46799047Y-77569819D02*
X46941904Y-77617438D01*
X47275238Y-77569819D02*
X47513333Y-78569819D01*
X47513333Y-78569819D02*
X47703809Y-77855533D01*
X47703809Y-77855533D02*
X47894285Y-78569819D01*
X47894285Y-78569819D02*
X48132381Y-77569819D01*
X48418095Y-77569819D02*
X49037142Y-77569819D01*
X49037142Y-77569819D02*
X48703809Y-77950771D01*
X48703809Y-77950771D02*
X48846666Y-77950771D01*
X48846666Y-77950771D02*
X48941904Y-77998390D01*
X48941904Y-77998390D02*
X48989523Y-78046009D01*
X48989523Y-78046009D02*
X49037142Y-78141247D01*
X49037142Y-78141247D02*
X49037142Y-78379342D01*
X49037142Y-78379342D02*
X48989523Y-78474580D01*
X48989523Y-78474580D02*
X48941904Y-78522200D01*
X48941904Y-78522200D02*
X48846666Y-78569819D01*
X48846666Y-78569819D02*
X48560952Y-78569819D01*
X48560952Y-78569819D02*
X48465714Y-78522200D01*
X48465714Y-78522200D02*
X48418095Y-78474580D01*
X49608571Y-77998390D02*
X49513333Y-77950771D01*
X49513333Y-77950771D02*
X49465714Y-77903152D01*
X49465714Y-77903152D02*
X49418095Y-77807914D01*
X49418095Y-77807914D02*
X49418095Y-77760295D01*
X49418095Y-77760295D02*
X49465714Y-77665057D01*
X49465714Y-77665057D02*
X49513333Y-77617438D01*
X49513333Y-77617438D02*
X49608571Y-77569819D01*
X49608571Y-77569819D02*
X49799047Y-77569819D01*
X49799047Y-77569819D02*
X49894285Y-77617438D01*
X49894285Y-77617438D02*
X49941904Y-77665057D01*
X49941904Y-77665057D02*
X49989523Y-77760295D01*
X49989523Y-77760295D02*
X49989523Y-77807914D01*
X49989523Y-77807914D02*
X49941904Y-77903152D01*
X49941904Y-77903152D02*
X49894285Y-77950771D01*
X49894285Y-77950771D02*
X49799047Y-77998390D01*
X49799047Y-77998390D02*
X49608571Y-77998390D01*
X49608571Y-77998390D02*
X49513333Y-78046009D01*
X49513333Y-78046009D02*
X49465714Y-78093628D01*
X49465714Y-78093628D02*
X49418095Y-78188866D01*
X49418095Y-78188866D02*
X49418095Y-78379342D01*
X49418095Y-78379342D02*
X49465714Y-78474580D01*
X49465714Y-78474580D02*
X49513333Y-78522200D01*
X49513333Y-78522200D02*
X49608571Y-78569819D01*
X49608571Y-78569819D02*
X49799047Y-78569819D01*
X49799047Y-78569819D02*
X49894285Y-78522200D01*
X49894285Y-78522200D02*
X49941904Y-78474580D01*
X49941904Y-78474580D02*
X49989523Y-78379342D01*
X49989523Y-78379342D02*
X49989523Y-78188866D01*
X49989523Y-78188866D02*
X49941904Y-78093628D01*
X49941904Y-78093628D02*
X49894285Y-78046009D01*
X49894285Y-78046009D02*
X49799047Y-77998390D01*
X84470476Y-78522200D02*
X84613333Y-78569819D01*
X84613333Y-78569819D02*
X84851428Y-78569819D01*
X84851428Y-78569819D02*
X84946666Y-78522200D01*
X84946666Y-78522200D02*
X84994285Y-78474580D01*
X84994285Y-78474580D02*
X85041904Y-78379342D01*
X85041904Y-78379342D02*
X85041904Y-78284104D01*
X85041904Y-78284104D02*
X84994285Y-78188866D01*
X84994285Y-78188866D02*
X84946666Y-78141247D01*
X84946666Y-78141247D02*
X84851428Y-78093628D01*
X84851428Y-78093628D02*
X84660952Y-78046009D01*
X84660952Y-78046009D02*
X84565714Y-77998390D01*
X84565714Y-77998390D02*
X84518095Y-77950771D01*
X84518095Y-77950771D02*
X84470476Y-77855533D01*
X84470476Y-77855533D02*
X84470476Y-77760295D01*
X84470476Y-77760295D02*
X84518095Y-77665057D01*
X84518095Y-77665057D02*
X84565714Y-77617438D01*
X84565714Y-77617438D02*
X84660952Y-77569819D01*
X84660952Y-77569819D02*
X84899047Y-77569819D01*
X84899047Y-77569819D02*
X85041904Y-77617438D01*
X85375238Y-77569819D02*
X85613333Y-78569819D01*
X85613333Y-78569819D02*
X85803809Y-77855533D01*
X85803809Y-77855533D02*
X85994285Y-78569819D01*
X85994285Y-78569819D02*
X86232381Y-77569819D01*
X87041904Y-77903152D02*
X87041904Y-78569819D01*
X86803809Y-77522200D02*
X86565714Y-78236485D01*
X86565714Y-78236485D02*
X87184761Y-78236485D01*
X87756190Y-77569819D02*
X87851428Y-77569819D01*
X87851428Y-77569819D02*
X87946666Y-77617438D01*
X87946666Y-77617438D02*
X87994285Y-77665057D01*
X87994285Y-77665057D02*
X88041904Y-77760295D01*
X88041904Y-77760295D02*
X88089523Y-77950771D01*
X88089523Y-77950771D02*
X88089523Y-78188866D01*
X88089523Y-78188866D02*
X88041904Y-78379342D01*
X88041904Y-78379342D02*
X87994285Y-78474580D01*
X87994285Y-78474580D02*
X87946666Y-78522200D01*
X87946666Y-78522200D02*
X87851428Y-78569819D01*
X87851428Y-78569819D02*
X87756190Y-78569819D01*
X87756190Y-78569819D02*
X87660952Y-78522200D01*
X87660952Y-78522200D02*
X87613333Y-78474580D01*
X87613333Y-78474580D02*
X87565714Y-78379342D01*
X87565714Y-78379342D02*
X87518095Y-78188866D01*
X87518095Y-78188866D02*
X87518095Y-77950771D01*
X87518095Y-77950771D02*
X87565714Y-77760295D01*
X87565714Y-77760295D02*
X87613333Y-77665057D01*
X87613333Y-77665057D02*
X87660952Y-77617438D01*
X87660952Y-77617438D02*
X87756190Y-77569819D01*
X27320476Y-78522200D02*
X27463333Y-78569819D01*
X27463333Y-78569819D02*
X27701428Y-78569819D01*
X27701428Y-78569819D02*
X27796666Y-78522200D01*
X27796666Y-78522200D02*
X27844285Y-78474580D01*
X27844285Y-78474580D02*
X27891904Y-78379342D01*
X27891904Y-78379342D02*
X27891904Y-78284104D01*
X27891904Y-78284104D02*
X27844285Y-78188866D01*
X27844285Y-78188866D02*
X27796666Y-78141247D01*
X27796666Y-78141247D02*
X27701428Y-78093628D01*
X27701428Y-78093628D02*
X27510952Y-78046009D01*
X27510952Y-78046009D02*
X27415714Y-77998390D01*
X27415714Y-77998390D02*
X27368095Y-77950771D01*
X27368095Y-77950771D02*
X27320476Y-77855533D01*
X27320476Y-77855533D02*
X27320476Y-77760295D01*
X27320476Y-77760295D02*
X27368095Y-77665057D01*
X27368095Y-77665057D02*
X27415714Y-77617438D01*
X27415714Y-77617438D02*
X27510952Y-77569819D01*
X27510952Y-77569819D02*
X27749047Y-77569819D01*
X27749047Y-77569819D02*
X27891904Y-77617438D01*
X28225238Y-77569819D02*
X28463333Y-78569819D01*
X28463333Y-78569819D02*
X28653809Y-77855533D01*
X28653809Y-77855533D02*
X28844285Y-78569819D01*
X28844285Y-78569819D02*
X29082381Y-77569819D01*
X29368095Y-77569819D02*
X29987142Y-77569819D01*
X29987142Y-77569819D02*
X29653809Y-77950771D01*
X29653809Y-77950771D02*
X29796666Y-77950771D01*
X29796666Y-77950771D02*
X29891904Y-77998390D01*
X29891904Y-77998390D02*
X29939523Y-78046009D01*
X29939523Y-78046009D02*
X29987142Y-78141247D01*
X29987142Y-78141247D02*
X29987142Y-78379342D01*
X29987142Y-78379342D02*
X29939523Y-78474580D01*
X29939523Y-78474580D02*
X29891904Y-78522200D01*
X29891904Y-78522200D02*
X29796666Y-78569819D01*
X29796666Y-78569819D02*
X29510952Y-78569819D01*
X29510952Y-78569819D02*
X29415714Y-78522200D01*
X29415714Y-78522200D02*
X29368095Y-78474580D01*
X30320476Y-77569819D02*
X30987142Y-77569819D01*
X30987142Y-77569819D02*
X30558571Y-78569819D01*
X236870476Y-21362200D02*
X237013333Y-21409819D01*
X237013333Y-21409819D02*
X237251428Y-21409819D01*
X237251428Y-21409819D02*
X237346666Y-21362200D01*
X237346666Y-21362200D02*
X237394285Y-21314580D01*
X237394285Y-21314580D02*
X237441904Y-21219342D01*
X237441904Y-21219342D02*
X237441904Y-21124104D01*
X237441904Y-21124104D02*
X237394285Y-21028866D01*
X237394285Y-21028866D02*
X237346666Y-20981247D01*
X237346666Y-20981247D02*
X237251428Y-20933628D01*
X237251428Y-20933628D02*
X237060952Y-20886009D01*
X237060952Y-20886009D02*
X236965714Y-20838390D01*
X236965714Y-20838390D02*
X236918095Y-20790771D01*
X236918095Y-20790771D02*
X236870476Y-20695533D01*
X236870476Y-20695533D02*
X236870476Y-20600295D01*
X236870476Y-20600295D02*
X236918095Y-20505057D01*
X236918095Y-20505057D02*
X236965714Y-20457438D01*
X236965714Y-20457438D02*
X237060952Y-20409819D01*
X237060952Y-20409819D02*
X237299047Y-20409819D01*
X237299047Y-20409819D02*
X237441904Y-20457438D01*
X237775238Y-20409819D02*
X238013333Y-21409819D01*
X238013333Y-21409819D02*
X238203809Y-20695533D01*
X238203809Y-20695533D02*
X238394285Y-21409819D01*
X238394285Y-21409819D02*
X238632381Y-20409819D01*
X239537142Y-21409819D02*
X238965714Y-21409819D01*
X239251428Y-21409819D02*
X239251428Y-20409819D01*
X239251428Y-20409819D02*
X239156190Y-20552676D01*
X239156190Y-20552676D02*
X239060952Y-20647914D01*
X239060952Y-20647914D02*
X238965714Y-20695533D01*
X240489523Y-21409819D02*
X239918095Y-21409819D01*
X240203809Y-21409819D02*
X240203809Y-20409819D01*
X240203809Y-20409819D02*
X240108571Y-20552676D01*
X240108571Y-20552676D02*
X240013333Y-20647914D01*
X240013333Y-20647914D02*
X239918095Y-20695533D01*
X217820476Y-40422200D02*
X217963333Y-40469819D01*
X217963333Y-40469819D02*
X218201428Y-40469819D01*
X218201428Y-40469819D02*
X218296666Y-40422200D01*
X218296666Y-40422200D02*
X218344285Y-40374580D01*
X218344285Y-40374580D02*
X218391904Y-40279342D01*
X218391904Y-40279342D02*
X218391904Y-40184104D01*
X218391904Y-40184104D02*
X218344285Y-40088866D01*
X218344285Y-40088866D02*
X218296666Y-40041247D01*
X218296666Y-40041247D02*
X218201428Y-39993628D01*
X218201428Y-39993628D02*
X218010952Y-39946009D01*
X218010952Y-39946009D02*
X217915714Y-39898390D01*
X217915714Y-39898390D02*
X217868095Y-39850771D01*
X217868095Y-39850771D02*
X217820476Y-39755533D01*
X217820476Y-39755533D02*
X217820476Y-39660295D01*
X217820476Y-39660295D02*
X217868095Y-39565057D01*
X217868095Y-39565057D02*
X217915714Y-39517438D01*
X217915714Y-39517438D02*
X218010952Y-39469819D01*
X218010952Y-39469819D02*
X218249047Y-39469819D01*
X218249047Y-39469819D02*
X218391904Y-39517438D01*
X218725238Y-39469819D02*
X218963333Y-40469819D01*
X218963333Y-40469819D02*
X219153809Y-39755533D01*
X219153809Y-39755533D02*
X219344285Y-40469819D01*
X219344285Y-40469819D02*
X219582381Y-39469819D01*
X219915714Y-39565057D02*
X219963333Y-39517438D01*
X219963333Y-39517438D02*
X220058571Y-39469819D01*
X220058571Y-39469819D02*
X220296666Y-39469819D01*
X220296666Y-39469819D02*
X220391904Y-39517438D01*
X220391904Y-39517438D02*
X220439523Y-39565057D01*
X220439523Y-39565057D02*
X220487142Y-39660295D01*
X220487142Y-39660295D02*
X220487142Y-39755533D01*
X220487142Y-39755533D02*
X220439523Y-39898390D01*
X220439523Y-39898390D02*
X219868095Y-40469819D01*
X219868095Y-40469819D02*
X220487142Y-40469819D01*
X220868095Y-39565057D02*
X220915714Y-39517438D01*
X220915714Y-39517438D02*
X221010952Y-39469819D01*
X221010952Y-39469819D02*
X221249047Y-39469819D01*
X221249047Y-39469819D02*
X221344285Y-39517438D01*
X221344285Y-39517438D02*
X221391904Y-39565057D01*
X221391904Y-39565057D02*
X221439523Y-39660295D01*
X221439523Y-39660295D02*
X221439523Y-39755533D01*
X221439523Y-39755533D02*
X221391904Y-39898390D01*
X221391904Y-39898390D02*
X220820476Y-40469819D01*
X220820476Y-40469819D02*
X221439523Y-40469819D01*
X122570476Y-78522200D02*
X122713333Y-78569819D01*
X122713333Y-78569819D02*
X122951428Y-78569819D01*
X122951428Y-78569819D02*
X123046666Y-78522200D01*
X123046666Y-78522200D02*
X123094285Y-78474580D01*
X123094285Y-78474580D02*
X123141904Y-78379342D01*
X123141904Y-78379342D02*
X123141904Y-78284104D01*
X123141904Y-78284104D02*
X123094285Y-78188866D01*
X123094285Y-78188866D02*
X123046666Y-78141247D01*
X123046666Y-78141247D02*
X122951428Y-78093628D01*
X122951428Y-78093628D02*
X122760952Y-78046009D01*
X122760952Y-78046009D02*
X122665714Y-77998390D01*
X122665714Y-77998390D02*
X122618095Y-77950771D01*
X122618095Y-77950771D02*
X122570476Y-77855533D01*
X122570476Y-77855533D02*
X122570476Y-77760295D01*
X122570476Y-77760295D02*
X122618095Y-77665057D01*
X122618095Y-77665057D02*
X122665714Y-77617438D01*
X122665714Y-77617438D02*
X122760952Y-77569819D01*
X122760952Y-77569819D02*
X122999047Y-77569819D01*
X122999047Y-77569819D02*
X123141904Y-77617438D01*
X123475238Y-77569819D02*
X123713333Y-78569819D01*
X123713333Y-78569819D02*
X123903809Y-77855533D01*
X123903809Y-77855533D02*
X124094285Y-78569819D01*
X124094285Y-78569819D02*
X124332381Y-77569819D01*
X125141904Y-77903152D02*
X125141904Y-78569819D01*
X124903809Y-77522200D02*
X124665714Y-78236485D01*
X124665714Y-78236485D02*
X125284761Y-78236485D01*
X125618095Y-77665057D02*
X125665714Y-77617438D01*
X125665714Y-77617438D02*
X125760952Y-77569819D01*
X125760952Y-77569819D02*
X125999047Y-77569819D01*
X125999047Y-77569819D02*
X126094285Y-77617438D01*
X126094285Y-77617438D02*
X126141904Y-77665057D01*
X126141904Y-77665057D02*
X126189523Y-77760295D01*
X126189523Y-77760295D02*
X126189523Y-77855533D01*
X126189523Y-77855533D02*
X126141904Y-77998390D01*
X126141904Y-77998390D02*
X125570476Y-78569819D01*
X125570476Y-78569819D02*
X126189523Y-78569819D01*
X84470476Y-40422200D02*
X84613333Y-40469819D01*
X84613333Y-40469819D02*
X84851428Y-40469819D01*
X84851428Y-40469819D02*
X84946666Y-40422200D01*
X84946666Y-40422200D02*
X84994285Y-40374580D01*
X84994285Y-40374580D02*
X85041904Y-40279342D01*
X85041904Y-40279342D02*
X85041904Y-40184104D01*
X85041904Y-40184104D02*
X84994285Y-40088866D01*
X84994285Y-40088866D02*
X84946666Y-40041247D01*
X84946666Y-40041247D02*
X84851428Y-39993628D01*
X84851428Y-39993628D02*
X84660952Y-39946009D01*
X84660952Y-39946009D02*
X84565714Y-39898390D01*
X84565714Y-39898390D02*
X84518095Y-39850771D01*
X84518095Y-39850771D02*
X84470476Y-39755533D01*
X84470476Y-39755533D02*
X84470476Y-39660295D01*
X84470476Y-39660295D02*
X84518095Y-39565057D01*
X84518095Y-39565057D02*
X84565714Y-39517438D01*
X84565714Y-39517438D02*
X84660952Y-39469819D01*
X84660952Y-39469819D02*
X84899047Y-39469819D01*
X84899047Y-39469819D02*
X85041904Y-39517438D01*
X85375238Y-39469819D02*
X85613333Y-40469819D01*
X85613333Y-40469819D02*
X85803809Y-39755533D01*
X85803809Y-39755533D02*
X85994285Y-40469819D01*
X85994285Y-40469819D02*
X86232381Y-39469819D01*
X87137142Y-40469819D02*
X86565714Y-40469819D01*
X86851428Y-40469819D02*
X86851428Y-39469819D01*
X86851428Y-39469819D02*
X86756190Y-39612676D01*
X86756190Y-39612676D02*
X86660952Y-39707914D01*
X86660952Y-39707914D02*
X86565714Y-39755533D01*
X87994285Y-39469819D02*
X87803809Y-39469819D01*
X87803809Y-39469819D02*
X87708571Y-39517438D01*
X87708571Y-39517438D02*
X87660952Y-39565057D01*
X87660952Y-39565057D02*
X87565714Y-39707914D01*
X87565714Y-39707914D02*
X87518095Y-39898390D01*
X87518095Y-39898390D02*
X87518095Y-40279342D01*
X87518095Y-40279342D02*
X87565714Y-40374580D01*
X87565714Y-40374580D02*
X87613333Y-40422200D01*
X87613333Y-40422200D02*
X87708571Y-40469819D01*
X87708571Y-40469819D02*
X87899047Y-40469819D01*
X87899047Y-40469819D02*
X87994285Y-40422200D01*
X87994285Y-40422200D02*
X88041904Y-40374580D01*
X88041904Y-40374580D02*
X88089523Y-40279342D01*
X88089523Y-40279342D02*
X88089523Y-40041247D01*
X88089523Y-40041247D02*
X88041904Y-39946009D01*
X88041904Y-39946009D02*
X87994285Y-39898390D01*
X87994285Y-39898390D02*
X87899047Y-39850771D01*
X87899047Y-39850771D02*
X87708571Y-39850771D01*
X87708571Y-39850771D02*
X87613333Y-39898390D01*
X87613333Y-39898390D02*
X87565714Y-39946009D01*
X87565714Y-39946009D02*
X87518095Y-40041247D01*
X255920476Y-40422200D02*
X256063333Y-40469819D01*
X256063333Y-40469819D02*
X256301428Y-40469819D01*
X256301428Y-40469819D02*
X256396666Y-40422200D01*
X256396666Y-40422200D02*
X256444285Y-40374580D01*
X256444285Y-40374580D02*
X256491904Y-40279342D01*
X256491904Y-40279342D02*
X256491904Y-40184104D01*
X256491904Y-40184104D02*
X256444285Y-40088866D01*
X256444285Y-40088866D02*
X256396666Y-40041247D01*
X256396666Y-40041247D02*
X256301428Y-39993628D01*
X256301428Y-39993628D02*
X256110952Y-39946009D01*
X256110952Y-39946009D02*
X256015714Y-39898390D01*
X256015714Y-39898390D02*
X255968095Y-39850771D01*
X255968095Y-39850771D02*
X255920476Y-39755533D01*
X255920476Y-39755533D02*
X255920476Y-39660295D01*
X255920476Y-39660295D02*
X255968095Y-39565057D01*
X255968095Y-39565057D02*
X256015714Y-39517438D01*
X256015714Y-39517438D02*
X256110952Y-39469819D01*
X256110952Y-39469819D02*
X256349047Y-39469819D01*
X256349047Y-39469819D02*
X256491904Y-39517438D01*
X256825238Y-39469819D02*
X257063333Y-40469819D01*
X257063333Y-40469819D02*
X257253809Y-39755533D01*
X257253809Y-39755533D02*
X257444285Y-40469819D01*
X257444285Y-40469819D02*
X257682381Y-39469819D01*
X258015714Y-39565057D02*
X258063333Y-39517438D01*
X258063333Y-39517438D02*
X258158571Y-39469819D01*
X258158571Y-39469819D02*
X258396666Y-39469819D01*
X258396666Y-39469819D02*
X258491904Y-39517438D01*
X258491904Y-39517438D02*
X258539523Y-39565057D01*
X258539523Y-39565057D02*
X258587142Y-39660295D01*
X258587142Y-39660295D02*
X258587142Y-39755533D01*
X258587142Y-39755533D02*
X258539523Y-39898390D01*
X258539523Y-39898390D02*
X257968095Y-40469819D01*
X257968095Y-40469819D02*
X258587142Y-40469819D01*
X259444285Y-39803152D02*
X259444285Y-40469819D01*
X259206190Y-39422200D02*
X258968095Y-40136485D01*
X258968095Y-40136485D02*
X259587142Y-40136485D01*
X179720476Y-40422200D02*
X179863333Y-40469819D01*
X179863333Y-40469819D02*
X180101428Y-40469819D01*
X180101428Y-40469819D02*
X180196666Y-40422200D01*
X180196666Y-40422200D02*
X180244285Y-40374580D01*
X180244285Y-40374580D02*
X180291904Y-40279342D01*
X180291904Y-40279342D02*
X180291904Y-40184104D01*
X180291904Y-40184104D02*
X180244285Y-40088866D01*
X180244285Y-40088866D02*
X180196666Y-40041247D01*
X180196666Y-40041247D02*
X180101428Y-39993628D01*
X180101428Y-39993628D02*
X179910952Y-39946009D01*
X179910952Y-39946009D02*
X179815714Y-39898390D01*
X179815714Y-39898390D02*
X179768095Y-39850771D01*
X179768095Y-39850771D02*
X179720476Y-39755533D01*
X179720476Y-39755533D02*
X179720476Y-39660295D01*
X179720476Y-39660295D02*
X179768095Y-39565057D01*
X179768095Y-39565057D02*
X179815714Y-39517438D01*
X179815714Y-39517438D02*
X179910952Y-39469819D01*
X179910952Y-39469819D02*
X180149047Y-39469819D01*
X180149047Y-39469819D02*
X180291904Y-39517438D01*
X180625238Y-39469819D02*
X180863333Y-40469819D01*
X180863333Y-40469819D02*
X181053809Y-39755533D01*
X181053809Y-39755533D02*
X181244285Y-40469819D01*
X181244285Y-40469819D02*
X181482381Y-39469819D01*
X181815714Y-39565057D02*
X181863333Y-39517438D01*
X181863333Y-39517438D02*
X181958571Y-39469819D01*
X181958571Y-39469819D02*
X182196666Y-39469819D01*
X182196666Y-39469819D02*
X182291904Y-39517438D01*
X182291904Y-39517438D02*
X182339523Y-39565057D01*
X182339523Y-39565057D02*
X182387142Y-39660295D01*
X182387142Y-39660295D02*
X182387142Y-39755533D01*
X182387142Y-39755533D02*
X182339523Y-39898390D01*
X182339523Y-39898390D02*
X181768095Y-40469819D01*
X181768095Y-40469819D02*
X182387142Y-40469819D01*
X183006190Y-39469819D02*
X183101428Y-39469819D01*
X183101428Y-39469819D02*
X183196666Y-39517438D01*
X183196666Y-39517438D02*
X183244285Y-39565057D01*
X183244285Y-39565057D02*
X183291904Y-39660295D01*
X183291904Y-39660295D02*
X183339523Y-39850771D01*
X183339523Y-39850771D02*
X183339523Y-40088866D01*
X183339523Y-40088866D02*
X183291904Y-40279342D01*
X183291904Y-40279342D02*
X183244285Y-40374580D01*
X183244285Y-40374580D02*
X183196666Y-40422200D01*
X183196666Y-40422200D02*
X183101428Y-40469819D01*
X183101428Y-40469819D02*
X183006190Y-40469819D01*
X183006190Y-40469819D02*
X182910952Y-40422200D01*
X182910952Y-40422200D02*
X182863333Y-40374580D01*
X182863333Y-40374580D02*
X182815714Y-40279342D01*
X182815714Y-40279342D02*
X182768095Y-40088866D01*
X182768095Y-40088866D02*
X182768095Y-39850771D01*
X182768095Y-39850771D02*
X182815714Y-39660295D01*
X182815714Y-39660295D02*
X182863333Y-39565057D01*
X182863333Y-39565057D02*
X182910952Y-39517438D01*
X182910952Y-39517438D02*
X183006190Y-39469819D01*
X236870476Y-59472200D02*
X237013333Y-59519819D01*
X237013333Y-59519819D02*
X237251428Y-59519819D01*
X237251428Y-59519819D02*
X237346666Y-59472200D01*
X237346666Y-59472200D02*
X237394285Y-59424580D01*
X237394285Y-59424580D02*
X237441904Y-59329342D01*
X237441904Y-59329342D02*
X237441904Y-59234104D01*
X237441904Y-59234104D02*
X237394285Y-59138866D01*
X237394285Y-59138866D02*
X237346666Y-59091247D01*
X237346666Y-59091247D02*
X237251428Y-59043628D01*
X237251428Y-59043628D02*
X237060952Y-58996009D01*
X237060952Y-58996009D02*
X236965714Y-58948390D01*
X236965714Y-58948390D02*
X236918095Y-58900771D01*
X236918095Y-58900771D02*
X236870476Y-58805533D01*
X236870476Y-58805533D02*
X236870476Y-58710295D01*
X236870476Y-58710295D02*
X236918095Y-58615057D01*
X236918095Y-58615057D02*
X236965714Y-58567438D01*
X236965714Y-58567438D02*
X237060952Y-58519819D01*
X237060952Y-58519819D02*
X237299047Y-58519819D01*
X237299047Y-58519819D02*
X237441904Y-58567438D01*
X237775238Y-58519819D02*
X238013333Y-59519819D01*
X238013333Y-59519819D02*
X238203809Y-58805533D01*
X238203809Y-58805533D02*
X238394285Y-59519819D01*
X238394285Y-59519819D02*
X238632381Y-58519819D01*
X238918095Y-58519819D02*
X239537142Y-58519819D01*
X239537142Y-58519819D02*
X239203809Y-58900771D01*
X239203809Y-58900771D02*
X239346666Y-58900771D01*
X239346666Y-58900771D02*
X239441904Y-58948390D01*
X239441904Y-58948390D02*
X239489523Y-58996009D01*
X239489523Y-58996009D02*
X239537142Y-59091247D01*
X239537142Y-59091247D02*
X239537142Y-59329342D01*
X239537142Y-59329342D02*
X239489523Y-59424580D01*
X239489523Y-59424580D02*
X239441904Y-59472200D01*
X239441904Y-59472200D02*
X239346666Y-59519819D01*
X239346666Y-59519819D02*
X239060952Y-59519819D01*
X239060952Y-59519819D02*
X238965714Y-59472200D01*
X238965714Y-59472200D02*
X238918095Y-59424580D01*
X240441904Y-58519819D02*
X239965714Y-58519819D01*
X239965714Y-58519819D02*
X239918095Y-58996009D01*
X239918095Y-58996009D02*
X239965714Y-58948390D01*
X239965714Y-58948390D02*
X240060952Y-58900771D01*
X240060952Y-58900771D02*
X240299047Y-58900771D01*
X240299047Y-58900771D02*
X240394285Y-58948390D01*
X240394285Y-58948390D02*
X240441904Y-58996009D01*
X240441904Y-58996009D02*
X240489523Y-59091247D01*
X240489523Y-59091247D02*
X240489523Y-59329342D01*
X240489523Y-59329342D02*
X240441904Y-59424580D01*
X240441904Y-59424580D02*
X240394285Y-59472200D01*
X240394285Y-59472200D02*
X240299047Y-59519819D01*
X240299047Y-59519819D02*
X240060952Y-59519819D01*
X240060952Y-59519819D02*
X239965714Y-59472200D01*
X239965714Y-59472200D02*
X239918095Y-59424580D01*
X161146667Y-21372200D02*
X161289524Y-21419819D01*
X161289524Y-21419819D02*
X161527619Y-21419819D01*
X161527619Y-21419819D02*
X161622857Y-21372200D01*
X161622857Y-21372200D02*
X161670476Y-21324580D01*
X161670476Y-21324580D02*
X161718095Y-21229342D01*
X161718095Y-21229342D02*
X161718095Y-21134104D01*
X161718095Y-21134104D02*
X161670476Y-21038866D01*
X161670476Y-21038866D02*
X161622857Y-20991247D01*
X161622857Y-20991247D02*
X161527619Y-20943628D01*
X161527619Y-20943628D02*
X161337143Y-20896009D01*
X161337143Y-20896009D02*
X161241905Y-20848390D01*
X161241905Y-20848390D02*
X161194286Y-20800771D01*
X161194286Y-20800771D02*
X161146667Y-20705533D01*
X161146667Y-20705533D02*
X161146667Y-20610295D01*
X161146667Y-20610295D02*
X161194286Y-20515057D01*
X161194286Y-20515057D02*
X161241905Y-20467438D01*
X161241905Y-20467438D02*
X161337143Y-20419819D01*
X161337143Y-20419819D02*
X161575238Y-20419819D01*
X161575238Y-20419819D02*
X161718095Y-20467438D01*
X162051429Y-20419819D02*
X162289524Y-21419819D01*
X162289524Y-21419819D02*
X162480000Y-20705533D01*
X162480000Y-20705533D02*
X162670476Y-21419819D01*
X162670476Y-21419819D02*
X162908572Y-20419819D01*
X163194286Y-20419819D02*
X163860952Y-20419819D01*
X163860952Y-20419819D02*
X163432381Y-21419819D01*
X46370476Y-40422200D02*
X46513333Y-40469819D01*
X46513333Y-40469819D02*
X46751428Y-40469819D01*
X46751428Y-40469819D02*
X46846666Y-40422200D01*
X46846666Y-40422200D02*
X46894285Y-40374580D01*
X46894285Y-40374580D02*
X46941904Y-40279342D01*
X46941904Y-40279342D02*
X46941904Y-40184104D01*
X46941904Y-40184104D02*
X46894285Y-40088866D01*
X46894285Y-40088866D02*
X46846666Y-40041247D01*
X46846666Y-40041247D02*
X46751428Y-39993628D01*
X46751428Y-39993628D02*
X46560952Y-39946009D01*
X46560952Y-39946009D02*
X46465714Y-39898390D01*
X46465714Y-39898390D02*
X46418095Y-39850771D01*
X46418095Y-39850771D02*
X46370476Y-39755533D01*
X46370476Y-39755533D02*
X46370476Y-39660295D01*
X46370476Y-39660295D02*
X46418095Y-39565057D01*
X46418095Y-39565057D02*
X46465714Y-39517438D01*
X46465714Y-39517438D02*
X46560952Y-39469819D01*
X46560952Y-39469819D02*
X46799047Y-39469819D01*
X46799047Y-39469819D02*
X46941904Y-39517438D01*
X47275238Y-39469819D02*
X47513333Y-40469819D01*
X47513333Y-40469819D02*
X47703809Y-39755533D01*
X47703809Y-39755533D02*
X47894285Y-40469819D01*
X47894285Y-40469819D02*
X48132381Y-39469819D01*
X49037142Y-40469819D02*
X48465714Y-40469819D01*
X48751428Y-40469819D02*
X48751428Y-39469819D01*
X48751428Y-39469819D02*
X48656190Y-39612676D01*
X48656190Y-39612676D02*
X48560952Y-39707914D01*
X48560952Y-39707914D02*
X48465714Y-39755533D01*
X49894285Y-39803152D02*
X49894285Y-40469819D01*
X49656190Y-39422200D02*
X49418095Y-40136485D01*
X49418095Y-40136485D02*
X50037142Y-40136485D01*
X65896667Y-21372200D02*
X66039524Y-21419819D01*
X66039524Y-21419819D02*
X66277619Y-21419819D01*
X66277619Y-21419819D02*
X66372857Y-21372200D01*
X66372857Y-21372200D02*
X66420476Y-21324580D01*
X66420476Y-21324580D02*
X66468095Y-21229342D01*
X66468095Y-21229342D02*
X66468095Y-21134104D01*
X66468095Y-21134104D02*
X66420476Y-21038866D01*
X66420476Y-21038866D02*
X66372857Y-20991247D01*
X66372857Y-20991247D02*
X66277619Y-20943628D01*
X66277619Y-20943628D02*
X66087143Y-20896009D01*
X66087143Y-20896009D02*
X65991905Y-20848390D01*
X65991905Y-20848390D02*
X65944286Y-20800771D01*
X65944286Y-20800771D02*
X65896667Y-20705533D01*
X65896667Y-20705533D02*
X65896667Y-20610295D01*
X65896667Y-20610295D02*
X65944286Y-20515057D01*
X65944286Y-20515057D02*
X65991905Y-20467438D01*
X65991905Y-20467438D02*
X66087143Y-20419819D01*
X66087143Y-20419819D02*
X66325238Y-20419819D01*
X66325238Y-20419819D02*
X66468095Y-20467438D01*
X66801429Y-20419819D02*
X67039524Y-21419819D01*
X67039524Y-21419819D02*
X67230000Y-20705533D01*
X67230000Y-20705533D02*
X67420476Y-21419819D01*
X67420476Y-21419819D02*
X67658572Y-20419819D01*
X67944286Y-20419819D02*
X68563333Y-20419819D01*
X68563333Y-20419819D02*
X68230000Y-20800771D01*
X68230000Y-20800771D02*
X68372857Y-20800771D01*
X68372857Y-20800771D02*
X68468095Y-20848390D01*
X68468095Y-20848390D02*
X68515714Y-20896009D01*
X68515714Y-20896009D02*
X68563333Y-20991247D01*
X68563333Y-20991247D02*
X68563333Y-21229342D01*
X68563333Y-21229342D02*
X68515714Y-21324580D01*
X68515714Y-21324580D02*
X68468095Y-21372200D01*
X68468095Y-21372200D02*
X68372857Y-21419819D01*
X68372857Y-21419819D02*
X68087143Y-21419819D01*
X68087143Y-21419819D02*
X67991905Y-21372200D01*
X67991905Y-21372200D02*
X67944286Y-21324580D01*
X179720476Y-78522200D02*
X179863333Y-78569819D01*
X179863333Y-78569819D02*
X180101428Y-78569819D01*
X180101428Y-78569819D02*
X180196666Y-78522200D01*
X180196666Y-78522200D02*
X180244285Y-78474580D01*
X180244285Y-78474580D02*
X180291904Y-78379342D01*
X180291904Y-78379342D02*
X180291904Y-78284104D01*
X180291904Y-78284104D02*
X180244285Y-78188866D01*
X180244285Y-78188866D02*
X180196666Y-78141247D01*
X180196666Y-78141247D02*
X180101428Y-78093628D01*
X180101428Y-78093628D02*
X179910952Y-78046009D01*
X179910952Y-78046009D02*
X179815714Y-77998390D01*
X179815714Y-77998390D02*
X179768095Y-77950771D01*
X179768095Y-77950771D02*
X179720476Y-77855533D01*
X179720476Y-77855533D02*
X179720476Y-77760295D01*
X179720476Y-77760295D02*
X179768095Y-77665057D01*
X179768095Y-77665057D02*
X179815714Y-77617438D01*
X179815714Y-77617438D02*
X179910952Y-77569819D01*
X179910952Y-77569819D02*
X180149047Y-77569819D01*
X180149047Y-77569819D02*
X180291904Y-77617438D01*
X180625238Y-77569819D02*
X180863333Y-78569819D01*
X180863333Y-78569819D02*
X181053809Y-77855533D01*
X181053809Y-77855533D02*
X181244285Y-78569819D01*
X181244285Y-78569819D02*
X181482381Y-77569819D01*
X182291904Y-77903152D02*
X182291904Y-78569819D01*
X182053809Y-77522200D02*
X181815714Y-78236485D01*
X181815714Y-78236485D02*
X182434761Y-78236485D01*
X183244285Y-77903152D02*
X183244285Y-78569819D01*
X183006190Y-77522200D02*
X182768095Y-78236485D01*
X182768095Y-78236485D02*
X183387142Y-78236485D01*
X84946667Y-21372200D02*
X85089524Y-21419819D01*
X85089524Y-21419819D02*
X85327619Y-21419819D01*
X85327619Y-21419819D02*
X85422857Y-21372200D01*
X85422857Y-21372200D02*
X85470476Y-21324580D01*
X85470476Y-21324580D02*
X85518095Y-21229342D01*
X85518095Y-21229342D02*
X85518095Y-21134104D01*
X85518095Y-21134104D02*
X85470476Y-21038866D01*
X85470476Y-21038866D02*
X85422857Y-20991247D01*
X85422857Y-20991247D02*
X85327619Y-20943628D01*
X85327619Y-20943628D02*
X85137143Y-20896009D01*
X85137143Y-20896009D02*
X85041905Y-20848390D01*
X85041905Y-20848390D02*
X84994286Y-20800771D01*
X84994286Y-20800771D02*
X84946667Y-20705533D01*
X84946667Y-20705533D02*
X84946667Y-20610295D01*
X84946667Y-20610295D02*
X84994286Y-20515057D01*
X84994286Y-20515057D02*
X85041905Y-20467438D01*
X85041905Y-20467438D02*
X85137143Y-20419819D01*
X85137143Y-20419819D02*
X85375238Y-20419819D01*
X85375238Y-20419819D02*
X85518095Y-20467438D01*
X85851429Y-20419819D02*
X86089524Y-21419819D01*
X86089524Y-21419819D02*
X86280000Y-20705533D01*
X86280000Y-20705533D02*
X86470476Y-21419819D01*
X86470476Y-21419819D02*
X86708572Y-20419819D01*
X87518095Y-20753152D02*
X87518095Y-21419819D01*
X87280000Y-20372200D02*
X87041905Y-21086485D01*
X87041905Y-21086485D02*
X87660952Y-21086485D01*
X199246667Y-21372200D02*
X199389524Y-21419819D01*
X199389524Y-21419819D02*
X199627619Y-21419819D01*
X199627619Y-21419819D02*
X199722857Y-21372200D01*
X199722857Y-21372200D02*
X199770476Y-21324580D01*
X199770476Y-21324580D02*
X199818095Y-21229342D01*
X199818095Y-21229342D02*
X199818095Y-21134104D01*
X199818095Y-21134104D02*
X199770476Y-21038866D01*
X199770476Y-21038866D02*
X199722857Y-20991247D01*
X199722857Y-20991247D02*
X199627619Y-20943628D01*
X199627619Y-20943628D02*
X199437143Y-20896009D01*
X199437143Y-20896009D02*
X199341905Y-20848390D01*
X199341905Y-20848390D02*
X199294286Y-20800771D01*
X199294286Y-20800771D02*
X199246667Y-20705533D01*
X199246667Y-20705533D02*
X199246667Y-20610295D01*
X199246667Y-20610295D02*
X199294286Y-20515057D01*
X199294286Y-20515057D02*
X199341905Y-20467438D01*
X199341905Y-20467438D02*
X199437143Y-20419819D01*
X199437143Y-20419819D02*
X199675238Y-20419819D01*
X199675238Y-20419819D02*
X199818095Y-20467438D01*
X200151429Y-20419819D02*
X200389524Y-21419819D01*
X200389524Y-21419819D02*
X200580000Y-20705533D01*
X200580000Y-20705533D02*
X200770476Y-21419819D01*
X200770476Y-21419819D02*
X201008572Y-20419819D01*
X201437143Y-21419819D02*
X201627619Y-21419819D01*
X201627619Y-21419819D02*
X201722857Y-21372200D01*
X201722857Y-21372200D02*
X201770476Y-21324580D01*
X201770476Y-21324580D02*
X201865714Y-21181723D01*
X201865714Y-21181723D02*
X201913333Y-20991247D01*
X201913333Y-20991247D02*
X201913333Y-20610295D01*
X201913333Y-20610295D02*
X201865714Y-20515057D01*
X201865714Y-20515057D02*
X201818095Y-20467438D01*
X201818095Y-20467438D02*
X201722857Y-20419819D01*
X201722857Y-20419819D02*
X201532381Y-20419819D01*
X201532381Y-20419819D02*
X201437143Y-20467438D01*
X201437143Y-20467438D02*
X201389524Y-20515057D01*
X201389524Y-20515057D02*
X201341905Y-20610295D01*
X201341905Y-20610295D02*
X201341905Y-20848390D01*
X201341905Y-20848390D02*
X201389524Y-20943628D01*
X201389524Y-20943628D02*
X201437143Y-20991247D01*
X201437143Y-20991247D02*
X201532381Y-21038866D01*
X201532381Y-21038866D02*
X201722857Y-21038866D01*
X201722857Y-21038866D02*
X201818095Y-20991247D01*
X201818095Y-20991247D02*
X201865714Y-20943628D01*
X201865714Y-20943628D02*
X201913333Y-20848390D01*
X217820476Y-21372200D02*
X217963333Y-21419819D01*
X217963333Y-21419819D02*
X218201428Y-21419819D01*
X218201428Y-21419819D02*
X218296666Y-21372200D01*
X218296666Y-21372200D02*
X218344285Y-21324580D01*
X218344285Y-21324580D02*
X218391904Y-21229342D01*
X218391904Y-21229342D02*
X218391904Y-21134104D01*
X218391904Y-21134104D02*
X218344285Y-21038866D01*
X218344285Y-21038866D02*
X218296666Y-20991247D01*
X218296666Y-20991247D02*
X218201428Y-20943628D01*
X218201428Y-20943628D02*
X218010952Y-20896009D01*
X218010952Y-20896009D02*
X217915714Y-20848390D01*
X217915714Y-20848390D02*
X217868095Y-20800771D01*
X217868095Y-20800771D02*
X217820476Y-20705533D01*
X217820476Y-20705533D02*
X217820476Y-20610295D01*
X217820476Y-20610295D02*
X217868095Y-20515057D01*
X217868095Y-20515057D02*
X217915714Y-20467438D01*
X217915714Y-20467438D02*
X218010952Y-20419819D01*
X218010952Y-20419819D02*
X218249047Y-20419819D01*
X218249047Y-20419819D02*
X218391904Y-20467438D01*
X218725238Y-20419819D02*
X218963333Y-21419819D01*
X218963333Y-21419819D02*
X219153809Y-20705533D01*
X219153809Y-20705533D02*
X219344285Y-21419819D01*
X219344285Y-21419819D02*
X219582381Y-20419819D01*
X220487142Y-21419819D02*
X219915714Y-21419819D01*
X220201428Y-21419819D02*
X220201428Y-20419819D01*
X220201428Y-20419819D02*
X220106190Y-20562676D01*
X220106190Y-20562676D02*
X220010952Y-20657914D01*
X220010952Y-20657914D02*
X219915714Y-20705533D01*
X221106190Y-20419819D02*
X221201428Y-20419819D01*
X221201428Y-20419819D02*
X221296666Y-20467438D01*
X221296666Y-20467438D02*
X221344285Y-20515057D01*
X221344285Y-20515057D02*
X221391904Y-20610295D01*
X221391904Y-20610295D02*
X221439523Y-20800771D01*
X221439523Y-20800771D02*
X221439523Y-21038866D01*
X221439523Y-21038866D02*
X221391904Y-21229342D01*
X221391904Y-21229342D02*
X221344285Y-21324580D01*
X221344285Y-21324580D02*
X221296666Y-21372200D01*
X221296666Y-21372200D02*
X221201428Y-21419819D01*
X221201428Y-21419819D02*
X221106190Y-21419819D01*
X221106190Y-21419819D02*
X221010952Y-21372200D01*
X221010952Y-21372200D02*
X220963333Y-21324580D01*
X220963333Y-21324580D02*
X220915714Y-21229342D01*
X220915714Y-21229342D02*
X220868095Y-21038866D01*
X220868095Y-21038866D02*
X220868095Y-20800771D01*
X220868095Y-20800771D02*
X220915714Y-20610295D01*
X220915714Y-20610295D02*
X220963333Y-20515057D01*
X220963333Y-20515057D02*
X221010952Y-20467438D01*
X221010952Y-20467438D02*
X221106190Y-20419819D01*
X160670476Y-59472200D02*
X160813333Y-59519819D01*
X160813333Y-59519819D02*
X161051428Y-59519819D01*
X161051428Y-59519819D02*
X161146666Y-59472200D01*
X161146666Y-59472200D02*
X161194285Y-59424580D01*
X161194285Y-59424580D02*
X161241904Y-59329342D01*
X161241904Y-59329342D02*
X161241904Y-59234104D01*
X161241904Y-59234104D02*
X161194285Y-59138866D01*
X161194285Y-59138866D02*
X161146666Y-59091247D01*
X161146666Y-59091247D02*
X161051428Y-59043628D01*
X161051428Y-59043628D02*
X160860952Y-58996009D01*
X160860952Y-58996009D02*
X160765714Y-58948390D01*
X160765714Y-58948390D02*
X160718095Y-58900771D01*
X160718095Y-58900771D02*
X160670476Y-58805533D01*
X160670476Y-58805533D02*
X160670476Y-58710295D01*
X160670476Y-58710295D02*
X160718095Y-58615057D01*
X160718095Y-58615057D02*
X160765714Y-58567438D01*
X160765714Y-58567438D02*
X160860952Y-58519819D01*
X160860952Y-58519819D02*
X161099047Y-58519819D01*
X161099047Y-58519819D02*
X161241904Y-58567438D01*
X161575238Y-58519819D02*
X161813333Y-59519819D01*
X161813333Y-59519819D02*
X162003809Y-58805533D01*
X162003809Y-58805533D02*
X162194285Y-59519819D01*
X162194285Y-59519819D02*
X162432381Y-58519819D01*
X162718095Y-58519819D02*
X163337142Y-58519819D01*
X163337142Y-58519819D02*
X163003809Y-58900771D01*
X163003809Y-58900771D02*
X163146666Y-58900771D01*
X163146666Y-58900771D02*
X163241904Y-58948390D01*
X163241904Y-58948390D02*
X163289523Y-58996009D01*
X163289523Y-58996009D02*
X163337142Y-59091247D01*
X163337142Y-59091247D02*
X163337142Y-59329342D01*
X163337142Y-59329342D02*
X163289523Y-59424580D01*
X163289523Y-59424580D02*
X163241904Y-59472200D01*
X163241904Y-59472200D02*
X163146666Y-59519819D01*
X163146666Y-59519819D02*
X162860952Y-59519819D01*
X162860952Y-59519819D02*
X162765714Y-59472200D01*
X162765714Y-59472200D02*
X162718095Y-59424580D01*
X164289523Y-59519819D02*
X163718095Y-59519819D01*
X164003809Y-59519819D02*
X164003809Y-58519819D01*
X164003809Y-58519819D02*
X163908571Y-58662676D01*
X163908571Y-58662676D02*
X163813333Y-58757914D01*
X163813333Y-58757914D02*
X163718095Y-58805533D01*
X255920476Y-21372200D02*
X256063333Y-21419819D01*
X256063333Y-21419819D02*
X256301428Y-21419819D01*
X256301428Y-21419819D02*
X256396666Y-21372200D01*
X256396666Y-21372200D02*
X256444285Y-21324580D01*
X256444285Y-21324580D02*
X256491904Y-21229342D01*
X256491904Y-21229342D02*
X256491904Y-21134104D01*
X256491904Y-21134104D02*
X256444285Y-21038866D01*
X256444285Y-21038866D02*
X256396666Y-20991247D01*
X256396666Y-20991247D02*
X256301428Y-20943628D01*
X256301428Y-20943628D02*
X256110952Y-20896009D01*
X256110952Y-20896009D02*
X256015714Y-20848390D01*
X256015714Y-20848390D02*
X255968095Y-20800771D01*
X255968095Y-20800771D02*
X255920476Y-20705533D01*
X255920476Y-20705533D02*
X255920476Y-20610295D01*
X255920476Y-20610295D02*
X255968095Y-20515057D01*
X255968095Y-20515057D02*
X256015714Y-20467438D01*
X256015714Y-20467438D02*
X256110952Y-20419819D01*
X256110952Y-20419819D02*
X256349047Y-20419819D01*
X256349047Y-20419819D02*
X256491904Y-20467438D01*
X256825238Y-20419819D02*
X257063333Y-21419819D01*
X257063333Y-21419819D02*
X257253809Y-20705533D01*
X257253809Y-20705533D02*
X257444285Y-21419819D01*
X257444285Y-21419819D02*
X257682381Y-20419819D01*
X258587142Y-21419819D02*
X258015714Y-21419819D01*
X258301428Y-21419819D02*
X258301428Y-20419819D01*
X258301428Y-20419819D02*
X258206190Y-20562676D01*
X258206190Y-20562676D02*
X258110952Y-20657914D01*
X258110952Y-20657914D02*
X258015714Y-20705533D01*
X258968095Y-20515057D02*
X259015714Y-20467438D01*
X259015714Y-20467438D02*
X259110952Y-20419819D01*
X259110952Y-20419819D02*
X259349047Y-20419819D01*
X259349047Y-20419819D02*
X259444285Y-20467438D01*
X259444285Y-20467438D02*
X259491904Y-20515057D01*
X259491904Y-20515057D02*
X259539523Y-20610295D01*
X259539523Y-20610295D02*
X259539523Y-20705533D01*
X259539523Y-20705533D02*
X259491904Y-20848390D01*
X259491904Y-20848390D02*
X258920476Y-21419819D01*
X258920476Y-21419819D02*
X259539523Y-21419819D01*
X198770476Y-40422200D02*
X198913333Y-40469819D01*
X198913333Y-40469819D02*
X199151428Y-40469819D01*
X199151428Y-40469819D02*
X199246666Y-40422200D01*
X199246666Y-40422200D02*
X199294285Y-40374580D01*
X199294285Y-40374580D02*
X199341904Y-40279342D01*
X199341904Y-40279342D02*
X199341904Y-40184104D01*
X199341904Y-40184104D02*
X199294285Y-40088866D01*
X199294285Y-40088866D02*
X199246666Y-40041247D01*
X199246666Y-40041247D02*
X199151428Y-39993628D01*
X199151428Y-39993628D02*
X198960952Y-39946009D01*
X198960952Y-39946009D02*
X198865714Y-39898390D01*
X198865714Y-39898390D02*
X198818095Y-39850771D01*
X198818095Y-39850771D02*
X198770476Y-39755533D01*
X198770476Y-39755533D02*
X198770476Y-39660295D01*
X198770476Y-39660295D02*
X198818095Y-39565057D01*
X198818095Y-39565057D02*
X198865714Y-39517438D01*
X198865714Y-39517438D02*
X198960952Y-39469819D01*
X198960952Y-39469819D02*
X199199047Y-39469819D01*
X199199047Y-39469819D02*
X199341904Y-39517438D01*
X199675238Y-39469819D02*
X199913333Y-40469819D01*
X199913333Y-40469819D02*
X200103809Y-39755533D01*
X200103809Y-39755533D02*
X200294285Y-40469819D01*
X200294285Y-40469819D02*
X200532381Y-39469819D01*
X200865714Y-39565057D02*
X200913333Y-39517438D01*
X200913333Y-39517438D02*
X201008571Y-39469819D01*
X201008571Y-39469819D02*
X201246666Y-39469819D01*
X201246666Y-39469819D02*
X201341904Y-39517438D01*
X201341904Y-39517438D02*
X201389523Y-39565057D01*
X201389523Y-39565057D02*
X201437142Y-39660295D01*
X201437142Y-39660295D02*
X201437142Y-39755533D01*
X201437142Y-39755533D02*
X201389523Y-39898390D01*
X201389523Y-39898390D02*
X200818095Y-40469819D01*
X200818095Y-40469819D02*
X201437142Y-40469819D01*
X202389523Y-40469819D02*
X201818095Y-40469819D01*
X202103809Y-40469819D02*
X202103809Y-39469819D01*
X202103809Y-39469819D02*
X202008571Y-39612676D01*
X202008571Y-39612676D02*
X201913333Y-39707914D01*
X201913333Y-39707914D02*
X201818095Y-39755533D01*
X27320476Y-59472200D02*
X27463333Y-59519819D01*
X27463333Y-59519819D02*
X27701428Y-59519819D01*
X27701428Y-59519819D02*
X27796666Y-59472200D01*
X27796666Y-59472200D02*
X27844285Y-59424580D01*
X27844285Y-59424580D02*
X27891904Y-59329342D01*
X27891904Y-59329342D02*
X27891904Y-59234104D01*
X27891904Y-59234104D02*
X27844285Y-59138866D01*
X27844285Y-59138866D02*
X27796666Y-59091247D01*
X27796666Y-59091247D02*
X27701428Y-59043628D01*
X27701428Y-59043628D02*
X27510952Y-58996009D01*
X27510952Y-58996009D02*
X27415714Y-58948390D01*
X27415714Y-58948390D02*
X27368095Y-58900771D01*
X27368095Y-58900771D02*
X27320476Y-58805533D01*
X27320476Y-58805533D02*
X27320476Y-58710295D01*
X27320476Y-58710295D02*
X27368095Y-58615057D01*
X27368095Y-58615057D02*
X27415714Y-58567438D01*
X27415714Y-58567438D02*
X27510952Y-58519819D01*
X27510952Y-58519819D02*
X27749047Y-58519819D01*
X27749047Y-58519819D02*
X27891904Y-58567438D01*
X28225238Y-58519819D02*
X28463333Y-59519819D01*
X28463333Y-59519819D02*
X28653809Y-58805533D01*
X28653809Y-58805533D02*
X28844285Y-59519819D01*
X28844285Y-59519819D02*
X29082381Y-58519819D01*
X29415714Y-58615057D02*
X29463333Y-58567438D01*
X29463333Y-58567438D02*
X29558571Y-58519819D01*
X29558571Y-58519819D02*
X29796666Y-58519819D01*
X29796666Y-58519819D02*
X29891904Y-58567438D01*
X29891904Y-58567438D02*
X29939523Y-58615057D01*
X29939523Y-58615057D02*
X29987142Y-58710295D01*
X29987142Y-58710295D02*
X29987142Y-58805533D01*
X29987142Y-58805533D02*
X29939523Y-58948390D01*
X29939523Y-58948390D02*
X29368095Y-59519819D01*
X29368095Y-59519819D02*
X29987142Y-59519819D01*
X30891904Y-58519819D02*
X30415714Y-58519819D01*
X30415714Y-58519819D02*
X30368095Y-58996009D01*
X30368095Y-58996009D02*
X30415714Y-58948390D01*
X30415714Y-58948390D02*
X30510952Y-58900771D01*
X30510952Y-58900771D02*
X30749047Y-58900771D01*
X30749047Y-58900771D02*
X30844285Y-58948390D01*
X30844285Y-58948390D02*
X30891904Y-58996009D01*
X30891904Y-58996009D02*
X30939523Y-59091247D01*
X30939523Y-59091247D02*
X30939523Y-59329342D01*
X30939523Y-59329342D02*
X30891904Y-59424580D01*
X30891904Y-59424580D02*
X30844285Y-59472200D01*
X30844285Y-59472200D02*
X30749047Y-59519819D01*
X30749047Y-59519819D02*
X30510952Y-59519819D01*
X30510952Y-59519819D02*
X30415714Y-59472200D01*
X30415714Y-59472200D02*
X30368095Y-59424580D01*
X255920476Y-78522200D02*
X256063333Y-78569819D01*
X256063333Y-78569819D02*
X256301428Y-78569819D01*
X256301428Y-78569819D02*
X256396666Y-78522200D01*
X256396666Y-78522200D02*
X256444285Y-78474580D01*
X256444285Y-78474580D02*
X256491904Y-78379342D01*
X256491904Y-78379342D02*
X256491904Y-78284104D01*
X256491904Y-78284104D02*
X256444285Y-78188866D01*
X256444285Y-78188866D02*
X256396666Y-78141247D01*
X256396666Y-78141247D02*
X256301428Y-78093628D01*
X256301428Y-78093628D02*
X256110952Y-78046009D01*
X256110952Y-78046009D02*
X256015714Y-77998390D01*
X256015714Y-77998390D02*
X255968095Y-77950771D01*
X255968095Y-77950771D02*
X255920476Y-77855533D01*
X255920476Y-77855533D02*
X255920476Y-77760295D01*
X255920476Y-77760295D02*
X255968095Y-77665057D01*
X255968095Y-77665057D02*
X256015714Y-77617438D01*
X256015714Y-77617438D02*
X256110952Y-77569819D01*
X256110952Y-77569819D02*
X256349047Y-77569819D01*
X256349047Y-77569819D02*
X256491904Y-77617438D01*
X256825238Y-77569819D02*
X257063333Y-78569819D01*
X257063333Y-78569819D02*
X257253809Y-77855533D01*
X257253809Y-77855533D02*
X257444285Y-78569819D01*
X257444285Y-78569819D02*
X257682381Y-77569819D01*
X258491904Y-77903152D02*
X258491904Y-78569819D01*
X258253809Y-77522200D02*
X258015714Y-78236485D01*
X258015714Y-78236485D02*
X258634761Y-78236485D01*
X259158571Y-77998390D02*
X259063333Y-77950771D01*
X259063333Y-77950771D02*
X259015714Y-77903152D01*
X259015714Y-77903152D02*
X258968095Y-77807914D01*
X258968095Y-77807914D02*
X258968095Y-77760295D01*
X258968095Y-77760295D02*
X259015714Y-77665057D01*
X259015714Y-77665057D02*
X259063333Y-77617438D01*
X259063333Y-77617438D02*
X259158571Y-77569819D01*
X259158571Y-77569819D02*
X259349047Y-77569819D01*
X259349047Y-77569819D02*
X259444285Y-77617438D01*
X259444285Y-77617438D02*
X259491904Y-77665057D01*
X259491904Y-77665057D02*
X259539523Y-77760295D01*
X259539523Y-77760295D02*
X259539523Y-77807914D01*
X259539523Y-77807914D02*
X259491904Y-77903152D01*
X259491904Y-77903152D02*
X259444285Y-77950771D01*
X259444285Y-77950771D02*
X259349047Y-77998390D01*
X259349047Y-77998390D02*
X259158571Y-77998390D01*
X259158571Y-77998390D02*
X259063333Y-78046009D01*
X259063333Y-78046009D02*
X259015714Y-78093628D01*
X259015714Y-78093628D02*
X258968095Y-78188866D01*
X258968095Y-78188866D02*
X258968095Y-78379342D01*
X258968095Y-78379342D02*
X259015714Y-78474580D01*
X259015714Y-78474580D02*
X259063333Y-78522200D01*
X259063333Y-78522200D02*
X259158571Y-78569819D01*
X259158571Y-78569819D02*
X259349047Y-78569819D01*
X259349047Y-78569819D02*
X259444285Y-78522200D01*
X259444285Y-78522200D02*
X259491904Y-78474580D01*
X259491904Y-78474580D02*
X259539523Y-78379342D01*
X259539523Y-78379342D02*
X259539523Y-78188866D01*
X259539523Y-78188866D02*
X259491904Y-78093628D01*
X259491904Y-78093628D02*
X259444285Y-78046009D01*
X259444285Y-78046009D02*
X259349047Y-77998390D01*
X160670476Y-78522200D02*
X160813333Y-78569819D01*
X160813333Y-78569819D02*
X161051428Y-78569819D01*
X161051428Y-78569819D02*
X161146666Y-78522200D01*
X161146666Y-78522200D02*
X161194285Y-78474580D01*
X161194285Y-78474580D02*
X161241904Y-78379342D01*
X161241904Y-78379342D02*
X161241904Y-78284104D01*
X161241904Y-78284104D02*
X161194285Y-78188866D01*
X161194285Y-78188866D02*
X161146666Y-78141247D01*
X161146666Y-78141247D02*
X161051428Y-78093628D01*
X161051428Y-78093628D02*
X160860952Y-78046009D01*
X160860952Y-78046009D02*
X160765714Y-77998390D01*
X160765714Y-77998390D02*
X160718095Y-77950771D01*
X160718095Y-77950771D02*
X160670476Y-77855533D01*
X160670476Y-77855533D02*
X160670476Y-77760295D01*
X160670476Y-77760295D02*
X160718095Y-77665057D01*
X160718095Y-77665057D02*
X160765714Y-77617438D01*
X160765714Y-77617438D02*
X160860952Y-77569819D01*
X160860952Y-77569819D02*
X161099047Y-77569819D01*
X161099047Y-77569819D02*
X161241904Y-77617438D01*
X161575238Y-77569819D02*
X161813333Y-78569819D01*
X161813333Y-78569819D02*
X162003809Y-77855533D01*
X162003809Y-77855533D02*
X162194285Y-78569819D01*
X162194285Y-78569819D02*
X162432381Y-77569819D01*
X163241904Y-77903152D02*
X163241904Y-78569819D01*
X163003809Y-77522200D02*
X162765714Y-78236485D01*
X162765714Y-78236485D02*
X163384761Y-78236485D01*
X163670476Y-77569819D02*
X164289523Y-77569819D01*
X164289523Y-77569819D02*
X163956190Y-77950771D01*
X163956190Y-77950771D02*
X164099047Y-77950771D01*
X164099047Y-77950771D02*
X164194285Y-77998390D01*
X164194285Y-77998390D02*
X164241904Y-78046009D01*
X164241904Y-78046009D02*
X164289523Y-78141247D01*
X164289523Y-78141247D02*
X164289523Y-78379342D01*
X164289523Y-78379342D02*
X164241904Y-78474580D01*
X164241904Y-78474580D02*
X164194285Y-78522200D01*
X164194285Y-78522200D02*
X164099047Y-78569819D01*
X164099047Y-78569819D02*
X163813333Y-78569819D01*
X163813333Y-78569819D02*
X163718095Y-78522200D01*
X163718095Y-78522200D02*
X163670476Y-78474580D01*
X123046667Y-21372200D02*
X123189524Y-21419819D01*
X123189524Y-21419819D02*
X123427619Y-21419819D01*
X123427619Y-21419819D02*
X123522857Y-21372200D01*
X123522857Y-21372200D02*
X123570476Y-21324580D01*
X123570476Y-21324580D02*
X123618095Y-21229342D01*
X123618095Y-21229342D02*
X123618095Y-21134104D01*
X123618095Y-21134104D02*
X123570476Y-21038866D01*
X123570476Y-21038866D02*
X123522857Y-20991247D01*
X123522857Y-20991247D02*
X123427619Y-20943628D01*
X123427619Y-20943628D02*
X123237143Y-20896009D01*
X123237143Y-20896009D02*
X123141905Y-20848390D01*
X123141905Y-20848390D02*
X123094286Y-20800771D01*
X123094286Y-20800771D02*
X123046667Y-20705533D01*
X123046667Y-20705533D02*
X123046667Y-20610295D01*
X123046667Y-20610295D02*
X123094286Y-20515057D01*
X123094286Y-20515057D02*
X123141905Y-20467438D01*
X123141905Y-20467438D02*
X123237143Y-20419819D01*
X123237143Y-20419819D02*
X123475238Y-20419819D01*
X123475238Y-20419819D02*
X123618095Y-20467438D01*
X123951429Y-20419819D02*
X124189524Y-21419819D01*
X124189524Y-21419819D02*
X124380000Y-20705533D01*
X124380000Y-20705533D02*
X124570476Y-21419819D01*
X124570476Y-21419819D02*
X124808572Y-20419819D01*
X125618095Y-20419819D02*
X125427619Y-20419819D01*
X125427619Y-20419819D02*
X125332381Y-20467438D01*
X125332381Y-20467438D02*
X125284762Y-20515057D01*
X125284762Y-20515057D02*
X125189524Y-20657914D01*
X125189524Y-20657914D02*
X125141905Y-20848390D01*
X125141905Y-20848390D02*
X125141905Y-21229342D01*
X125141905Y-21229342D02*
X125189524Y-21324580D01*
X125189524Y-21324580D02*
X125237143Y-21372200D01*
X125237143Y-21372200D02*
X125332381Y-21419819D01*
X125332381Y-21419819D02*
X125522857Y-21419819D01*
X125522857Y-21419819D02*
X125618095Y-21372200D01*
X125618095Y-21372200D02*
X125665714Y-21324580D01*
X125665714Y-21324580D02*
X125713333Y-21229342D01*
X125713333Y-21229342D02*
X125713333Y-20991247D01*
X125713333Y-20991247D02*
X125665714Y-20896009D01*
X125665714Y-20896009D02*
X125618095Y-20848390D01*
X125618095Y-20848390D02*
X125522857Y-20800771D01*
X125522857Y-20800771D02*
X125332381Y-20800771D01*
X125332381Y-20800771D02*
X125237143Y-20848390D01*
X125237143Y-20848390D02*
X125189524Y-20896009D01*
X125189524Y-20896009D02*
X125141905Y-20991247D01*
X236870476Y-78522200D02*
X237013333Y-78569819D01*
X237013333Y-78569819D02*
X237251428Y-78569819D01*
X237251428Y-78569819D02*
X237346666Y-78522200D01*
X237346666Y-78522200D02*
X237394285Y-78474580D01*
X237394285Y-78474580D02*
X237441904Y-78379342D01*
X237441904Y-78379342D02*
X237441904Y-78284104D01*
X237441904Y-78284104D02*
X237394285Y-78188866D01*
X237394285Y-78188866D02*
X237346666Y-78141247D01*
X237346666Y-78141247D02*
X237251428Y-78093628D01*
X237251428Y-78093628D02*
X237060952Y-78046009D01*
X237060952Y-78046009D02*
X236965714Y-77998390D01*
X236965714Y-77998390D02*
X236918095Y-77950771D01*
X236918095Y-77950771D02*
X236870476Y-77855533D01*
X236870476Y-77855533D02*
X236870476Y-77760295D01*
X236870476Y-77760295D02*
X236918095Y-77665057D01*
X236918095Y-77665057D02*
X236965714Y-77617438D01*
X236965714Y-77617438D02*
X237060952Y-77569819D01*
X237060952Y-77569819D02*
X237299047Y-77569819D01*
X237299047Y-77569819D02*
X237441904Y-77617438D01*
X237775238Y-77569819D02*
X238013333Y-78569819D01*
X238013333Y-78569819D02*
X238203809Y-77855533D01*
X238203809Y-77855533D02*
X238394285Y-78569819D01*
X238394285Y-78569819D02*
X238632381Y-77569819D01*
X239441904Y-77903152D02*
X239441904Y-78569819D01*
X239203809Y-77522200D02*
X238965714Y-78236485D01*
X238965714Y-78236485D02*
X239584761Y-78236485D01*
X239870476Y-77569819D02*
X240537142Y-77569819D01*
X240537142Y-77569819D02*
X240108571Y-78569819D01*
X236870476Y-40422200D02*
X237013333Y-40469819D01*
X237013333Y-40469819D02*
X237251428Y-40469819D01*
X237251428Y-40469819D02*
X237346666Y-40422200D01*
X237346666Y-40422200D02*
X237394285Y-40374580D01*
X237394285Y-40374580D02*
X237441904Y-40279342D01*
X237441904Y-40279342D02*
X237441904Y-40184104D01*
X237441904Y-40184104D02*
X237394285Y-40088866D01*
X237394285Y-40088866D02*
X237346666Y-40041247D01*
X237346666Y-40041247D02*
X237251428Y-39993628D01*
X237251428Y-39993628D02*
X237060952Y-39946009D01*
X237060952Y-39946009D02*
X236965714Y-39898390D01*
X236965714Y-39898390D02*
X236918095Y-39850771D01*
X236918095Y-39850771D02*
X236870476Y-39755533D01*
X236870476Y-39755533D02*
X236870476Y-39660295D01*
X236870476Y-39660295D02*
X236918095Y-39565057D01*
X236918095Y-39565057D02*
X236965714Y-39517438D01*
X236965714Y-39517438D02*
X237060952Y-39469819D01*
X237060952Y-39469819D02*
X237299047Y-39469819D01*
X237299047Y-39469819D02*
X237441904Y-39517438D01*
X237775238Y-39469819D02*
X238013333Y-40469819D01*
X238013333Y-40469819D02*
X238203809Y-39755533D01*
X238203809Y-39755533D02*
X238394285Y-40469819D01*
X238394285Y-40469819D02*
X238632381Y-39469819D01*
X238965714Y-39565057D02*
X239013333Y-39517438D01*
X239013333Y-39517438D02*
X239108571Y-39469819D01*
X239108571Y-39469819D02*
X239346666Y-39469819D01*
X239346666Y-39469819D02*
X239441904Y-39517438D01*
X239441904Y-39517438D02*
X239489523Y-39565057D01*
X239489523Y-39565057D02*
X239537142Y-39660295D01*
X239537142Y-39660295D02*
X239537142Y-39755533D01*
X239537142Y-39755533D02*
X239489523Y-39898390D01*
X239489523Y-39898390D02*
X238918095Y-40469819D01*
X238918095Y-40469819D02*
X239537142Y-40469819D01*
X239870476Y-39469819D02*
X240489523Y-39469819D01*
X240489523Y-39469819D02*
X240156190Y-39850771D01*
X240156190Y-39850771D02*
X240299047Y-39850771D01*
X240299047Y-39850771D02*
X240394285Y-39898390D01*
X240394285Y-39898390D02*
X240441904Y-39946009D01*
X240441904Y-39946009D02*
X240489523Y-40041247D01*
X240489523Y-40041247D02*
X240489523Y-40279342D01*
X240489523Y-40279342D02*
X240441904Y-40374580D01*
X240441904Y-40374580D02*
X240394285Y-40422200D01*
X240394285Y-40422200D02*
X240299047Y-40469819D01*
X240299047Y-40469819D02*
X240013333Y-40469819D01*
X240013333Y-40469819D02*
X239918095Y-40422200D01*
X239918095Y-40422200D02*
X239870476Y-40374580D01*
X180196667Y-21372200D02*
X180339524Y-21419819D01*
X180339524Y-21419819D02*
X180577619Y-21419819D01*
X180577619Y-21419819D02*
X180672857Y-21372200D01*
X180672857Y-21372200D02*
X180720476Y-21324580D01*
X180720476Y-21324580D02*
X180768095Y-21229342D01*
X180768095Y-21229342D02*
X180768095Y-21134104D01*
X180768095Y-21134104D02*
X180720476Y-21038866D01*
X180720476Y-21038866D02*
X180672857Y-20991247D01*
X180672857Y-20991247D02*
X180577619Y-20943628D01*
X180577619Y-20943628D02*
X180387143Y-20896009D01*
X180387143Y-20896009D02*
X180291905Y-20848390D01*
X180291905Y-20848390D02*
X180244286Y-20800771D01*
X180244286Y-20800771D02*
X180196667Y-20705533D01*
X180196667Y-20705533D02*
X180196667Y-20610295D01*
X180196667Y-20610295D02*
X180244286Y-20515057D01*
X180244286Y-20515057D02*
X180291905Y-20467438D01*
X180291905Y-20467438D02*
X180387143Y-20419819D01*
X180387143Y-20419819D02*
X180625238Y-20419819D01*
X180625238Y-20419819D02*
X180768095Y-20467438D01*
X181101429Y-20419819D02*
X181339524Y-21419819D01*
X181339524Y-21419819D02*
X181530000Y-20705533D01*
X181530000Y-20705533D02*
X181720476Y-21419819D01*
X181720476Y-21419819D02*
X181958572Y-20419819D01*
X182482381Y-20848390D02*
X182387143Y-20800771D01*
X182387143Y-20800771D02*
X182339524Y-20753152D01*
X182339524Y-20753152D02*
X182291905Y-20657914D01*
X182291905Y-20657914D02*
X182291905Y-20610295D01*
X182291905Y-20610295D02*
X182339524Y-20515057D01*
X182339524Y-20515057D02*
X182387143Y-20467438D01*
X182387143Y-20467438D02*
X182482381Y-20419819D01*
X182482381Y-20419819D02*
X182672857Y-20419819D01*
X182672857Y-20419819D02*
X182768095Y-20467438D01*
X182768095Y-20467438D02*
X182815714Y-20515057D01*
X182815714Y-20515057D02*
X182863333Y-20610295D01*
X182863333Y-20610295D02*
X182863333Y-20657914D01*
X182863333Y-20657914D02*
X182815714Y-20753152D01*
X182815714Y-20753152D02*
X182768095Y-20800771D01*
X182768095Y-20800771D02*
X182672857Y-20848390D01*
X182672857Y-20848390D02*
X182482381Y-20848390D01*
X182482381Y-20848390D02*
X182387143Y-20896009D01*
X182387143Y-20896009D02*
X182339524Y-20943628D01*
X182339524Y-20943628D02*
X182291905Y-21038866D01*
X182291905Y-21038866D02*
X182291905Y-21229342D01*
X182291905Y-21229342D02*
X182339524Y-21324580D01*
X182339524Y-21324580D02*
X182387143Y-21372200D01*
X182387143Y-21372200D02*
X182482381Y-21419819D01*
X182482381Y-21419819D02*
X182672857Y-21419819D01*
X182672857Y-21419819D02*
X182768095Y-21372200D01*
X182768095Y-21372200D02*
X182815714Y-21324580D01*
X182815714Y-21324580D02*
X182863333Y-21229342D01*
X182863333Y-21229342D02*
X182863333Y-21038866D01*
X182863333Y-21038866D02*
X182815714Y-20943628D01*
X182815714Y-20943628D02*
X182768095Y-20896009D01*
X182768095Y-20896009D02*
X182672857Y-20848390D01*
X103520476Y-78522200D02*
X103663333Y-78569819D01*
X103663333Y-78569819D02*
X103901428Y-78569819D01*
X103901428Y-78569819D02*
X103996666Y-78522200D01*
X103996666Y-78522200D02*
X104044285Y-78474580D01*
X104044285Y-78474580D02*
X104091904Y-78379342D01*
X104091904Y-78379342D02*
X104091904Y-78284104D01*
X104091904Y-78284104D02*
X104044285Y-78188866D01*
X104044285Y-78188866D02*
X103996666Y-78141247D01*
X103996666Y-78141247D02*
X103901428Y-78093628D01*
X103901428Y-78093628D02*
X103710952Y-78046009D01*
X103710952Y-78046009D02*
X103615714Y-77998390D01*
X103615714Y-77998390D02*
X103568095Y-77950771D01*
X103568095Y-77950771D02*
X103520476Y-77855533D01*
X103520476Y-77855533D02*
X103520476Y-77760295D01*
X103520476Y-77760295D02*
X103568095Y-77665057D01*
X103568095Y-77665057D02*
X103615714Y-77617438D01*
X103615714Y-77617438D02*
X103710952Y-77569819D01*
X103710952Y-77569819D02*
X103949047Y-77569819D01*
X103949047Y-77569819D02*
X104091904Y-77617438D01*
X104425238Y-77569819D02*
X104663333Y-78569819D01*
X104663333Y-78569819D02*
X104853809Y-77855533D01*
X104853809Y-77855533D02*
X105044285Y-78569819D01*
X105044285Y-78569819D02*
X105282381Y-77569819D01*
X106091904Y-77903152D02*
X106091904Y-78569819D01*
X105853809Y-77522200D02*
X105615714Y-78236485D01*
X105615714Y-78236485D02*
X106234761Y-78236485D01*
X107139523Y-78569819D02*
X106568095Y-78569819D01*
X106853809Y-78569819D02*
X106853809Y-77569819D01*
X106853809Y-77569819D02*
X106758571Y-77712676D01*
X106758571Y-77712676D02*
X106663333Y-77807914D01*
X106663333Y-77807914D02*
X106568095Y-77855533D01*
X27796667Y-21372200D02*
X27939524Y-21419819D01*
X27939524Y-21419819D02*
X28177619Y-21419819D01*
X28177619Y-21419819D02*
X28272857Y-21372200D01*
X28272857Y-21372200D02*
X28320476Y-21324580D01*
X28320476Y-21324580D02*
X28368095Y-21229342D01*
X28368095Y-21229342D02*
X28368095Y-21134104D01*
X28368095Y-21134104D02*
X28320476Y-21038866D01*
X28320476Y-21038866D02*
X28272857Y-20991247D01*
X28272857Y-20991247D02*
X28177619Y-20943628D01*
X28177619Y-20943628D02*
X27987143Y-20896009D01*
X27987143Y-20896009D02*
X27891905Y-20848390D01*
X27891905Y-20848390D02*
X27844286Y-20800771D01*
X27844286Y-20800771D02*
X27796667Y-20705533D01*
X27796667Y-20705533D02*
X27796667Y-20610295D01*
X27796667Y-20610295D02*
X27844286Y-20515057D01*
X27844286Y-20515057D02*
X27891905Y-20467438D01*
X27891905Y-20467438D02*
X27987143Y-20419819D01*
X27987143Y-20419819D02*
X28225238Y-20419819D01*
X28225238Y-20419819D02*
X28368095Y-20467438D01*
X28701429Y-20419819D02*
X28939524Y-21419819D01*
X28939524Y-21419819D02*
X29130000Y-20705533D01*
X29130000Y-20705533D02*
X29320476Y-21419819D01*
X29320476Y-21419819D02*
X29558572Y-20419819D01*
X30463333Y-21419819D02*
X29891905Y-21419819D01*
X30177619Y-21419819D02*
X30177619Y-20419819D01*
X30177619Y-20419819D02*
X30082381Y-20562676D01*
X30082381Y-20562676D02*
X29987143Y-20657914D01*
X29987143Y-20657914D02*
X29891905Y-20705533D01*
X103520476Y-40422200D02*
X103663333Y-40469819D01*
X103663333Y-40469819D02*
X103901428Y-40469819D01*
X103901428Y-40469819D02*
X103996666Y-40422200D01*
X103996666Y-40422200D02*
X104044285Y-40374580D01*
X104044285Y-40374580D02*
X104091904Y-40279342D01*
X104091904Y-40279342D02*
X104091904Y-40184104D01*
X104091904Y-40184104D02*
X104044285Y-40088866D01*
X104044285Y-40088866D02*
X103996666Y-40041247D01*
X103996666Y-40041247D02*
X103901428Y-39993628D01*
X103901428Y-39993628D02*
X103710952Y-39946009D01*
X103710952Y-39946009D02*
X103615714Y-39898390D01*
X103615714Y-39898390D02*
X103568095Y-39850771D01*
X103568095Y-39850771D02*
X103520476Y-39755533D01*
X103520476Y-39755533D02*
X103520476Y-39660295D01*
X103520476Y-39660295D02*
X103568095Y-39565057D01*
X103568095Y-39565057D02*
X103615714Y-39517438D01*
X103615714Y-39517438D02*
X103710952Y-39469819D01*
X103710952Y-39469819D02*
X103949047Y-39469819D01*
X103949047Y-39469819D02*
X104091904Y-39517438D01*
X104425238Y-39469819D02*
X104663333Y-40469819D01*
X104663333Y-40469819D02*
X104853809Y-39755533D01*
X104853809Y-39755533D02*
X105044285Y-40469819D01*
X105044285Y-40469819D02*
X105282381Y-39469819D01*
X106187142Y-40469819D02*
X105615714Y-40469819D01*
X105901428Y-40469819D02*
X105901428Y-39469819D01*
X105901428Y-39469819D02*
X105806190Y-39612676D01*
X105806190Y-39612676D02*
X105710952Y-39707914D01*
X105710952Y-39707914D02*
X105615714Y-39755533D01*
X106520476Y-39469819D02*
X107187142Y-39469819D01*
X107187142Y-39469819D02*
X106758571Y-40469819D01*
X122570476Y-40422200D02*
X122713333Y-40469819D01*
X122713333Y-40469819D02*
X122951428Y-40469819D01*
X122951428Y-40469819D02*
X123046666Y-40422200D01*
X123046666Y-40422200D02*
X123094285Y-40374580D01*
X123094285Y-40374580D02*
X123141904Y-40279342D01*
X123141904Y-40279342D02*
X123141904Y-40184104D01*
X123141904Y-40184104D02*
X123094285Y-40088866D01*
X123094285Y-40088866D02*
X123046666Y-40041247D01*
X123046666Y-40041247D02*
X122951428Y-39993628D01*
X122951428Y-39993628D02*
X122760952Y-39946009D01*
X122760952Y-39946009D02*
X122665714Y-39898390D01*
X122665714Y-39898390D02*
X122618095Y-39850771D01*
X122618095Y-39850771D02*
X122570476Y-39755533D01*
X122570476Y-39755533D02*
X122570476Y-39660295D01*
X122570476Y-39660295D02*
X122618095Y-39565057D01*
X122618095Y-39565057D02*
X122665714Y-39517438D01*
X122665714Y-39517438D02*
X122760952Y-39469819D01*
X122760952Y-39469819D02*
X122999047Y-39469819D01*
X122999047Y-39469819D02*
X123141904Y-39517438D01*
X123475238Y-39469819D02*
X123713333Y-40469819D01*
X123713333Y-40469819D02*
X123903809Y-39755533D01*
X123903809Y-39755533D02*
X124094285Y-40469819D01*
X124094285Y-40469819D02*
X124332381Y-39469819D01*
X125237142Y-40469819D02*
X124665714Y-40469819D01*
X124951428Y-40469819D02*
X124951428Y-39469819D01*
X124951428Y-39469819D02*
X124856190Y-39612676D01*
X124856190Y-39612676D02*
X124760952Y-39707914D01*
X124760952Y-39707914D02*
X124665714Y-39755533D01*
X125808571Y-39898390D02*
X125713333Y-39850771D01*
X125713333Y-39850771D02*
X125665714Y-39803152D01*
X125665714Y-39803152D02*
X125618095Y-39707914D01*
X125618095Y-39707914D02*
X125618095Y-39660295D01*
X125618095Y-39660295D02*
X125665714Y-39565057D01*
X125665714Y-39565057D02*
X125713333Y-39517438D01*
X125713333Y-39517438D02*
X125808571Y-39469819D01*
X125808571Y-39469819D02*
X125999047Y-39469819D01*
X125999047Y-39469819D02*
X126094285Y-39517438D01*
X126094285Y-39517438D02*
X126141904Y-39565057D01*
X126141904Y-39565057D02*
X126189523Y-39660295D01*
X126189523Y-39660295D02*
X126189523Y-39707914D01*
X126189523Y-39707914D02*
X126141904Y-39803152D01*
X126141904Y-39803152D02*
X126094285Y-39850771D01*
X126094285Y-39850771D02*
X125999047Y-39898390D01*
X125999047Y-39898390D02*
X125808571Y-39898390D01*
X125808571Y-39898390D02*
X125713333Y-39946009D01*
X125713333Y-39946009D02*
X125665714Y-39993628D01*
X125665714Y-39993628D02*
X125618095Y-40088866D01*
X125618095Y-40088866D02*
X125618095Y-40279342D01*
X125618095Y-40279342D02*
X125665714Y-40374580D01*
X125665714Y-40374580D02*
X125713333Y-40422200D01*
X125713333Y-40422200D02*
X125808571Y-40469819D01*
X125808571Y-40469819D02*
X125999047Y-40469819D01*
X125999047Y-40469819D02*
X126094285Y-40422200D01*
X126094285Y-40422200D02*
X126141904Y-40374580D01*
X126141904Y-40374580D02*
X126189523Y-40279342D01*
X126189523Y-40279342D02*
X126189523Y-40088866D01*
X126189523Y-40088866D02*
X126141904Y-39993628D01*
X126141904Y-39993628D02*
X126094285Y-39946009D01*
X126094285Y-39946009D02*
X125999047Y-39898390D01*
X217820476Y-78522200D02*
X217963333Y-78569819D01*
X217963333Y-78569819D02*
X218201428Y-78569819D01*
X218201428Y-78569819D02*
X218296666Y-78522200D01*
X218296666Y-78522200D02*
X218344285Y-78474580D01*
X218344285Y-78474580D02*
X218391904Y-78379342D01*
X218391904Y-78379342D02*
X218391904Y-78284104D01*
X218391904Y-78284104D02*
X218344285Y-78188866D01*
X218344285Y-78188866D02*
X218296666Y-78141247D01*
X218296666Y-78141247D02*
X218201428Y-78093628D01*
X218201428Y-78093628D02*
X218010952Y-78046009D01*
X218010952Y-78046009D02*
X217915714Y-77998390D01*
X217915714Y-77998390D02*
X217868095Y-77950771D01*
X217868095Y-77950771D02*
X217820476Y-77855533D01*
X217820476Y-77855533D02*
X217820476Y-77760295D01*
X217820476Y-77760295D02*
X217868095Y-77665057D01*
X217868095Y-77665057D02*
X217915714Y-77617438D01*
X217915714Y-77617438D02*
X218010952Y-77569819D01*
X218010952Y-77569819D02*
X218249047Y-77569819D01*
X218249047Y-77569819D02*
X218391904Y-77617438D01*
X218725238Y-77569819D02*
X218963333Y-78569819D01*
X218963333Y-78569819D02*
X219153809Y-77855533D01*
X219153809Y-77855533D02*
X219344285Y-78569819D01*
X219344285Y-78569819D02*
X219582381Y-77569819D01*
X220391904Y-77903152D02*
X220391904Y-78569819D01*
X220153809Y-77522200D02*
X219915714Y-78236485D01*
X219915714Y-78236485D02*
X220534761Y-78236485D01*
X221344285Y-77569819D02*
X221153809Y-77569819D01*
X221153809Y-77569819D02*
X221058571Y-77617438D01*
X221058571Y-77617438D02*
X221010952Y-77665057D01*
X221010952Y-77665057D02*
X220915714Y-77807914D01*
X220915714Y-77807914D02*
X220868095Y-77998390D01*
X220868095Y-77998390D02*
X220868095Y-78379342D01*
X220868095Y-78379342D02*
X220915714Y-78474580D01*
X220915714Y-78474580D02*
X220963333Y-78522200D01*
X220963333Y-78522200D02*
X221058571Y-78569819D01*
X221058571Y-78569819D02*
X221249047Y-78569819D01*
X221249047Y-78569819D02*
X221344285Y-78522200D01*
X221344285Y-78522200D02*
X221391904Y-78474580D01*
X221391904Y-78474580D02*
X221439523Y-78379342D01*
X221439523Y-78379342D02*
X221439523Y-78141247D01*
X221439523Y-78141247D02*
X221391904Y-78046009D01*
X221391904Y-78046009D02*
X221344285Y-77998390D01*
X221344285Y-77998390D02*
X221249047Y-77950771D01*
X221249047Y-77950771D02*
X221058571Y-77950771D01*
X221058571Y-77950771D02*
X220963333Y-77998390D01*
X220963333Y-77998390D02*
X220915714Y-78046009D01*
X220915714Y-78046009D02*
X220868095Y-78141247D01*
X103996667Y-21372200D02*
X104139524Y-21419819D01*
X104139524Y-21419819D02*
X104377619Y-21419819D01*
X104377619Y-21419819D02*
X104472857Y-21372200D01*
X104472857Y-21372200D02*
X104520476Y-21324580D01*
X104520476Y-21324580D02*
X104568095Y-21229342D01*
X104568095Y-21229342D02*
X104568095Y-21134104D01*
X104568095Y-21134104D02*
X104520476Y-21038866D01*
X104520476Y-21038866D02*
X104472857Y-20991247D01*
X104472857Y-20991247D02*
X104377619Y-20943628D01*
X104377619Y-20943628D02*
X104187143Y-20896009D01*
X104187143Y-20896009D02*
X104091905Y-20848390D01*
X104091905Y-20848390D02*
X104044286Y-20800771D01*
X104044286Y-20800771D02*
X103996667Y-20705533D01*
X103996667Y-20705533D02*
X103996667Y-20610295D01*
X103996667Y-20610295D02*
X104044286Y-20515057D01*
X104044286Y-20515057D02*
X104091905Y-20467438D01*
X104091905Y-20467438D02*
X104187143Y-20419819D01*
X104187143Y-20419819D02*
X104425238Y-20419819D01*
X104425238Y-20419819D02*
X104568095Y-20467438D01*
X104901429Y-20419819D02*
X105139524Y-21419819D01*
X105139524Y-21419819D02*
X105330000Y-20705533D01*
X105330000Y-20705533D02*
X105520476Y-21419819D01*
X105520476Y-21419819D02*
X105758572Y-20419819D01*
X106615714Y-20419819D02*
X106139524Y-20419819D01*
X106139524Y-20419819D02*
X106091905Y-20896009D01*
X106091905Y-20896009D02*
X106139524Y-20848390D01*
X106139524Y-20848390D02*
X106234762Y-20800771D01*
X106234762Y-20800771D02*
X106472857Y-20800771D01*
X106472857Y-20800771D02*
X106568095Y-20848390D01*
X106568095Y-20848390D02*
X106615714Y-20896009D01*
X106615714Y-20896009D02*
X106663333Y-20991247D01*
X106663333Y-20991247D02*
X106663333Y-21229342D01*
X106663333Y-21229342D02*
X106615714Y-21324580D01*
X106615714Y-21324580D02*
X106568095Y-21372200D01*
X106568095Y-21372200D02*
X106472857Y-21419819D01*
X106472857Y-21419819D02*
X106234762Y-21419819D01*
X106234762Y-21419819D02*
X106139524Y-21372200D01*
X106139524Y-21372200D02*
X106091905Y-21324580D01*
X65420476Y-40422200D02*
X65563333Y-40469819D01*
X65563333Y-40469819D02*
X65801428Y-40469819D01*
X65801428Y-40469819D02*
X65896666Y-40422200D01*
X65896666Y-40422200D02*
X65944285Y-40374580D01*
X65944285Y-40374580D02*
X65991904Y-40279342D01*
X65991904Y-40279342D02*
X65991904Y-40184104D01*
X65991904Y-40184104D02*
X65944285Y-40088866D01*
X65944285Y-40088866D02*
X65896666Y-40041247D01*
X65896666Y-40041247D02*
X65801428Y-39993628D01*
X65801428Y-39993628D02*
X65610952Y-39946009D01*
X65610952Y-39946009D02*
X65515714Y-39898390D01*
X65515714Y-39898390D02*
X65468095Y-39850771D01*
X65468095Y-39850771D02*
X65420476Y-39755533D01*
X65420476Y-39755533D02*
X65420476Y-39660295D01*
X65420476Y-39660295D02*
X65468095Y-39565057D01*
X65468095Y-39565057D02*
X65515714Y-39517438D01*
X65515714Y-39517438D02*
X65610952Y-39469819D01*
X65610952Y-39469819D02*
X65849047Y-39469819D01*
X65849047Y-39469819D02*
X65991904Y-39517438D01*
X66325238Y-39469819D02*
X66563333Y-40469819D01*
X66563333Y-40469819D02*
X66753809Y-39755533D01*
X66753809Y-39755533D02*
X66944285Y-40469819D01*
X66944285Y-40469819D02*
X67182381Y-39469819D01*
X68087142Y-40469819D02*
X67515714Y-40469819D01*
X67801428Y-40469819D02*
X67801428Y-39469819D01*
X67801428Y-39469819D02*
X67706190Y-39612676D01*
X67706190Y-39612676D02*
X67610952Y-39707914D01*
X67610952Y-39707914D02*
X67515714Y-39755533D01*
X68991904Y-39469819D02*
X68515714Y-39469819D01*
X68515714Y-39469819D02*
X68468095Y-39946009D01*
X68468095Y-39946009D02*
X68515714Y-39898390D01*
X68515714Y-39898390D02*
X68610952Y-39850771D01*
X68610952Y-39850771D02*
X68849047Y-39850771D01*
X68849047Y-39850771D02*
X68944285Y-39898390D01*
X68944285Y-39898390D02*
X68991904Y-39946009D01*
X68991904Y-39946009D02*
X69039523Y-40041247D01*
X69039523Y-40041247D02*
X69039523Y-40279342D01*
X69039523Y-40279342D02*
X68991904Y-40374580D01*
X68991904Y-40374580D02*
X68944285Y-40422200D01*
X68944285Y-40422200D02*
X68849047Y-40469819D01*
X68849047Y-40469819D02*
X68610952Y-40469819D01*
X68610952Y-40469819D02*
X68515714Y-40422200D01*
X68515714Y-40422200D02*
X68468095Y-40374580D01*
X65420476Y-78522200D02*
X65563333Y-78569819D01*
X65563333Y-78569819D02*
X65801428Y-78569819D01*
X65801428Y-78569819D02*
X65896666Y-78522200D01*
X65896666Y-78522200D02*
X65944285Y-78474580D01*
X65944285Y-78474580D02*
X65991904Y-78379342D01*
X65991904Y-78379342D02*
X65991904Y-78284104D01*
X65991904Y-78284104D02*
X65944285Y-78188866D01*
X65944285Y-78188866D02*
X65896666Y-78141247D01*
X65896666Y-78141247D02*
X65801428Y-78093628D01*
X65801428Y-78093628D02*
X65610952Y-78046009D01*
X65610952Y-78046009D02*
X65515714Y-77998390D01*
X65515714Y-77998390D02*
X65468095Y-77950771D01*
X65468095Y-77950771D02*
X65420476Y-77855533D01*
X65420476Y-77855533D02*
X65420476Y-77760295D01*
X65420476Y-77760295D02*
X65468095Y-77665057D01*
X65468095Y-77665057D02*
X65515714Y-77617438D01*
X65515714Y-77617438D02*
X65610952Y-77569819D01*
X65610952Y-77569819D02*
X65849047Y-77569819D01*
X65849047Y-77569819D02*
X65991904Y-77617438D01*
X66325238Y-77569819D02*
X66563333Y-78569819D01*
X66563333Y-78569819D02*
X66753809Y-77855533D01*
X66753809Y-77855533D02*
X66944285Y-78569819D01*
X66944285Y-78569819D02*
X67182381Y-77569819D01*
X67468095Y-77569819D02*
X68087142Y-77569819D01*
X68087142Y-77569819D02*
X67753809Y-77950771D01*
X67753809Y-77950771D02*
X67896666Y-77950771D01*
X67896666Y-77950771D02*
X67991904Y-77998390D01*
X67991904Y-77998390D02*
X68039523Y-78046009D01*
X68039523Y-78046009D02*
X68087142Y-78141247D01*
X68087142Y-78141247D02*
X68087142Y-78379342D01*
X68087142Y-78379342D02*
X68039523Y-78474580D01*
X68039523Y-78474580D02*
X67991904Y-78522200D01*
X67991904Y-78522200D02*
X67896666Y-78569819D01*
X67896666Y-78569819D02*
X67610952Y-78569819D01*
X67610952Y-78569819D02*
X67515714Y-78522200D01*
X67515714Y-78522200D02*
X67468095Y-78474580D01*
X68563333Y-78569819D02*
X68753809Y-78569819D01*
X68753809Y-78569819D02*
X68849047Y-78522200D01*
X68849047Y-78522200D02*
X68896666Y-78474580D01*
X68896666Y-78474580D02*
X68991904Y-78331723D01*
X68991904Y-78331723D02*
X69039523Y-78141247D01*
X69039523Y-78141247D02*
X69039523Y-77760295D01*
X69039523Y-77760295D02*
X68991904Y-77665057D01*
X68991904Y-77665057D02*
X68944285Y-77617438D01*
X68944285Y-77617438D02*
X68849047Y-77569819D01*
X68849047Y-77569819D02*
X68658571Y-77569819D01*
X68658571Y-77569819D02*
X68563333Y-77617438D01*
X68563333Y-77617438D02*
X68515714Y-77665057D01*
X68515714Y-77665057D02*
X68468095Y-77760295D01*
X68468095Y-77760295D02*
X68468095Y-77998390D01*
X68468095Y-77998390D02*
X68515714Y-78093628D01*
X68515714Y-78093628D02*
X68563333Y-78141247D01*
X68563333Y-78141247D02*
X68658571Y-78188866D01*
X68658571Y-78188866D02*
X68849047Y-78188866D01*
X68849047Y-78188866D02*
X68944285Y-78141247D01*
X68944285Y-78141247D02*
X68991904Y-78093628D01*
X68991904Y-78093628D02*
X69039523Y-77998390D01*
X198770476Y-78522200D02*
X198913333Y-78569819D01*
X198913333Y-78569819D02*
X199151428Y-78569819D01*
X199151428Y-78569819D02*
X199246666Y-78522200D01*
X199246666Y-78522200D02*
X199294285Y-78474580D01*
X199294285Y-78474580D02*
X199341904Y-78379342D01*
X199341904Y-78379342D02*
X199341904Y-78284104D01*
X199341904Y-78284104D02*
X199294285Y-78188866D01*
X199294285Y-78188866D02*
X199246666Y-78141247D01*
X199246666Y-78141247D02*
X199151428Y-78093628D01*
X199151428Y-78093628D02*
X198960952Y-78046009D01*
X198960952Y-78046009D02*
X198865714Y-77998390D01*
X198865714Y-77998390D02*
X198818095Y-77950771D01*
X198818095Y-77950771D02*
X198770476Y-77855533D01*
X198770476Y-77855533D02*
X198770476Y-77760295D01*
X198770476Y-77760295D02*
X198818095Y-77665057D01*
X198818095Y-77665057D02*
X198865714Y-77617438D01*
X198865714Y-77617438D02*
X198960952Y-77569819D01*
X198960952Y-77569819D02*
X199199047Y-77569819D01*
X199199047Y-77569819D02*
X199341904Y-77617438D01*
X199675238Y-77569819D02*
X199913333Y-78569819D01*
X199913333Y-78569819D02*
X200103809Y-77855533D01*
X200103809Y-77855533D02*
X200294285Y-78569819D01*
X200294285Y-78569819D02*
X200532381Y-77569819D01*
X201341904Y-77903152D02*
X201341904Y-78569819D01*
X201103809Y-77522200D02*
X200865714Y-78236485D01*
X200865714Y-78236485D02*
X201484761Y-78236485D01*
X202341904Y-77569819D02*
X201865714Y-77569819D01*
X201865714Y-77569819D02*
X201818095Y-78046009D01*
X201818095Y-78046009D02*
X201865714Y-77998390D01*
X201865714Y-77998390D02*
X201960952Y-77950771D01*
X201960952Y-77950771D02*
X202199047Y-77950771D01*
X202199047Y-77950771D02*
X202294285Y-77998390D01*
X202294285Y-77998390D02*
X202341904Y-78046009D01*
X202341904Y-78046009D02*
X202389523Y-78141247D01*
X202389523Y-78141247D02*
X202389523Y-78379342D01*
X202389523Y-78379342D02*
X202341904Y-78474580D01*
X202341904Y-78474580D02*
X202294285Y-78522200D01*
X202294285Y-78522200D02*
X202199047Y-78569819D01*
X202199047Y-78569819D02*
X201960952Y-78569819D01*
X201960952Y-78569819D02*
X201865714Y-78522200D01*
X201865714Y-78522200D02*
X201818095Y-78474580D01*
X136808976Y-79313200D02*
X136951833Y-79360819D01*
X136951833Y-79360819D02*
X137189928Y-79360819D01*
X137189928Y-79360819D02*
X137285166Y-79313200D01*
X137285166Y-79313200D02*
X137332785Y-79265580D01*
X137332785Y-79265580D02*
X137380404Y-79170342D01*
X137380404Y-79170342D02*
X137380404Y-79075104D01*
X137380404Y-79075104D02*
X137332785Y-78979866D01*
X137332785Y-78979866D02*
X137285166Y-78932247D01*
X137285166Y-78932247D02*
X137189928Y-78884628D01*
X137189928Y-78884628D02*
X136999452Y-78837009D01*
X136999452Y-78837009D02*
X136904214Y-78789390D01*
X136904214Y-78789390D02*
X136856595Y-78741771D01*
X136856595Y-78741771D02*
X136808976Y-78646533D01*
X136808976Y-78646533D02*
X136808976Y-78551295D01*
X136808976Y-78551295D02*
X136856595Y-78456057D01*
X136856595Y-78456057D02*
X136904214Y-78408438D01*
X136904214Y-78408438D02*
X136999452Y-78360819D01*
X136999452Y-78360819D02*
X137237547Y-78360819D01*
X137237547Y-78360819D02*
X137380404Y-78408438D01*
X137713738Y-78360819D02*
X137951833Y-79360819D01*
X137951833Y-79360819D02*
X138142309Y-78646533D01*
X138142309Y-78646533D02*
X138332785Y-79360819D01*
X138332785Y-79360819D02*
X138570881Y-78360819D01*
X139380404Y-78694152D02*
X139380404Y-79360819D01*
X139142309Y-78313200D02*
X138904214Y-79027485D01*
X138904214Y-79027485D02*
X139523261Y-79027485D01*
X139951833Y-79360819D02*
X140142309Y-79360819D01*
X140142309Y-79360819D02*
X140237547Y-79313200D01*
X140237547Y-79313200D02*
X140285166Y-79265580D01*
X140285166Y-79265580D02*
X140380404Y-79122723D01*
X140380404Y-79122723D02*
X140428023Y-78932247D01*
X140428023Y-78932247D02*
X140428023Y-78551295D01*
X140428023Y-78551295D02*
X140380404Y-78456057D01*
X140380404Y-78456057D02*
X140332785Y-78408438D01*
X140332785Y-78408438D02*
X140237547Y-78360819D01*
X140237547Y-78360819D02*
X140047071Y-78360819D01*
X140047071Y-78360819D02*
X139951833Y-78408438D01*
X139951833Y-78408438D02*
X139904214Y-78456057D01*
X139904214Y-78456057D02*
X139856595Y-78551295D01*
X139856595Y-78551295D02*
X139856595Y-78789390D01*
X139856595Y-78789390D02*
X139904214Y-78884628D01*
X139904214Y-78884628D02*
X139951833Y-78932247D01*
X139951833Y-78932247D02*
X140047071Y-78979866D01*
X140047071Y-78979866D02*
X140237547Y-78979866D01*
X140237547Y-78979866D02*
X140332785Y-78932247D01*
X140332785Y-78932247D02*
X140380404Y-78884628D01*
X140380404Y-78884628D02*
X140428023Y-78789390D01*
X46370476Y-59472200D02*
X46513333Y-59519819D01*
X46513333Y-59519819D02*
X46751428Y-59519819D01*
X46751428Y-59519819D02*
X46846666Y-59472200D01*
X46846666Y-59472200D02*
X46894285Y-59424580D01*
X46894285Y-59424580D02*
X46941904Y-59329342D01*
X46941904Y-59329342D02*
X46941904Y-59234104D01*
X46941904Y-59234104D02*
X46894285Y-59138866D01*
X46894285Y-59138866D02*
X46846666Y-59091247D01*
X46846666Y-59091247D02*
X46751428Y-59043628D01*
X46751428Y-59043628D02*
X46560952Y-58996009D01*
X46560952Y-58996009D02*
X46465714Y-58948390D01*
X46465714Y-58948390D02*
X46418095Y-58900771D01*
X46418095Y-58900771D02*
X46370476Y-58805533D01*
X46370476Y-58805533D02*
X46370476Y-58710295D01*
X46370476Y-58710295D02*
X46418095Y-58615057D01*
X46418095Y-58615057D02*
X46465714Y-58567438D01*
X46465714Y-58567438D02*
X46560952Y-58519819D01*
X46560952Y-58519819D02*
X46799047Y-58519819D01*
X46799047Y-58519819D02*
X46941904Y-58567438D01*
X47275238Y-58519819D02*
X47513333Y-59519819D01*
X47513333Y-59519819D02*
X47703809Y-58805533D01*
X47703809Y-58805533D02*
X47894285Y-59519819D01*
X47894285Y-59519819D02*
X48132381Y-58519819D01*
X48465714Y-58615057D02*
X48513333Y-58567438D01*
X48513333Y-58567438D02*
X48608571Y-58519819D01*
X48608571Y-58519819D02*
X48846666Y-58519819D01*
X48846666Y-58519819D02*
X48941904Y-58567438D01*
X48941904Y-58567438D02*
X48989523Y-58615057D01*
X48989523Y-58615057D02*
X49037142Y-58710295D01*
X49037142Y-58710295D02*
X49037142Y-58805533D01*
X49037142Y-58805533D02*
X48989523Y-58948390D01*
X48989523Y-58948390D02*
X48418095Y-59519819D01*
X48418095Y-59519819D02*
X49037142Y-59519819D01*
X49894285Y-58519819D02*
X49703809Y-58519819D01*
X49703809Y-58519819D02*
X49608571Y-58567438D01*
X49608571Y-58567438D02*
X49560952Y-58615057D01*
X49560952Y-58615057D02*
X49465714Y-58757914D01*
X49465714Y-58757914D02*
X49418095Y-58948390D01*
X49418095Y-58948390D02*
X49418095Y-59329342D01*
X49418095Y-59329342D02*
X49465714Y-59424580D01*
X49465714Y-59424580D02*
X49513333Y-59472200D01*
X49513333Y-59472200D02*
X49608571Y-59519819D01*
X49608571Y-59519819D02*
X49799047Y-59519819D01*
X49799047Y-59519819D02*
X49894285Y-59472200D01*
X49894285Y-59472200D02*
X49941904Y-59424580D01*
X49941904Y-59424580D02*
X49989523Y-59329342D01*
X49989523Y-59329342D02*
X49989523Y-59091247D01*
X49989523Y-59091247D02*
X49941904Y-58996009D01*
X49941904Y-58996009D02*
X49894285Y-58948390D01*
X49894285Y-58948390D02*
X49799047Y-58900771D01*
X49799047Y-58900771D02*
X49608571Y-58900771D01*
X49608571Y-58900771D02*
X49513333Y-58948390D01*
X49513333Y-58948390D02*
X49465714Y-58996009D01*
X49465714Y-58996009D02*
X49418095Y-59091247D01*
X122570476Y-59472200D02*
X122713333Y-59519819D01*
X122713333Y-59519819D02*
X122951428Y-59519819D01*
X122951428Y-59519819D02*
X123046666Y-59472200D01*
X123046666Y-59472200D02*
X123094285Y-59424580D01*
X123094285Y-59424580D02*
X123141904Y-59329342D01*
X123141904Y-59329342D02*
X123141904Y-59234104D01*
X123141904Y-59234104D02*
X123094285Y-59138866D01*
X123094285Y-59138866D02*
X123046666Y-59091247D01*
X123046666Y-59091247D02*
X122951428Y-59043628D01*
X122951428Y-59043628D02*
X122760952Y-58996009D01*
X122760952Y-58996009D02*
X122665714Y-58948390D01*
X122665714Y-58948390D02*
X122618095Y-58900771D01*
X122618095Y-58900771D02*
X122570476Y-58805533D01*
X122570476Y-58805533D02*
X122570476Y-58710295D01*
X122570476Y-58710295D02*
X122618095Y-58615057D01*
X122618095Y-58615057D02*
X122665714Y-58567438D01*
X122665714Y-58567438D02*
X122760952Y-58519819D01*
X122760952Y-58519819D02*
X122999047Y-58519819D01*
X122999047Y-58519819D02*
X123141904Y-58567438D01*
X123475238Y-58519819D02*
X123713333Y-59519819D01*
X123713333Y-59519819D02*
X123903809Y-58805533D01*
X123903809Y-58805533D02*
X124094285Y-59519819D01*
X124094285Y-59519819D02*
X124332381Y-58519819D01*
X124618095Y-58519819D02*
X125237142Y-58519819D01*
X125237142Y-58519819D02*
X124903809Y-58900771D01*
X124903809Y-58900771D02*
X125046666Y-58900771D01*
X125046666Y-58900771D02*
X125141904Y-58948390D01*
X125141904Y-58948390D02*
X125189523Y-58996009D01*
X125189523Y-58996009D02*
X125237142Y-59091247D01*
X125237142Y-59091247D02*
X125237142Y-59329342D01*
X125237142Y-59329342D02*
X125189523Y-59424580D01*
X125189523Y-59424580D02*
X125141904Y-59472200D01*
X125141904Y-59472200D02*
X125046666Y-59519819D01*
X125046666Y-59519819D02*
X124760952Y-59519819D01*
X124760952Y-59519819D02*
X124665714Y-59472200D01*
X124665714Y-59472200D02*
X124618095Y-59424580D01*
X125856190Y-58519819D02*
X125951428Y-58519819D01*
X125951428Y-58519819D02*
X126046666Y-58567438D01*
X126046666Y-58567438D02*
X126094285Y-58615057D01*
X126094285Y-58615057D02*
X126141904Y-58710295D01*
X126141904Y-58710295D02*
X126189523Y-58900771D01*
X126189523Y-58900771D02*
X126189523Y-59138866D01*
X126189523Y-59138866D02*
X126141904Y-59329342D01*
X126141904Y-59329342D02*
X126094285Y-59424580D01*
X126094285Y-59424580D02*
X126046666Y-59472200D01*
X126046666Y-59472200D02*
X125951428Y-59519819D01*
X125951428Y-59519819D02*
X125856190Y-59519819D01*
X125856190Y-59519819D02*
X125760952Y-59472200D01*
X125760952Y-59472200D02*
X125713333Y-59424580D01*
X125713333Y-59424580D02*
X125665714Y-59329342D01*
X125665714Y-59329342D02*
X125618095Y-59138866D01*
X125618095Y-59138866D02*
X125618095Y-58900771D01*
X125618095Y-58900771D02*
X125665714Y-58710295D01*
X125665714Y-58710295D02*
X125713333Y-58615057D01*
X125713333Y-58615057D02*
X125760952Y-58567438D01*
X125760952Y-58567438D02*
X125856190Y-58519819D01*
X160670476Y-40422200D02*
X160813333Y-40469819D01*
X160813333Y-40469819D02*
X161051428Y-40469819D01*
X161051428Y-40469819D02*
X161146666Y-40422200D01*
X161146666Y-40422200D02*
X161194285Y-40374580D01*
X161194285Y-40374580D02*
X161241904Y-40279342D01*
X161241904Y-40279342D02*
X161241904Y-40184104D01*
X161241904Y-40184104D02*
X161194285Y-40088866D01*
X161194285Y-40088866D02*
X161146666Y-40041247D01*
X161146666Y-40041247D02*
X161051428Y-39993628D01*
X161051428Y-39993628D02*
X160860952Y-39946009D01*
X160860952Y-39946009D02*
X160765714Y-39898390D01*
X160765714Y-39898390D02*
X160718095Y-39850771D01*
X160718095Y-39850771D02*
X160670476Y-39755533D01*
X160670476Y-39755533D02*
X160670476Y-39660295D01*
X160670476Y-39660295D02*
X160718095Y-39565057D01*
X160718095Y-39565057D02*
X160765714Y-39517438D01*
X160765714Y-39517438D02*
X160860952Y-39469819D01*
X160860952Y-39469819D02*
X161099047Y-39469819D01*
X161099047Y-39469819D02*
X161241904Y-39517438D01*
X161575238Y-39469819D02*
X161813333Y-40469819D01*
X161813333Y-40469819D02*
X162003809Y-39755533D01*
X162003809Y-39755533D02*
X162194285Y-40469819D01*
X162194285Y-40469819D02*
X162432381Y-39469819D01*
X163337142Y-40469819D02*
X162765714Y-40469819D01*
X163051428Y-40469819D02*
X163051428Y-39469819D01*
X163051428Y-39469819D02*
X162956190Y-39612676D01*
X162956190Y-39612676D02*
X162860952Y-39707914D01*
X162860952Y-39707914D02*
X162765714Y-39755533D01*
X163813333Y-40469819D02*
X164003809Y-40469819D01*
X164003809Y-40469819D02*
X164099047Y-40422200D01*
X164099047Y-40422200D02*
X164146666Y-40374580D01*
X164146666Y-40374580D02*
X164241904Y-40231723D01*
X164241904Y-40231723D02*
X164289523Y-40041247D01*
X164289523Y-40041247D02*
X164289523Y-39660295D01*
X164289523Y-39660295D02*
X164241904Y-39565057D01*
X164241904Y-39565057D02*
X164194285Y-39517438D01*
X164194285Y-39517438D02*
X164099047Y-39469819D01*
X164099047Y-39469819D02*
X163908571Y-39469819D01*
X163908571Y-39469819D02*
X163813333Y-39517438D01*
X163813333Y-39517438D02*
X163765714Y-39565057D01*
X163765714Y-39565057D02*
X163718095Y-39660295D01*
X163718095Y-39660295D02*
X163718095Y-39898390D01*
X163718095Y-39898390D02*
X163765714Y-39993628D01*
X163765714Y-39993628D02*
X163813333Y-40041247D01*
X163813333Y-40041247D02*
X163908571Y-40088866D01*
X163908571Y-40088866D02*
X164099047Y-40088866D01*
X164099047Y-40088866D02*
X164194285Y-40041247D01*
X164194285Y-40041247D02*
X164241904Y-39993628D01*
X164241904Y-39993628D02*
X164289523Y-39898390D01*
X179720476Y-59472200D02*
X179863333Y-59519819D01*
X179863333Y-59519819D02*
X180101428Y-59519819D01*
X180101428Y-59519819D02*
X180196666Y-59472200D01*
X180196666Y-59472200D02*
X180244285Y-59424580D01*
X180244285Y-59424580D02*
X180291904Y-59329342D01*
X180291904Y-59329342D02*
X180291904Y-59234104D01*
X180291904Y-59234104D02*
X180244285Y-59138866D01*
X180244285Y-59138866D02*
X180196666Y-59091247D01*
X180196666Y-59091247D02*
X180101428Y-59043628D01*
X180101428Y-59043628D02*
X179910952Y-58996009D01*
X179910952Y-58996009D02*
X179815714Y-58948390D01*
X179815714Y-58948390D02*
X179768095Y-58900771D01*
X179768095Y-58900771D02*
X179720476Y-58805533D01*
X179720476Y-58805533D02*
X179720476Y-58710295D01*
X179720476Y-58710295D02*
X179768095Y-58615057D01*
X179768095Y-58615057D02*
X179815714Y-58567438D01*
X179815714Y-58567438D02*
X179910952Y-58519819D01*
X179910952Y-58519819D02*
X180149047Y-58519819D01*
X180149047Y-58519819D02*
X180291904Y-58567438D01*
X180625238Y-58519819D02*
X180863333Y-59519819D01*
X180863333Y-59519819D02*
X181053809Y-58805533D01*
X181053809Y-58805533D02*
X181244285Y-59519819D01*
X181244285Y-59519819D02*
X181482381Y-58519819D01*
X181768095Y-58519819D02*
X182387142Y-58519819D01*
X182387142Y-58519819D02*
X182053809Y-58900771D01*
X182053809Y-58900771D02*
X182196666Y-58900771D01*
X182196666Y-58900771D02*
X182291904Y-58948390D01*
X182291904Y-58948390D02*
X182339523Y-58996009D01*
X182339523Y-58996009D02*
X182387142Y-59091247D01*
X182387142Y-59091247D02*
X182387142Y-59329342D01*
X182387142Y-59329342D02*
X182339523Y-59424580D01*
X182339523Y-59424580D02*
X182291904Y-59472200D01*
X182291904Y-59472200D02*
X182196666Y-59519819D01*
X182196666Y-59519819D02*
X181910952Y-59519819D01*
X181910952Y-59519819D02*
X181815714Y-59472200D01*
X181815714Y-59472200D02*
X181768095Y-59424580D01*
X182768095Y-58615057D02*
X182815714Y-58567438D01*
X182815714Y-58567438D02*
X182910952Y-58519819D01*
X182910952Y-58519819D02*
X183149047Y-58519819D01*
X183149047Y-58519819D02*
X183244285Y-58567438D01*
X183244285Y-58567438D02*
X183291904Y-58615057D01*
X183291904Y-58615057D02*
X183339523Y-58710295D01*
X183339523Y-58710295D02*
X183339523Y-58805533D01*
X183339523Y-58805533D02*
X183291904Y-58948390D01*
X183291904Y-58948390D02*
X182720476Y-59519819D01*
X182720476Y-59519819D02*
X183339523Y-59519819D01*
X255920476Y-59472200D02*
X256063333Y-59519819D01*
X256063333Y-59519819D02*
X256301428Y-59519819D01*
X256301428Y-59519819D02*
X256396666Y-59472200D01*
X256396666Y-59472200D02*
X256444285Y-59424580D01*
X256444285Y-59424580D02*
X256491904Y-59329342D01*
X256491904Y-59329342D02*
X256491904Y-59234104D01*
X256491904Y-59234104D02*
X256444285Y-59138866D01*
X256444285Y-59138866D02*
X256396666Y-59091247D01*
X256396666Y-59091247D02*
X256301428Y-59043628D01*
X256301428Y-59043628D02*
X256110952Y-58996009D01*
X256110952Y-58996009D02*
X256015714Y-58948390D01*
X256015714Y-58948390D02*
X255968095Y-58900771D01*
X255968095Y-58900771D02*
X255920476Y-58805533D01*
X255920476Y-58805533D02*
X255920476Y-58710295D01*
X255920476Y-58710295D02*
X255968095Y-58615057D01*
X255968095Y-58615057D02*
X256015714Y-58567438D01*
X256015714Y-58567438D02*
X256110952Y-58519819D01*
X256110952Y-58519819D02*
X256349047Y-58519819D01*
X256349047Y-58519819D02*
X256491904Y-58567438D01*
X256825238Y-58519819D02*
X257063333Y-59519819D01*
X257063333Y-59519819D02*
X257253809Y-58805533D01*
X257253809Y-58805533D02*
X257444285Y-59519819D01*
X257444285Y-59519819D02*
X257682381Y-58519819D01*
X257968095Y-58519819D02*
X258587142Y-58519819D01*
X258587142Y-58519819D02*
X258253809Y-58900771D01*
X258253809Y-58900771D02*
X258396666Y-58900771D01*
X258396666Y-58900771D02*
X258491904Y-58948390D01*
X258491904Y-58948390D02*
X258539523Y-58996009D01*
X258539523Y-58996009D02*
X258587142Y-59091247D01*
X258587142Y-59091247D02*
X258587142Y-59329342D01*
X258587142Y-59329342D02*
X258539523Y-59424580D01*
X258539523Y-59424580D02*
X258491904Y-59472200D01*
X258491904Y-59472200D02*
X258396666Y-59519819D01*
X258396666Y-59519819D02*
X258110952Y-59519819D01*
X258110952Y-59519819D02*
X258015714Y-59472200D01*
X258015714Y-59472200D02*
X257968095Y-59424580D01*
X259444285Y-58519819D02*
X259253809Y-58519819D01*
X259253809Y-58519819D02*
X259158571Y-58567438D01*
X259158571Y-58567438D02*
X259110952Y-58615057D01*
X259110952Y-58615057D02*
X259015714Y-58757914D01*
X259015714Y-58757914D02*
X258968095Y-58948390D01*
X258968095Y-58948390D02*
X258968095Y-59329342D01*
X258968095Y-59329342D02*
X259015714Y-59424580D01*
X259015714Y-59424580D02*
X259063333Y-59472200D01*
X259063333Y-59472200D02*
X259158571Y-59519819D01*
X259158571Y-59519819D02*
X259349047Y-59519819D01*
X259349047Y-59519819D02*
X259444285Y-59472200D01*
X259444285Y-59472200D02*
X259491904Y-59424580D01*
X259491904Y-59424580D02*
X259539523Y-59329342D01*
X259539523Y-59329342D02*
X259539523Y-59091247D01*
X259539523Y-59091247D02*
X259491904Y-58996009D01*
X259491904Y-58996009D02*
X259444285Y-58948390D01*
X259444285Y-58948390D02*
X259349047Y-58900771D01*
X259349047Y-58900771D02*
X259158571Y-58900771D01*
X259158571Y-58900771D02*
X259063333Y-58948390D01*
X259063333Y-58948390D02*
X259015714Y-58996009D01*
X259015714Y-58996009D02*
X258968095Y-59091247D01*
X65420476Y-59472200D02*
X65563333Y-59519819D01*
X65563333Y-59519819D02*
X65801428Y-59519819D01*
X65801428Y-59519819D02*
X65896666Y-59472200D01*
X65896666Y-59472200D02*
X65944285Y-59424580D01*
X65944285Y-59424580D02*
X65991904Y-59329342D01*
X65991904Y-59329342D02*
X65991904Y-59234104D01*
X65991904Y-59234104D02*
X65944285Y-59138866D01*
X65944285Y-59138866D02*
X65896666Y-59091247D01*
X65896666Y-59091247D02*
X65801428Y-59043628D01*
X65801428Y-59043628D02*
X65610952Y-58996009D01*
X65610952Y-58996009D02*
X65515714Y-58948390D01*
X65515714Y-58948390D02*
X65468095Y-58900771D01*
X65468095Y-58900771D02*
X65420476Y-58805533D01*
X65420476Y-58805533D02*
X65420476Y-58710295D01*
X65420476Y-58710295D02*
X65468095Y-58615057D01*
X65468095Y-58615057D02*
X65515714Y-58567438D01*
X65515714Y-58567438D02*
X65610952Y-58519819D01*
X65610952Y-58519819D02*
X65849047Y-58519819D01*
X65849047Y-58519819D02*
X65991904Y-58567438D01*
X66325238Y-58519819D02*
X66563333Y-59519819D01*
X66563333Y-59519819D02*
X66753809Y-58805533D01*
X66753809Y-58805533D02*
X66944285Y-59519819D01*
X66944285Y-59519819D02*
X67182381Y-58519819D01*
X67515714Y-58615057D02*
X67563333Y-58567438D01*
X67563333Y-58567438D02*
X67658571Y-58519819D01*
X67658571Y-58519819D02*
X67896666Y-58519819D01*
X67896666Y-58519819D02*
X67991904Y-58567438D01*
X67991904Y-58567438D02*
X68039523Y-58615057D01*
X68039523Y-58615057D02*
X68087142Y-58710295D01*
X68087142Y-58710295D02*
X68087142Y-58805533D01*
X68087142Y-58805533D02*
X68039523Y-58948390D01*
X68039523Y-58948390D02*
X67468095Y-59519819D01*
X67468095Y-59519819D02*
X68087142Y-59519819D01*
X68420476Y-58519819D02*
X69087142Y-58519819D01*
X69087142Y-58519819D02*
X68658571Y-59519819D01*
X84470476Y-59472200D02*
X84613333Y-59519819D01*
X84613333Y-59519819D02*
X84851428Y-59519819D01*
X84851428Y-59519819D02*
X84946666Y-59472200D01*
X84946666Y-59472200D02*
X84994285Y-59424580D01*
X84994285Y-59424580D02*
X85041904Y-59329342D01*
X85041904Y-59329342D02*
X85041904Y-59234104D01*
X85041904Y-59234104D02*
X84994285Y-59138866D01*
X84994285Y-59138866D02*
X84946666Y-59091247D01*
X84946666Y-59091247D02*
X84851428Y-59043628D01*
X84851428Y-59043628D02*
X84660952Y-58996009D01*
X84660952Y-58996009D02*
X84565714Y-58948390D01*
X84565714Y-58948390D02*
X84518095Y-58900771D01*
X84518095Y-58900771D02*
X84470476Y-58805533D01*
X84470476Y-58805533D02*
X84470476Y-58710295D01*
X84470476Y-58710295D02*
X84518095Y-58615057D01*
X84518095Y-58615057D02*
X84565714Y-58567438D01*
X84565714Y-58567438D02*
X84660952Y-58519819D01*
X84660952Y-58519819D02*
X84899047Y-58519819D01*
X84899047Y-58519819D02*
X85041904Y-58567438D01*
X85375238Y-58519819D02*
X85613333Y-59519819D01*
X85613333Y-59519819D02*
X85803809Y-58805533D01*
X85803809Y-58805533D02*
X85994285Y-59519819D01*
X85994285Y-59519819D02*
X86232381Y-58519819D01*
X86565714Y-58615057D02*
X86613333Y-58567438D01*
X86613333Y-58567438D02*
X86708571Y-58519819D01*
X86708571Y-58519819D02*
X86946666Y-58519819D01*
X86946666Y-58519819D02*
X87041904Y-58567438D01*
X87041904Y-58567438D02*
X87089523Y-58615057D01*
X87089523Y-58615057D02*
X87137142Y-58710295D01*
X87137142Y-58710295D02*
X87137142Y-58805533D01*
X87137142Y-58805533D02*
X87089523Y-58948390D01*
X87089523Y-58948390D02*
X86518095Y-59519819D01*
X86518095Y-59519819D02*
X87137142Y-59519819D01*
X87708571Y-58948390D02*
X87613333Y-58900771D01*
X87613333Y-58900771D02*
X87565714Y-58853152D01*
X87565714Y-58853152D02*
X87518095Y-58757914D01*
X87518095Y-58757914D02*
X87518095Y-58710295D01*
X87518095Y-58710295D02*
X87565714Y-58615057D01*
X87565714Y-58615057D02*
X87613333Y-58567438D01*
X87613333Y-58567438D02*
X87708571Y-58519819D01*
X87708571Y-58519819D02*
X87899047Y-58519819D01*
X87899047Y-58519819D02*
X87994285Y-58567438D01*
X87994285Y-58567438D02*
X88041904Y-58615057D01*
X88041904Y-58615057D02*
X88089523Y-58710295D01*
X88089523Y-58710295D02*
X88089523Y-58757914D01*
X88089523Y-58757914D02*
X88041904Y-58853152D01*
X88041904Y-58853152D02*
X87994285Y-58900771D01*
X87994285Y-58900771D02*
X87899047Y-58948390D01*
X87899047Y-58948390D02*
X87708571Y-58948390D01*
X87708571Y-58948390D02*
X87613333Y-58996009D01*
X87613333Y-58996009D02*
X87565714Y-59043628D01*
X87565714Y-59043628D02*
X87518095Y-59138866D01*
X87518095Y-59138866D02*
X87518095Y-59329342D01*
X87518095Y-59329342D02*
X87565714Y-59424580D01*
X87565714Y-59424580D02*
X87613333Y-59472200D01*
X87613333Y-59472200D02*
X87708571Y-59519819D01*
X87708571Y-59519819D02*
X87899047Y-59519819D01*
X87899047Y-59519819D02*
X87994285Y-59472200D01*
X87994285Y-59472200D02*
X88041904Y-59424580D01*
X88041904Y-59424580D02*
X88089523Y-59329342D01*
X88089523Y-59329342D02*
X88089523Y-59138866D01*
X88089523Y-59138866D02*
X88041904Y-59043628D01*
X88041904Y-59043628D02*
X87994285Y-58996009D01*
X87994285Y-58996009D02*
X87899047Y-58948390D01*
X198770476Y-59472200D02*
X198913333Y-59519819D01*
X198913333Y-59519819D02*
X199151428Y-59519819D01*
X199151428Y-59519819D02*
X199246666Y-59472200D01*
X199246666Y-59472200D02*
X199294285Y-59424580D01*
X199294285Y-59424580D02*
X199341904Y-59329342D01*
X199341904Y-59329342D02*
X199341904Y-59234104D01*
X199341904Y-59234104D02*
X199294285Y-59138866D01*
X199294285Y-59138866D02*
X199246666Y-59091247D01*
X199246666Y-59091247D02*
X199151428Y-59043628D01*
X199151428Y-59043628D02*
X198960952Y-58996009D01*
X198960952Y-58996009D02*
X198865714Y-58948390D01*
X198865714Y-58948390D02*
X198818095Y-58900771D01*
X198818095Y-58900771D02*
X198770476Y-58805533D01*
X198770476Y-58805533D02*
X198770476Y-58710295D01*
X198770476Y-58710295D02*
X198818095Y-58615057D01*
X198818095Y-58615057D02*
X198865714Y-58567438D01*
X198865714Y-58567438D02*
X198960952Y-58519819D01*
X198960952Y-58519819D02*
X199199047Y-58519819D01*
X199199047Y-58519819D02*
X199341904Y-58567438D01*
X199675238Y-58519819D02*
X199913333Y-59519819D01*
X199913333Y-59519819D02*
X200103809Y-58805533D01*
X200103809Y-58805533D02*
X200294285Y-59519819D01*
X200294285Y-59519819D02*
X200532381Y-58519819D01*
X200818095Y-58519819D02*
X201437142Y-58519819D01*
X201437142Y-58519819D02*
X201103809Y-58900771D01*
X201103809Y-58900771D02*
X201246666Y-58900771D01*
X201246666Y-58900771D02*
X201341904Y-58948390D01*
X201341904Y-58948390D02*
X201389523Y-58996009D01*
X201389523Y-58996009D02*
X201437142Y-59091247D01*
X201437142Y-59091247D02*
X201437142Y-59329342D01*
X201437142Y-59329342D02*
X201389523Y-59424580D01*
X201389523Y-59424580D02*
X201341904Y-59472200D01*
X201341904Y-59472200D02*
X201246666Y-59519819D01*
X201246666Y-59519819D02*
X200960952Y-59519819D01*
X200960952Y-59519819D02*
X200865714Y-59472200D01*
X200865714Y-59472200D02*
X200818095Y-59424580D01*
X201770476Y-58519819D02*
X202389523Y-58519819D01*
X202389523Y-58519819D02*
X202056190Y-58900771D01*
X202056190Y-58900771D02*
X202199047Y-58900771D01*
X202199047Y-58900771D02*
X202294285Y-58948390D01*
X202294285Y-58948390D02*
X202341904Y-58996009D01*
X202341904Y-58996009D02*
X202389523Y-59091247D01*
X202389523Y-59091247D02*
X202389523Y-59329342D01*
X202389523Y-59329342D02*
X202341904Y-59424580D01*
X202341904Y-59424580D02*
X202294285Y-59472200D01*
X202294285Y-59472200D02*
X202199047Y-59519819D01*
X202199047Y-59519819D02*
X201913333Y-59519819D01*
X201913333Y-59519819D02*
X201818095Y-59472200D01*
X201818095Y-59472200D02*
X201770476Y-59424580D01*
X103520476Y-59472200D02*
X103663333Y-59519819D01*
X103663333Y-59519819D02*
X103901428Y-59519819D01*
X103901428Y-59519819D02*
X103996666Y-59472200D01*
X103996666Y-59472200D02*
X104044285Y-59424580D01*
X104044285Y-59424580D02*
X104091904Y-59329342D01*
X104091904Y-59329342D02*
X104091904Y-59234104D01*
X104091904Y-59234104D02*
X104044285Y-59138866D01*
X104044285Y-59138866D02*
X103996666Y-59091247D01*
X103996666Y-59091247D02*
X103901428Y-59043628D01*
X103901428Y-59043628D02*
X103710952Y-58996009D01*
X103710952Y-58996009D02*
X103615714Y-58948390D01*
X103615714Y-58948390D02*
X103568095Y-58900771D01*
X103568095Y-58900771D02*
X103520476Y-58805533D01*
X103520476Y-58805533D02*
X103520476Y-58710295D01*
X103520476Y-58710295D02*
X103568095Y-58615057D01*
X103568095Y-58615057D02*
X103615714Y-58567438D01*
X103615714Y-58567438D02*
X103710952Y-58519819D01*
X103710952Y-58519819D02*
X103949047Y-58519819D01*
X103949047Y-58519819D02*
X104091904Y-58567438D01*
X104425238Y-58519819D02*
X104663333Y-59519819D01*
X104663333Y-59519819D02*
X104853809Y-58805533D01*
X104853809Y-58805533D02*
X105044285Y-59519819D01*
X105044285Y-59519819D02*
X105282381Y-58519819D01*
X105615714Y-58615057D02*
X105663333Y-58567438D01*
X105663333Y-58567438D02*
X105758571Y-58519819D01*
X105758571Y-58519819D02*
X105996666Y-58519819D01*
X105996666Y-58519819D02*
X106091904Y-58567438D01*
X106091904Y-58567438D02*
X106139523Y-58615057D01*
X106139523Y-58615057D02*
X106187142Y-58710295D01*
X106187142Y-58710295D02*
X106187142Y-58805533D01*
X106187142Y-58805533D02*
X106139523Y-58948390D01*
X106139523Y-58948390D02*
X105568095Y-59519819D01*
X105568095Y-59519819D02*
X106187142Y-59519819D01*
X106663333Y-59519819D02*
X106853809Y-59519819D01*
X106853809Y-59519819D02*
X106949047Y-59472200D01*
X106949047Y-59472200D02*
X106996666Y-59424580D01*
X106996666Y-59424580D02*
X107091904Y-59281723D01*
X107091904Y-59281723D02*
X107139523Y-59091247D01*
X107139523Y-59091247D02*
X107139523Y-58710295D01*
X107139523Y-58710295D02*
X107091904Y-58615057D01*
X107091904Y-58615057D02*
X107044285Y-58567438D01*
X107044285Y-58567438D02*
X106949047Y-58519819D01*
X106949047Y-58519819D02*
X106758571Y-58519819D01*
X106758571Y-58519819D02*
X106663333Y-58567438D01*
X106663333Y-58567438D02*
X106615714Y-58615057D01*
X106615714Y-58615057D02*
X106568095Y-58710295D01*
X106568095Y-58710295D02*
X106568095Y-58948390D01*
X106568095Y-58948390D02*
X106615714Y-59043628D01*
X106615714Y-59043628D02*
X106663333Y-59091247D01*
X106663333Y-59091247D02*
X106758571Y-59138866D01*
X106758571Y-59138866D02*
X106949047Y-59138866D01*
X106949047Y-59138866D02*
X107044285Y-59091247D01*
X107044285Y-59091247D02*
X107091904Y-59043628D01*
X107091904Y-59043628D02*
X107139523Y-58948390D01*
D11*
%TO.C,U1*%
X134590000Y-19695000D02*
X134590000Y-22695000D01*
X134590000Y-19695000D02*
X137590000Y-19695000D01*
X134590000Y-49695000D02*
X134590000Y-52695000D01*
X134590000Y-52695000D02*
X134590000Y-49695000D01*
X134590000Y-52695000D02*
X137590000Y-52695000D01*
X137590000Y-19695000D02*
X134590000Y-19695000D01*
X138990000Y-19695000D02*
X138990000Y-25495000D01*
X138990000Y-25495000D02*
X147990000Y-25495000D01*
X147990000Y-25495000D02*
X147990000Y-19695000D01*
X152370000Y-19695000D02*
X149370000Y-19695000D01*
X152370000Y-19695000D02*
X152370000Y-22695000D01*
X152370000Y-52695000D02*
X149370000Y-52695000D01*
X152370000Y-52695000D02*
X152370000Y-49695000D01*
D12*
%TO.C,SW34*%
X212630000Y-61320000D02*
X212630000Y-60320000D01*
X212630000Y-74320000D02*
X212630000Y-73320000D01*
X212630000Y-74320000D02*
X213630000Y-74320000D01*
X213630000Y-60320000D02*
X212630000Y-60320000D01*
X225630000Y-74320000D02*
X226630000Y-74320000D01*
X226630000Y-60320000D02*
X225630000Y-60320000D01*
X226630000Y-60320000D02*
X226630000Y-61320000D01*
X226630000Y-73320000D02*
X226630000Y-74320000D01*
%TO.C,SW2*%
X41180000Y-23220000D02*
X41180000Y-22220000D01*
X41180000Y-36220000D02*
X41180000Y-35220000D01*
X41180000Y-36220000D02*
X42180000Y-36220000D01*
X42180000Y-22220000D02*
X41180000Y-22220000D01*
X54180000Y-36220000D02*
X55180000Y-36220000D01*
X55180000Y-22220000D02*
X54180000Y-22220000D01*
X55180000Y-22220000D02*
X55180000Y-23220000D01*
X55180000Y-35220000D02*
X55180000Y-36220000D01*
%TO.C,SW13*%
X22130000Y-42270000D02*
X22130000Y-41270000D01*
X22130000Y-55270000D02*
X22130000Y-54270000D01*
X22130000Y-55270000D02*
X23130000Y-55270000D01*
X23130000Y-41270000D02*
X22130000Y-41270000D01*
X35130000Y-55270000D02*
X36130000Y-55270000D01*
X36130000Y-41270000D02*
X35130000Y-41270000D01*
X36130000Y-41270000D02*
X36130000Y-42270000D01*
X36130000Y-54270000D02*
X36130000Y-55270000D01*
%TO.C,SW38*%
X41180000Y-80370000D02*
X41180000Y-79370000D01*
X41180000Y-93370000D02*
X41180000Y-92370000D01*
X41180000Y-93370000D02*
X42180000Y-93370000D01*
X42180000Y-79370000D02*
X41180000Y-79370000D01*
X54180000Y-93370000D02*
X55180000Y-93370000D01*
X55180000Y-79370000D02*
X54180000Y-79370000D01*
X55180000Y-79370000D02*
X55180000Y-80370000D01*
X55180000Y-92370000D02*
X55180000Y-93370000D01*
%TO.C,SW40*%
X79280000Y-80370000D02*
X79280000Y-79370000D01*
X79280000Y-93370000D02*
X79280000Y-92370000D01*
X79280000Y-93370000D02*
X80280000Y-93370000D01*
X80280000Y-79370000D02*
X79280000Y-79370000D01*
X92280000Y-93370000D02*
X93280000Y-93370000D01*
X93280000Y-79370000D02*
X92280000Y-79370000D01*
X93280000Y-79370000D02*
X93280000Y-80370000D01*
X93280000Y-92370000D02*
X93280000Y-93370000D01*
%TO.C,SW37*%
X22130000Y-80370000D02*
X22130000Y-79370000D01*
X22130000Y-93370000D02*
X22130000Y-92370000D01*
X22130000Y-93370000D02*
X23130000Y-93370000D01*
X23130000Y-79370000D02*
X22130000Y-79370000D01*
X35130000Y-93370000D02*
X36130000Y-93370000D01*
X36130000Y-79370000D02*
X35130000Y-79370000D01*
X36130000Y-79370000D02*
X36130000Y-80370000D01*
X36130000Y-92370000D02*
X36130000Y-93370000D01*
%TO.C,SW11*%
X231680000Y-23210000D02*
X231680000Y-22210000D01*
X231680000Y-36210000D02*
X231680000Y-35210000D01*
X231680000Y-36210000D02*
X232680000Y-36210000D01*
X232680000Y-22210000D02*
X231680000Y-22210000D01*
X244680000Y-36210000D02*
X245680000Y-36210000D01*
X245680000Y-22210000D02*
X244680000Y-22210000D01*
X245680000Y-22210000D02*
X245680000Y-23210000D01*
X245680000Y-35210000D02*
X245680000Y-36210000D01*
%TO.C,SW22*%
X212630000Y-42270000D02*
X212630000Y-41270000D01*
X212630000Y-55270000D02*
X212630000Y-54270000D01*
X212630000Y-55270000D02*
X213630000Y-55270000D01*
X213630000Y-41270000D02*
X212630000Y-41270000D01*
X225630000Y-55270000D02*
X226630000Y-55270000D01*
X226630000Y-41270000D02*
X225630000Y-41270000D01*
X226630000Y-41270000D02*
X226630000Y-42270000D01*
X226630000Y-54270000D02*
X226630000Y-55270000D01*
%TO.C,SW42*%
X117380000Y-80370000D02*
X117380000Y-79370000D01*
X117380000Y-93370000D02*
X117380000Y-92370000D01*
X117380000Y-93370000D02*
X118380000Y-93370000D01*
X118380000Y-79370000D02*
X117380000Y-79370000D01*
X130380000Y-93370000D02*
X131380000Y-93370000D01*
X131380000Y-79370000D02*
X130380000Y-79370000D01*
X131380000Y-79370000D02*
X131380000Y-80370000D01*
X131380000Y-92370000D02*
X131380000Y-93370000D01*
%TO.C,SW16*%
X79280000Y-42270000D02*
X79280000Y-41270000D01*
X79280000Y-55270000D02*
X79280000Y-54270000D01*
X79280000Y-55270000D02*
X80280000Y-55270000D01*
X80280000Y-41270000D02*
X79280000Y-41270000D01*
X92280000Y-55270000D02*
X93280000Y-55270000D01*
X93280000Y-41270000D02*
X92280000Y-41270000D01*
X93280000Y-41270000D02*
X93280000Y-42270000D01*
X93280000Y-54270000D02*
X93280000Y-55270000D01*
%TO.C,SW24*%
X250730000Y-42270000D02*
X250730000Y-41270000D01*
X250730000Y-55270000D02*
X250730000Y-54270000D01*
X250730000Y-55270000D02*
X251730000Y-55270000D01*
X251730000Y-41270000D02*
X250730000Y-41270000D01*
X263730000Y-55270000D02*
X264730000Y-55270000D01*
X264730000Y-41270000D02*
X263730000Y-41270000D01*
X264730000Y-41270000D02*
X264730000Y-42270000D01*
X264730000Y-54270000D02*
X264730000Y-55270000D01*
%TO.C,SW20*%
X174530000Y-42270000D02*
X174530000Y-41270000D01*
X174530000Y-55270000D02*
X174530000Y-54270000D01*
X174530000Y-55270000D02*
X175530000Y-55270000D01*
X175530000Y-41270000D02*
X174530000Y-41270000D01*
X187530000Y-55270000D02*
X188530000Y-55270000D01*
X188530000Y-41270000D02*
X187530000Y-41270000D01*
X188530000Y-41270000D02*
X188530000Y-42270000D01*
X188530000Y-54270000D02*
X188530000Y-55270000D01*
%TO.C,SW35*%
X231680000Y-61320000D02*
X231680000Y-60320000D01*
X231680000Y-74320000D02*
X231680000Y-73320000D01*
X231680000Y-74320000D02*
X232680000Y-74320000D01*
X232680000Y-60320000D02*
X231680000Y-60320000D01*
X244680000Y-74320000D02*
X245680000Y-74320000D01*
X245680000Y-60320000D02*
X244680000Y-60320000D01*
X245680000Y-60320000D02*
X245680000Y-61320000D01*
X245680000Y-73320000D02*
X245680000Y-74320000D01*
%TO.C,SW7*%
X155480000Y-23220000D02*
X155480000Y-22220000D01*
X155480000Y-36220000D02*
X155480000Y-35220000D01*
X155480000Y-36220000D02*
X156480000Y-36220000D01*
X156480000Y-22220000D02*
X155480000Y-22220000D01*
X168480000Y-36220000D02*
X169480000Y-36220000D01*
X169480000Y-22220000D02*
X168480000Y-22220000D01*
X169480000Y-22220000D02*
X169480000Y-23220000D01*
X169480000Y-35220000D02*
X169480000Y-36220000D01*
%TO.C,SW14*%
X41180000Y-42270000D02*
X41180000Y-41270000D01*
X41180000Y-55270000D02*
X41180000Y-54270000D01*
X41180000Y-55270000D02*
X42180000Y-55270000D01*
X42180000Y-41270000D02*
X41180000Y-41270000D01*
X54180000Y-55270000D02*
X55180000Y-55270000D01*
X55180000Y-41270000D02*
X54180000Y-41270000D01*
X55180000Y-41270000D02*
X55180000Y-42270000D01*
X55180000Y-54270000D02*
X55180000Y-55270000D01*
%TO.C,SW3*%
X60230000Y-23220000D02*
X60230000Y-22220000D01*
X60230000Y-36220000D02*
X60230000Y-35220000D01*
X60230000Y-36220000D02*
X61230000Y-36220000D01*
X61230000Y-22220000D02*
X60230000Y-22220000D01*
X73230000Y-36220000D02*
X74230000Y-36220000D01*
X74230000Y-22220000D02*
X73230000Y-22220000D01*
X74230000Y-22220000D02*
X74230000Y-23220000D01*
X74230000Y-35220000D02*
X74230000Y-36220000D01*
%TO.C,SW44*%
X174530000Y-80370000D02*
X174530000Y-79370000D01*
X174530000Y-93370000D02*
X174530000Y-92370000D01*
X174530000Y-93370000D02*
X175530000Y-93370000D01*
X175530000Y-79370000D02*
X174530000Y-79370000D01*
X187530000Y-93370000D02*
X188530000Y-93370000D01*
X188530000Y-79370000D02*
X187530000Y-79370000D01*
X188530000Y-79370000D02*
X188530000Y-80370000D01*
X188530000Y-92370000D02*
X188530000Y-93370000D01*
%TO.C,SW4*%
X79280000Y-23220000D02*
X79280000Y-22220000D01*
X79280000Y-36220000D02*
X79280000Y-35220000D01*
X79280000Y-36220000D02*
X80280000Y-36220000D01*
X80280000Y-22220000D02*
X79280000Y-22220000D01*
X92280000Y-36220000D02*
X93280000Y-36220000D01*
X93280000Y-22220000D02*
X92280000Y-22220000D01*
X93280000Y-22220000D02*
X93280000Y-23220000D01*
X93280000Y-35220000D02*
X93280000Y-36220000D01*
%TO.C,SW9*%
X193580000Y-23220000D02*
X193580000Y-22220000D01*
X193580000Y-36220000D02*
X193580000Y-35220000D01*
X193580000Y-36220000D02*
X194580000Y-36220000D01*
X194580000Y-22220000D02*
X193580000Y-22220000D01*
X206580000Y-36220000D02*
X207580000Y-36220000D01*
X207580000Y-22220000D02*
X206580000Y-22220000D01*
X207580000Y-22220000D02*
X207580000Y-23220000D01*
X207580000Y-35220000D02*
X207580000Y-36220000D01*
%TO.C,SW10*%
X212630000Y-23220000D02*
X212630000Y-22220000D01*
X212630000Y-36220000D02*
X212630000Y-35220000D01*
X212630000Y-36220000D02*
X213630000Y-36220000D01*
X213630000Y-22220000D02*
X212630000Y-22220000D01*
X225630000Y-36220000D02*
X226630000Y-36220000D01*
X226630000Y-22220000D02*
X225630000Y-22220000D01*
X226630000Y-22220000D02*
X226630000Y-23220000D01*
X226630000Y-35220000D02*
X226630000Y-36220000D01*
%TO.C,SW31*%
X155480000Y-61320000D02*
X155480000Y-60320000D01*
X155480000Y-74320000D02*
X155480000Y-73320000D01*
X155480000Y-74320000D02*
X156480000Y-74320000D01*
X156480000Y-60320000D02*
X155480000Y-60320000D01*
X168480000Y-74320000D02*
X169480000Y-74320000D01*
X169480000Y-60320000D02*
X168480000Y-60320000D01*
X169480000Y-60320000D02*
X169480000Y-61320000D01*
X169480000Y-73320000D02*
X169480000Y-74320000D01*
%TO.C,SW12*%
X250730000Y-23220000D02*
X250730000Y-22220000D01*
X250730000Y-36220000D02*
X250730000Y-35220000D01*
X250730000Y-36220000D02*
X251730000Y-36220000D01*
X251730000Y-22220000D02*
X250730000Y-22220000D01*
X263730000Y-36220000D02*
X264730000Y-36220000D01*
X264730000Y-22220000D02*
X263730000Y-22220000D01*
X264730000Y-22220000D02*
X264730000Y-23220000D01*
X264730000Y-35220000D02*
X264730000Y-36220000D01*
%TO.C,SW21*%
X193580000Y-42270000D02*
X193580000Y-41270000D01*
X193580000Y-55270000D02*
X193580000Y-54270000D01*
X193580000Y-55270000D02*
X194580000Y-55270000D01*
X194580000Y-41270000D02*
X193580000Y-41270000D01*
X206580000Y-55270000D02*
X207580000Y-55270000D01*
X207580000Y-41270000D02*
X206580000Y-41270000D01*
X207580000Y-41270000D02*
X207580000Y-42270000D01*
X207580000Y-54270000D02*
X207580000Y-55270000D01*
%TO.C,SW25*%
X22130000Y-61320000D02*
X22130000Y-60320000D01*
X22130000Y-74320000D02*
X22130000Y-73320000D01*
X22130000Y-74320000D02*
X23130000Y-74320000D01*
X23130000Y-60320000D02*
X22130000Y-60320000D01*
X35130000Y-74320000D02*
X36130000Y-74320000D01*
X36130000Y-60320000D02*
X35130000Y-60320000D01*
X36130000Y-60320000D02*
X36130000Y-61320000D01*
X36130000Y-73320000D02*
X36130000Y-74320000D01*
%TO.C,SW48*%
X250730000Y-80370000D02*
X250730000Y-79370000D01*
X250730000Y-93370000D02*
X250730000Y-92370000D01*
X250730000Y-93370000D02*
X251730000Y-93370000D01*
X251730000Y-79370000D02*
X250730000Y-79370000D01*
X263730000Y-93370000D02*
X264730000Y-93370000D01*
X264730000Y-79370000D02*
X263730000Y-79370000D01*
X264730000Y-79370000D02*
X264730000Y-80370000D01*
X264730000Y-92370000D02*
X264730000Y-93370000D01*
%TO.C,SW43*%
X155480000Y-80370000D02*
X155480000Y-79370000D01*
X155480000Y-93370000D02*
X155480000Y-92370000D01*
X155480000Y-93370000D02*
X156480000Y-93370000D01*
X156480000Y-79370000D02*
X155480000Y-79370000D01*
X168480000Y-93370000D02*
X169480000Y-93370000D01*
X169480000Y-79370000D02*
X168480000Y-79370000D01*
X169480000Y-79370000D02*
X169480000Y-80370000D01*
X169480000Y-92370000D02*
X169480000Y-93370000D01*
%TO.C,SW6*%
X117380000Y-23220000D02*
X117380000Y-22220000D01*
X117380000Y-36220000D02*
X117380000Y-35220000D01*
X117380000Y-36220000D02*
X118380000Y-36220000D01*
X118380000Y-22220000D02*
X117380000Y-22220000D01*
X130380000Y-36220000D02*
X131380000Y-36220000D01*
X131380000Y-22220000D02*
X130380000Y-22220000D01*
X131380000Y-22220000D02*
X131380000Y-23220000D01*
X131380000Y-35220000D02*
X131380000Y-36220000D01*
%TO.C,SW47*%
X231680000Y-80370000D02*
X231680000Y-79370000D01*
X231680000Y-93370000D02*
X231680000Y-92370000D01*
X231680000Y-93370000D02*
X232680000Y-93370000D01*
X232680000Y-79370000D02*
X231680000Y-79370000D01*
X244680000Y-93370000D02*
X245680000Y-93370000D01*
X245680000Y-79370000D02*
X244680000Y-79370000D01*
X245680000Y-79370000D02*
X245680000Y-80370000D01*
X245680000Y-92370000D02*
X245680000Y-93370000D01*
%TO.C,SW23*%
X231680000Y-42270000D02*
X231680000Y-41270000D01*
X231680000Y-55270000D02*
X231680000Y-54270000D01*
X231680000Y-55270000D02*
X232680000Y-55270000D01*
X232680000Y-41270000D02*
X231680000Y-41270000D01*
X244680000Y-55270000D02*
X245680000Y-55270000D01*
X245680000Y-41270000D02*
X244680000Y-41270000D01*
X245680000Y-41270000D02*
X245680000Y-42270000D01*
X245680000Y-54270000D02*
X245680000Y-55270000D01*
%TO.C,SW8*%
X174530000Y-23220000D02*
X174530000Y-22220000D01*
X174530000Y-36220000D02*
X174530000Y-35220000D01*
X174530000Y-36220000D02*
X175530000Y-36220000D01*
X175530000Y-22220000D02*
X174530000Y-22220000D01*
X187530000Y-36220000D02*
X188530000Y-36220000D01*
X188530000Y-22220000D02*
X187530000Y-22220000D01*
X188530000Y-22220000D02*
X188530000Y-23220000D01*
X188530000Y-35220000D02*
X188530000Y-36220000D01*
%TO.C,SW41*%
X98330000Y-80370000D02*
X98330000Y-79370000D01*
X98330000Y-93370000D02*
X98330000Y-92370000D01*
X98330000Y-93370000D02*
X99330000Y-93370000D01*
X99330000Y-79370000D02*
X98330000Y-79370000D01*
X111330000Y-93370000D02*
X112330000Y-93370000D01*
X112330000Y-79370000D02*
X111330000Y-79370000D01*
X112330000Y-79370000D02*
X112330000Y-80370000D01*
X112330000Y-92370000D02*
X112330000Y-93370000D01*
%TO.C,SW1*%
X22130000Y-23220000D02*
X22130000Y-22220000D01*
X22130000Y-36220000D02*
X22130000Y-35220000D01*
X22130000Y-36220000D02*
X23130000Y-36220000D01*
X23130000Y-22220000D02*
X22130000Y-22220000D01*
X35130000Y-36220000D02*
X36130000Y-36220000D01*
X36130000Y-22220000D02*
X35130000Y-22220000D01*
X36130000Y-22220000D02*
X36130000Y-23220000D01*
X36130000Y-35220000D02*
X36130000Y-36220000D01*
%TO.C,SW17*%
X98330000Y-42270000D02*
X98330000Y-41270000D01*
X98330000Y-55270000D02*
X98330000Y-54270000D01*
X98330000Y-55270000D02*
X99330000Y-55270000D01*
X99330000Y-41270000D02*
X98330000Y-41270000D01*
X111330000Y-55270000D02*
X112330000Y-55270000D01*
X112330000Y-41270000D02*
X111330000Y-41270000D01*
X112330000Y-41270000D02*
X112330000Y-42270000D01*
X112330000Y-54270000D02*
X112330000Y-55270000D01*
%TO.C,SW18*%
X117380000Y-42270000D02*
X117380000Y-41270000D01*
X117380000Y-55270000D02*
X117380000Y-54270000D01*
X117380000Y-55270000D02*
X118380000Y-55270000D01*
X118380000Y-41270000D02*
X117380000Y-41270000D01*
X130380000Y-55270000D02*
X131380000Y-55270000D01*
X131380000Y-41270000D02*
X130380000Y-41270000D01*
X131380000Y-41270000D02*
X131380000Y-42270000D01*
X131380000Y-54270000D02*
X131380000Y-55270000D01*
%TO.C,SW46*%
X212630000Y-80370000D02*
X212630000Y-79370000D01*
X212630000Y-93370000D02*
X212630000Y-92370000D01*
X212630000Y-93370000D02*
X213630000Y-93370000D01*
X213630000Y-79370000D02*
X212630000Y-79370000D01*
X225630000Y-93370000D02*
X226630000Y-93370000D01*
X226630000Y-79370000D02*
X225630000Y-79370000D01*
X226630000Y-79370000D02*
X226630000Y-80370000D01*
X226630000Y-92370000D02*
X226630000Y-93370000D01*
%TO.C,SW5*%
X98330000Y-23220000D02*
X98330000Y-22220000D01*
X98330000Y-36220000D02*
X98330000Y-35220000D01*
X98330000Y-36220000D02*
X99330000Y-36220000D01*
X99330000Y-22220000D02*
X98330000Y-22220000D01*
X111330000Y-36220000D02*
X112330000Y-36220000D01*
X112330000Y-22220000D02*
X111330000Y-22220000D01*
X112330000Y-22220000D02*
X112330000Y-23220000D01*
X112330000Y-35220000D02*
X112330000Y-36220000D01*
%TO.C,SW15*%
X60230000Y-42270000D02*
X60230000Y-41270000D01*
X60230000Y-55270000D02*
X60230000Y-54270000D01*
X60230000Y-55270000D02*
X61230000Y-55270000D01*
X61230000Y-41270000D02*
X60230000Y-41270000D01*
X73230000Y-55270000D02*
X74230000Y-55270000D01*
X74230000Y-41270000D02*
X73230000Y-41270000D01*
X74230000Y-41270000D02*
X74230000Y-42270000D01*
X74230000Y-54270000D02*
X74230000Y-55270000D01*
%TO.C,SW39*%
X60230000Y-80370000D02*
X60230000Y-79370000D01*
X60230000Y-93370000D02*
X60230000Y-92370000D01*
X60230000Y-93370000D02*
X61230000Y-93370000D01*
X61230000Y-79370000D02*
X60230000Y-79370000D01*
X73230000Y-93370000D02*
X74230000Y-93370000D01*
X74230000Y-79370000D02*
X73230000Y-79370000D01*
X74230000Y-79370000D02*
X74230000Y-80370000D01*
X74230000Y-92370000D02*
X74230000Y-93370000D01*
%TO.C,SW45*%
X193580000Y-80370000D02*
X193580000Y-79370000D01*
X193580000Y-93370000D02*
X193580000Y-92370000D01*
X193580000Y-93370000D02*
X194580000Y-93370000D01*
X194580000Y-79370000D02*
X193580000Y-79370000D01*
X206580000Y-93370000D02*
X207580000Y-93370000D01*
X207580000Y-79370000D02*
X206580000Y-79370000D01*
X207580000Y-79370000D02*
X207580000Y-80370000D01*
X207580000Y-92370000D02*
X207580000Y-93370000D01*
D13*
%TO.C,SW49*%
X135518500Y-82006000D02*
X136118500Y-82006000D01*
X135818500Y-82306000D02*
X135518500Y-82006000D01*
X136118500Y-82006000D02*
X135818500Y-82306000D01*
D12*
%TO.C,SW26*%
X41180000Y-61320000D02*
X41180000Y-60320000D01*
X41180000Y-74320000D02*
X41180000Y-73320000D01*
X41180000Y-74320000D02*
X42180000Y-74320000D01*
X42180000Y-60320000D02*
X41180000Y-60320000D01*
X54180000Y-74320000D02*
X55180000Y-74320000D01*
X55180000Y-60320000D02*
X54180000Y-60320000D01*
X55180000Y-60320000D02*
X55180000Y-61320000D01*
X55180000Y-73320000D02*
X55180000Y-74320000D01*
%TO.C,SW30*%
X117380000Y-61320000D02*
X117380000Y-60320000D01*
X117380000Y-74320000D02*
X117380000Y-73320000D01*
X117380000Y-74320000D02*
X118380000Y-74320000D01*
X118380000Y-60320000D02*
X117380000Y-60320000D01*
X130380000Y-74320000D02*
X131380000Y-74320000D01*
X131380000Y-60320000D02*
X130380000Y-60320000D01*
X131380000Y-60320000D02*
X131380000Y-61320000D01*
X131380000Y-73320000D02*
X131380000Y-74320000D01*
%TO.C,SW19*%
X155480000Y-42270000D02*
X155480000Y-41270000D01*
X155480000Y-55270000D02*
X155480000Y-54270000D01*
X155480000Y-55270000D02*
X156480000Y-55270000D01*
X156480000Y-41270000D02*
X155480000Y-41270000D01*
X168480000Y-55270000D02*
X169480000Y-55270000D01*
X169480000Y-41270000D02*
X168480000Y-41270000D01*
X169480000Y-41270000D02*
X169480000Y-42270000D01*
X169480000Y-54270000D02*
X169480000Y-55270000D01*
%TO.C,SW32*%
X174530000Y-61320000D02*
X174530000Y-60320000D01*
X174530000Y-74320000D02*
X174530000Y-73320000D01*
X174530000Y-74320000D02*
X175530000Y-74320000D01*
X175530000Y-60320000D02*
X174530000Y-60320000D01*
X187530000Y-74320000D02*
X188530000Y-74320000D01*
X188530000Y-60320000D02*
X187530000Y-60320000D01*
X188530000Y-60320000D02*
X188530000Y-61320000D01*
X188530000Y-73320000D02*
X188530000Y-74320000D01*
%TO.C,SW36*%
X250730000Y-61320000D02*
X250730000Y-60320000D01*
X250730000Y-74320000D02*
X250730000Y-73320000D01*
X250730000Y-74320000D02*
X251730000Y-74320000D01*
X251730000Y-60320000D02*
X250730000Y-60320000D01*
X263730000Y-74320000D02*
X264730000Y-74320000D01*
X264730000Y-60320000D02*
X263730000Y-60320000D01*
X264730000Y-60320000D02*
X264730000Y-61320000D01*
X264730000Y-73320000D02*
X264730000Y-74320000D01*
%TO.C,SW27*%
X60230000Y-61320000D02*
X60230000Y-60320000D01*
X60230000Y-74320000D02*
X60230000Y-73320000D01*
X60230000Y-74320000D02*
X61230000Y-74320000D01*
X61230000Y-60320000D02*
X60230000Y-60320000D01*
X73230000Y-74320000D02*
X74230000Y-74320000D01*
X74230000Y-60320000D02*
X73230000Y-60320000D01*
X74230000Y-60320000D02*
X74230000Y-61320000D01*
X74230000Y-73320000D02*
X74230000Y-74320000D01*
%TO.C,SW28*%
X79280000Y-61320000D02*
X79280000Y-60320000D01*
X79280000Y-74320000D02*
X79280000Y-73320000D01*
X79280000Y-74320000D02*
X80280000Y-74320000D01*
X80280000Y-60320000D02*
X79280000Y-60320000D01*
X92280000Y-74320000D02*
X93280000Y-74320000D01*
X93280000Y-60320000D02*
X92280000Y-60320000D01*
X93280000Y-60320000D02*
X93280000Y-61320000D01*
X93280000Y-73320000D02*
X93280000Y-74320000D01*
%TO.C,SW33*%
X193580000Y-61320000D02*
X193580000Y-60320000D01*
X193580000Y-74320000D02*
X193580000Y-73320000D01*
X193580000Y-74320000D02*
X194580000Y-74320000D01*
X194580000Y-60320000D02*
X193580000Y-60320000D01*
X206580000Y-74320000D02*
X207580000Y-74320000D01*
X207580000Y-60320000D02*
X206580000Y-60320000D01*
X207580000Y-60320000D02*
X207580000Y-61320000D01*
X207580000Y-73320000D02*
X207580000Y-74320000D01*
%TO.C,SW29*%
X98330000Y-61320000D02*
X98330000Y-60320000D01*
X98330000Y-74320000D02*
X98330000Y-73320000D01*
X98330000Y-74320000D02*
X99330000Y-74320000D01*
X99330000Y-60320000D02*
X98330000Y-60320000D01*
X111330000Y-74320000D02*
X112330000Y-74320000D01*
X112330000Y-60320000D02*
X111330000Y-60320000D01*
X112330000Y-60320000D02*
X112330000Y-61320000D01*
X112330000Y-73320000D02*
X112330000Y-74320000D01*
%TD*%
M02*
