M48
; DRILL file {KiCad 9.0.2} date 2025-10-16T10:54:43+0300
; FORMAT={-:-/ absolute / metric / decimal}
; #@! TF.CreationDate,2025-10-16T10:54:43+03:00
; #@! TF.GenerationSoftware,Kicad,Pcbnew,9.0.2
; #@! TF.FileFunction,Plated,1,2,PTH
FMAT,2
METRIC
; #@! TA.AperFunction,Plated,PTH,ViaDrill
T1C0.300
; #@! TA.AperFunction,Plated,PTH,ComponentDrill
T2C0.762
; #@! TA.AperFunction,Plated,PTH,ComponentDrill
T3C1.270
%
G90
G05
T1
X33.02Y-38.735
X33.02Y-73.66
X38.735Y-40.005
X38.735Y-75.565
X76.835Y-40.005
X76.835Y-75.565
X97.79Y-20.955
X114.935Y-40.005
X114.935Y-75.565
X120.015Y-23.495
X127.0Y-27.305
X130.175Y-92.075
X132.08Y-37.465
X132.08Y-50.8
X132.7Y-69.828
X132.715Y-40.005
X133.35Y-41.91
X138.43Y-67.225
X138.43Y-77.47
X140.97Y-67.193
X140.97Y-77.47
X146.05Y-67.31
X146.05Y-77.47
X148.59Y-67.31
X151.765Y-86.36
X153.67Y-80.01
X154.94Y-95.675
X155.702Y-58.166
X159.385Y-36.195
X172.0Y-29.93
X172.085Y-40.005
X172.085Y-75.565
X178.308Y-95.504
X188.595Y-27.155
X197.993Y-94.996
X210.185Y-75.565
X210.19Y-39.891
X216.535Y-94.474
X235.585Y-93.586
X248.285Y-40.005
X248.285Y-75.565
X254.635Y-40.64
X254.635Y-78.105
T2
X135.84Y-23.495
X135.84Y-26.035
X135.84Y-28.575
X135.84Y-31.115
X135.84Y-33.655
X135.84Y-36.195
X135.84Y-38.735
X135.84Y-41.275
X135.84Y-43.815
X135.84Y-46.355
X135.84Y-48.895
X135.84Y-51.435
X135.89Y-20.955
X138.38Y-51.435
X140.92Y-51.435
X143.46Y-51.435
X146.0Y-51.435
X148.54Y-51.435
X151.08Y-20.955
X151.08Y-23.495
X151.08Y-26.035
X151.08Y-28.575
X151.08Y-31.115
X151.08Y-33.655
X151.08Y-36.195
X151.08Y-38.735
X151.08Y-41.275
X151.08Y-43.815
X151.08Y-46.355
X151.08Y-48.895
X151.08Y-51.435
T3
X24.13Y-33.02
X24.13Y-52.07
X24.13Y-71.12
X24.13Y-90.17
X29.13Y-35.12
X29.13Y-54.17
X29.13Y-73.22
X29.13Y-92.27
X43.18Y-33.02
X43.18Y-52.07
X43.18Y-71.12
X43.18Y-90.17
X48.18Y-35.12
X48.18Y-54.17
X48.18Y-73.22
X48.18Y-92.27
X62.23Y-33.02
X62.23Y-52.07
X62.23Y-71.12
X62.23Y-90.17
X67.23Y-35.12
X67.23Y-54.17
X67.23Y-73.22
X67.23Y-92.27
X81.28Y-33.02
X81.28Y-52.07
X81.28Y-71.12
X81.28Y-90.17
X86.28Y-35.12
X86.28Y-54.17
X86.28Y-73.22
X86.28Y-92.27
X100.33Y-33.02
X100.33Y-52.07
X100.33Y-71.12
X100.33Y-90.17
X105.33Y-35.12
X105.33Y-54.17
X105.33Y-73.22
X105.33Y-92.27
X119.38Y-33.02
X119.38Y-52.07
X119.38Y-71.12
X119.38Y-90.17
X124.38Y-35.12
X124.38Y-54.17
X124.38Y-73.22
X124.38Y-92.27
X157.48Y-33.02
X157.48Y-52.07
X157.48Y-71.12
X157.48Y-90.17
X162.48Y-35.12
X162.48Y-54.17
X162.48Y-73.22
X162.48Y-92.27
X176.53Y-33.02
X176.53Y-52.07
X176.53Y-71.12
X176.53Y-90.17
X181.53Y-35.12
X181.53Y-54.17
X181.53Y-73.22
X181.53Y-92.27
X195.58Y-33.02
X195.58Y-52.07
X195.58Y-71.12
X195.58Y-90.17
X200.58Y-35.12
X200.58Y-54.17
X200.58Y-73.22
X200.58Y-92.27
X214.63Y-33.02
X214.63Y-52.07
X214.63Y-71.12
X214.63Y-90.17
X219.63Y-35.12
X219.63Y-54.17
X219.63Y-73.22
X219.63Y-92.27
X233.68Y-33.01
X233.68Y-52.07
X233.68Y-71.12
X233.68Y-90.17
X238.68Y-35.11
X238.68Y-54.17
X238.68Y-73.22
X238.68Y-92.27
X252.73Y-33.02
X252.73Y-52.07
X252.73Y-71.12
X252.73Y-90.17
X257.73Y-35.12
X257.73Y-54.17
X257.73Y-73.22
X257.73Y-92.27
M30
