%TF.GenerationSoftware,KiCad,Pcbnew,9.0.2*%
%TF.CreationDate,2025-09-07T11:59:17+03:00*%
%TF.ProjectId,eg48,65673438-2e6b-4696-9361-645f70636258,rev?*%
%TF.SameCoordinates,Original*%
%TF.FileFunction,Legend,Bot*%
%TF.FilePolarity,Positive*%
%FSLAX46Y46*%
G04 Gerber Fmt 4.6, Leading zero omitted, Abs format (unit mm)*
G04 Created by KiCad (PCBNEW 9.0.2) date 2025-09-07 11:59:17*
%MOMM*%
%LPD*%
G01*
G04 APERTURE LIST*
%ADD10C,0.000000*%
%ADD11C,0.150000*%
%ADD12C,0.120000*%
G04 APERTURE END LIST*
D10*
G36*
X143401270Y-72591907D02*
G01*
X143382494Y-72889120D01*
X142349194Y-72889120D01*
X142349194Y-73428745D01*
X141874447Y-73428745D01*
X141874447Y-72889120D01*
X141585935Y-72889120D01*
X141585935Y-72504896D01*
X141874447Y-72504896D01*
X141874447Y-71580895D01*
X142349194Y-71580895D01*
X142349194Y-72504896D01*
X142935072Y-72504896D01*
X142395295Y-71662869D01*
X142349194Y-71580895D01*
X141874447Y-71580895D01*
X141874447Y-70942200D01*
X142356063Y-70942200D01*
X143401270Y-72591907D01*
G37*
G36*
X147447000Y-73428745D02*
G01*
X145771647Y-73428745D01*
X145771647Y-73041009D01*
X146965537Y-73041009D01*
X146965537Y-72339116D01*
X145944144Y-72339116D01*
X145944144Y-71960082D01*
X146965537Y-71960082D01*
X146965537Y-71333294D01*
X145776837Y-71333294D01*
X145776837Y-70942200D01*
X147447000Y-70942200D01*
X147447000Y-73428745D01*
G37*
G36*
X144151859Y-70942200D02*
G01*
X145340406Y-70942200D01*
X145340406Y-73428745D01*
X144860621Y-73428745D01*
X144860621Y-71331614D01*
X143731761Y-71331614D01*
X143731761Y-71329935D01*
X143675433Y-71329935D01*
X143675433Y-70315411D01*
X144151859Y-70315411D01*
X144151859Y-70942200D01*
G37*
G36*
X140550953Y-70919687D02*
G01*
X140697807Y-70953343D01*
X140831976Y-71010208D01*
X140943729Y-71087372D01*
X141035409Y-71185754D01*
X141105235Y-71305206D01*
X141148079Y-71440763D01*
X141163242Y-71603182D01*
X141152865Y-71721090D01*
X141122615Y-71827603D01*
X141072720Y-71924972D01*
X141005398Y-72011686D01*
X140922830Y-72085748D01*
X140823287Y-72147843D01*
X140909900Y-72195403D01*
X140986472Y-72251189D01*
X141053900Y-72315892D01*
X141110272Y-72387812D01*
X141155478Y-72467247D01*
X141189651Y-72555271D01*
X141210712Y-72648526D01*
X141217892Y-72748986D01*
X141201157Y-72917673D01*
X141153778Y-73058259D01*
X141077255Y-73180878D01*
X140977007Y-73281130D01*
X140855994Y-73358999D01*
X140711546Y-73416838D01*
X140554588Y-73451112D01*
X140381055Y-73462938D01*
X140208997Y-73451119D01*
X140053159Y-73416838D01*
X139909491Y-73359002D01*
X139789224Y-73281130D01*
X139689625Y-73180928D01*
X139613369Y-73058259D01*
X139565990Y-72917673D01*
X139549255Y-72748986D01*
X139552230Y-72716624D01*
X140025834Y-72716624D01*
X140032709Y-72799051D01*
X140052243Y-72869428D01*
X140084153Y-72932525D01*
X140125668Y-72984680D01*
X140176906Y-73026577D01*
X140237562Y-73057343D01*
X140304774Y-73075699D01*
X140381055Y-73082072D01*
X140487486Y-73070434D01*
X140573659Y-73037714D01*
X140644074Y-72984833D01*
X140696717Y-72914309D01*
X140729552Y-72826556D01*
X140741313Y-72716624D01*
X140734682Y-72633916D01*
X140715820Y-72562904D01*
X140684678Y-72498854D01*
X140644074Y-72445972D01*
X140593302Y-72403258D01*
X140532180Y-72371631D01*
X140463711Y-72352637D01*
X140384413Y-72345985D01*
X140305135Y-72352640D01*
X140236799Y-72371631D01*
X140175409Y-72403231D01*
X140123989Y-72445972D01*
X140082695Y-72498927D01*
X140051480Y-72562904D01*
X140032503Y-72633924D01*
X140025834Y-72716624D01*
X139552230Y-72716624D01*
X139561602Y-72614674D01*
X139597366Y-72495593D01*
X139656111Y-72388728D01*
X139734756Y-72294596D01*
X139830013Y-72215140D01*
X139943860Y-72149675D01*
X139844209Y-72086535D01*
X139761370Y-72011847D01*
X139693664Y-71924972D01*
X139643242Y-71827548D01*
X139612699Y-71721041D01*
X139604192Y-71625316D01*
X140075293Y-71625316D01*
X140080809Y-71698354D01*
X140096664Y-71762856D01*
X140122893Y-71821362D01*
X140157267Y-71869559D01*
X140200580Y-71908891D01*
X140252980Y-71938710D01*
X140311938Y-71957019D01*
X140381055Y-71963440D01*
X140450296Y-71957041D01*
X140510046Y-71938710D01*
X140563128Y-71908896D01*
X140607285Y-71869559D01*
X140642172Y-71821265D01*
X140667887Y-71762856D01*
X140683058Y-71698395D01*
X140688343Y-71625316D01*
X140678697Y-71524525D01*
X140651995Y-71444612D01*
X140609880Y-71381074D01*
X140551986Y-71332851D01*
X140478925Y-71302952D01*
X140386092Y-71292230D01*
X140316831Y-71298443D01*
X140257254Y-71316197D01*
X140204004Y-71345242D01*
X140159862Y-71383669D01*
X140124598Y-71431038D01*
X140097580Y-71488693D01*
X140081057Y-71552441D01*
X140075293Y-71625316D01*
X139604192Y-71625316D01*
X139602225Y-71603182D01*
X139617618Y-71440816D01*
X139661149Y-71305206D01*
X139731902Y-71185848D01*
X139825097Y-71087372D01*
X139938379Y-71010178D01*
X140073614Y-70953343D01*
X140221246Y-70919667D01*
X140386092Y-70908006D01*
X140550953Y-70919687D01*
G37*
D11*
X34234285Y-69574819D02*
X34234285Y-68574819D01*
X34234285Y-68574819D02*
X33996190Y-68574819D01*
X33996190Y-68574819D02*
X33853333Y-68622438D01*
X33853333Y-68622438D02*
X33758095Y-68717676D01*
X33758095Y-68717676D02*
X33710476Y-68812914D01*
X33710476Y-68812914D02*
X33662857Y-69003390D01*
X33662857Y-69003390D02*
X33662857Y-69146247D01*
X33662857Y-69146247D02*
X33710476Y-69336723D01*
X33710476Y-69336723D02*
X33758095Y-69431961D01*
X33758095Y-69431961D02*
X33853333Y-69527200D01*
X33853333Y-69527200D02*
X33996190Y-69574819D01*
X33996190Y-69574819D02*
X34234285Y-69574819D01*
X33281904Y-68670057D02*
X33234285Y-68622438D01*
X33234285Y-68622438D02*
X33139047Y-68574819D01*
X33139047Y-68574819D02*
X32900952Y-68574819D01*
X32900952Y-68574819D02*
X32805714Y-68622438D01*
X32805714Y-68622438D02*
X32758095Y-68670057D01*
X32758095Y-68670057D02*
X32710476Y-68765295D01*
X32710476Y-68765295D02*
X32710476Y-68860533D01*
X32710476Y-68860533D02*
X32758095Y-69003390D01*
X32758095Y-69003390D02*
X33329523Y-69574819D01*
X33329523Y-69574819D02*
X32710476Y-69574819D01*
X31805714Y-68574819D02*
X32281904Y-68574819D01*
X32281904Y-68574819D02*
X32329523Y-69051009D01*
X32329523Y-69051009D02*
X32281904Y-69003390D01*
X32281904Y-69003390D02*
X32186666Y-68955771D01*
X32186666Y-68955771D02*
X31948571Y-68955771D01*
X31948571Y-68955771D02*
X31853333Y-69003390D01*
X31853333Y-69003390D02*
X31805714Y-69051009D01*
X31805714Y-69051009D02*
X31758095Y-69146247D01*
X31758095Y-69146247D02*
X31758095Y-69384342D01*
X31758095Y-69384342D02*
X31805714Y-69479580D01*
X31805714Y-69479580D02*
X31853333Y-69527200D01*
X31853333Y-69527200D02*
X31948571Y-69574819D01*
X31948571Y-69574819D02*
X32186666Y-69574819D01*
X32186666Y-69574819D02*
X32281904Y-69527200D01*
X32281904Y-69527200D02*
X32329523Y-69479580D01*
X72334285Y-50524819D02*
X72334285Y-49524819D01*
X72334285Y-49524819D02*
X72096190Y-49524819D01*
X72096190Y-49524819D02*
X71953333Y-49572438D01*
X71953333Y-49572438D02*
X71858095Y-49667676D01*
X71858095Y-49667676D02*
X71810476Y-49762914D01*
X71810476Y-49762914D02*
X71762857Y-49953390D01*
X71762857Y-49953390D02*
X71762857Y-50096247D01*
X71762857Y-50096247D02*
X71810476Y-50286723D01*
X71810476Y-50286723D02*
X71858095Y-50381961D01*
X71858095Y-50381961D02*
X71953333Y-50477200D01*
X71953333Y-50477200D02*
X72096190Y-50524819D01*
X72096190Y-50524819D02*
X72334285Y-50524819D01*
X70810476Y-50524819D02*
X71381904Y-50524819D01*
X71096190Y-50524819D02*
X71096190Y-49524819D01*
X71096190Y-49524819D02*
X71191428Y-49667676D01*
X71191428Y-49667676D02*
X71286666Y-49762914D01*
X71286666Y-49762914D02*
X71381904Y-49810533D01*
X69905714Y-49524819D02*
X70381904Y-49524819D01*
X70381904Y-49524819D02*
X70429523Y-50001009D01*
X70429523Y-50001009D02*
X70381904Y-49953390D01*
X70381904Y-49953390D02*
X70286666Y-49905771D01*
X70286666Y-49905771D02*
X70048571Y-49905771D01*
X70048571Y-49905771D02*
X69953333Y-49953390D01*
X69953333Y-49953390D02*
X69905714Y-50001009D01*
X69905714Y-50001009D02*
X69858095Y-50096247D01*
X69858095Y-50096247D02*
X69858095Y-50334342D01*
X69858095Y-50334342D02*
X69905714Y-50429580D01*
X69905714Y-50429580D02*
X69953333Y-50477200D01*
X69953333Y-50477200D02*
X70048571Y-50524819D01*
X70048571Y-50524819D02*
X70286666Y-50524819D01*
X70286666Y-50524819D02*
X70381904Y-50477200D01*
X70381904Y-50477200D02*
X70429523Y-50429580D01*
X91384285Y-88624819D02*
X91384285Y-87624819D01*
X91384285Y-87624819D02*
X91146190Y-87624819D01*
X91146190Y-87624819D02*
X91003333Y-87672438D01*
X91003333Y-87672438D02*
X90908095Y-87767676D01*
X90908095Y-87767676D02*
X90860476Y-87862914D01*
X90860476Y-87862914D02*
X90812857Y-88053390D01*
X90812857Y-88053390D02*
X90812857Y-88196247D01*
X90812857Y-88196247D02*
X90860476Y-88386723D01*
X90860476Y-88386723D02*
X90908095Y-88481961D01*
X90908095Y-88481961D02*
X91003333Y-88577200D01*
X91003333Y-88577200D02*
X91146190Y-88624819D01*
X91146190Y-88624819D02*
X91384285Y-88624819D01*
X89955714Y-87958152D02*
X89955714Y-88624819D01*
X90193809Y-87577200D02*
X90431904Y-88291485D01*
X90431904Y-88291485D02*
X89812857Y-88291485D01*
X89241428Y-87624819D02*
X89146190Y-87624819D01*
X89146190Y-87624819D02*
X89050952Y-87672438D01*
X89050952Y-87672438D02*
X89003333Y-87720057D01*
X89003333Y-87720057D02*
X88955714Y-87815295D01*
X88955714Y-87815295D02*
X88908095Y-88005771D01*
X88908095Y-88005771D02*
X88908095Y-88243866D01*
X88908095Y-88243866D02*
X88955714Y-88434342D01*
X88955714Y-88434342D02*
X89003333Y-88529580D01*
X89003333Y-88529580D02*
X89050952Y-88577200D01*
X89050952Y-88577200D02*
X89146190Y-88624819D01*
X89146190Y-88624819D02*
X89241428Y-88624819D01*
X89241428Y-88624819D02*
X89336666Y-88577200D01*
X89336666Y-88577200D02*
X89384285Y-88529580D01*
X89384285Y-88529580D02*
X89431904Y-88434342D01*
X89431904Y-88434342D02*
X89479523Y-88243866D01*
X89479523Y-88243866D02*
X89479523Y-88005771D01*
X89479523Y-88005771D02*
X89431904Y-87815295D01*
X89431904Y-87815295D02*
X89384285Y-87720057D01*
X89384285Y-87720057D02*
X89336666Y-87672438D01*
X89336666Y-87672438D02*
X89241428Y-87624819D01*
X211780238Y-42689819D02*
X212256428Y-42689819D01*
X212256428Y-42689819D02*
X212256428Y-41689819D01*
X211446904Y-42166009D02*
X211113571Y-42166009D01*
X210970714Y-42689819D02*
X211446904Y-42689819D01*
X211446904Y-42689819D02*
X211446904Y-41689819D01*
X211446904Y-41689819D02*
X210970714Y-41689819D01*
X210542142Y-42689819D02*
X210542142Y-41689819D01*
X210542142Y-41689819D02*
X210304047Y-41689819D01*
X210304047Y-41689819D02*
X210161190Y-41737438D01*
X210161190Y-41737438D02*
X210065952Y-41832676D01*
X210065952Y-41832676D02*
X210018333Y-41927914D01*
X210018333Y-41927914D02*
X209970714Y-42118390D01*
X209970714Y-42118390D02*
X209970714Y-42261247D01*
X209970714Y-42261247D02*
X210018333Y-42451723D01*
X210018333Y-42451723D02*
X210065952Y-42546961D01*
X210065952Y-42546961D02*
X210161190Y-42642200D01*
X210161190Y-42642200D02*
X210304047Y-42689819D01*
X210304047Y-42689819D02*
X210542142Y-42689819D01*
X209018333Y-42689819D02*
X209589761Y-42689819D01*
X209304047Y-42689819D02*
X209304047Y-41689819D01*
X209304047Y-41689819D02*
X209399285Y-41832676D01*
X209399285Y-41832676D02*
X209494523Y-41927914D01*
X209494523Y-41927914D02*
X209589761Y-41975533D01*
X208065952Y-42689819D02*
X208637380Y-42689819D01*
X208351666Y-42689819D02*
X208351666Y-41689819D01*
X208351666Y-41689819D02*
X208446904Y-41832676D01*
X208446904Y-41832676D02*
X208542142Y-41927914D01*
X208542142Y-41927914D02*
X208637380Y-41975533D01*
X205749285Y-40789819D02*
X206320713Y-40789819D01*
X206034999Y-40789819D02*
X206034999Y-39789819D01*
X206034999Y-39789819D02*
X206130237Y-39932676D01*
X206130237Y-39932676D02*
X206225475Y-40027914D01*
X206225475Y-40027914D02*
X206320713Y-40075533D01*
X52808094Y-31474819D02*
X52808094Y-30474819D01*
X52808094Y-30474819D02*
X52569999Y-30474819D01*
X52569999Y-30474819D02*
X52427142Y-30522438D01*
X52427142Y-30522438D02*
X52331904Y-30617676D01*
X52331904Y-30617676D02*
X52284285Y-30712914D01*
X52284285Y-30712914D02*
X52236666Y-30903390D01*
X52236666Y-30903390D02*
X52236666Y-31046247D01*
X52236666Y-31046247D02*
X52284285Y-31236723D01*
X52284285Y-31236723D02*
X52331904Y-31331961D01*
X52331904Y-31331961D02*
X52427142Y-31427200D01*
X52427142Y-31427200D02*
X52569999Y-31474819D01*
X52569999Y-31474819D02*
X52808094Y-31474819D01*
X51855713Y-30570057D02*
X51808094Y-30522438D01*
X51808094Y-30522438D02*
X51712856Y-30474819D01*
X51712856Y-30474819D02*
X51474761Y-30474819D01*
X51474761Y-30474819D02*
X51379523Y-30522438D01*
X51379523Y-30522438D02*
X51331904Y-30570057D01*
X51331904Y-30570057D02*
X51284285Y-30665295D01*
X51284285Y-30665295D02*
X51284285Y-30760533D01*
X51284285Y-30760533D02*
X51331904Y-30903390D01*
X51331904Y-30903390D02*
X51903332Y-31474819D01*
X51903332Y-31474819D02*
X51284285Y-31474819D01*
X186634285Y-69574819D02*
X186634285Y-68574819D01*
X186634285Y-68574819D02*
X186396190Y-68574819D01*
X186396190Y-68574819D02*
X186253333Y-68622438D01*
X186253333Y-68622438D02*
X186158095Y-68717676D01*
X186158095Y-68717676D02*
X186110476Y-68812914D01*
X186110476Y-68812914D02*
X186062857Y-69003390D01*
X186062857Y-69003390D02*
X186062857Y-69146247D01*
X186062857Y-69146247D02*
X186110476Y-69336723D01*
X186110476Y-69336723D02*
X186158095Y-69431961D01*
X186158095Y-69431961D02*
X186253333Y-69527200D01*
X186253333Y-69527200D02*
X186396190Y-69574819D01*
X186396190Y-69574819D02*
X186634285Y-69574819D01*
X185729523Y-68574819D02*
X185110476Y-68574819D01*
X185110476Y-68574819D02*
X185443809Y-68955771D01*
X185443809Y-68955771D02*
X185300952Y-68955771D01*
X185300952Y-68955771D02*
X185205714Y-69003390D01*
X185205714Y-69003390D02*
X185158095Y-69051009D01*
X185158095Y-69051009D02*
X185110476Y-69146247D01*
X185110476Y-69146247D02*
X185110476Y-69384342D01*
X185110476Y-69384342D02*
X185158095Y-69479580D01*
X185158095Y-69479580D02*
X185205714Y-69527200D01*
X185205714Y-69527200D02*
X185300952Y-69574819D01*
X185300952Y-69574819D02*
X185586666Y-69574819D01*
X185586666Y-69574819D02*
X185681904Y-69527200D01*
X185681904Y-69527200D02*
X185729523Y-69479580D01*
X184729523Y-68670057D02*
X184681904Y-68622438D01*
X184681904Y-68622438D02*
X184586666Y-68574819D01*
X184586666Y-68574819D02*
X184348571Y-68574819D01*
X184348571Y-68574819D02*
X184253333Y-68622438D01*
X184253333Y-68622438D02*
X184205714Y-68670057D01*
X184205714Y-68670057D02*
X184158095Y-68765295D01*
X184158095Y-68765295D02*
X184158095Y-68860533D01*
X184158095Y-68860533D02*
X184205714Y-69003390D01*
X184205714Y-69003390D02*
X184777142Y-69574819D01*
X184777142Y-69574819D02*
X184158095Y-69574819D01*
X243784285Y-31474819D02*
X243784285Y-30474819D01*
X243784285Y-30474819D02*
X243546190Y-30474819D01*
X243546190Y-30474819D02*
X243403333Y-30522438D01*
X243403333Y-30522438D02*
X243308095Y-30617676D01*
X243308095Y-30617676D02*
X243260476Y-30712914D01*
X243260476Y-30712914D02*
X243212857Y-30903390D01*
X243212857Y-30903390D02*
X243212857Y-31046247D01*
X243212857Y-31046247D02*
X243260476Y-31236723D01*
X243260476Y-31236723D02*
X243308095Y-31331961D01*
X243308095Y-31331961D02*
X243403333Y-31427200D01*
X243403333Y-31427200D02*
X243546190Y-31474819D01*
X243546190Y-31474819D02*
X243784285Y-31474819D01*
X242260476Y-31474819D02*
X242831904Y-31474819D01*
X242546190Y-31474819D02*
X242546190Y-30474819D01*
X242546190Y-30474819D02*
X242641428Y-30617676D01*
X242641428Y-30617676D02*
X242736666Y-30712914D01*
X242736666Y-30712914D02*
X242831904Y-30760533D01*
X241308095Y-31474819D02*
X241879523Y-31474819D01*
X241593809Y-31474819D02*
X241593809Y-30474819D01*
X241593809Y-30474819D02*
X241689047Y-30617676D01*
X241689047Y-30617676D02*
X241784285Y-30712914D01*
X241784285Y-30712914D02*
X241879523Y-30760533D01*
X110434285Y-50524819D02*
X110434285Y-49524819D01*
X110434285Y-49524819D02*
X110196190Y-49524819D01*
X110196190Y-49524819D02*
X110053333Y-49572438D01*
X110053333Y-49572438D02*
X109958095Y-49667676D01*
X109958095Y-49667676D02*
X109910476Y-49762914D01*
X109910476Y-49762914D02*
X109862857Y-49953390D01*
X109862857Y-49953390D02*
X109862857Y-50096247D01*
X109862857Y-50096247D02*
X109910476Y-50286723D01*
X109910476Y-50286723D02*
X109958095Y-50381961D01*
X109958095Y-50381961D02*
X110053333Y-50477200D01*
X110053333Y-50477200D02*
X110196190Y-50524819D01*
X110196190Y-50524819D02*
X110434285Y-50524819D01*
X108910476Y-50524819D02*
X109481904Y-50524819D01*
X109196190Y-50524819D02*
X109196190Y-49524819D01*
X109196190Y-49524819D02*
X109291428Y-49667676D01*
X109291428Y-49667676D02*
X109386666Y-49762914D01*
X109386666Y-49762914D02*
X109481904Y-49810533D01*
X108577142Y-49524819D02*
X107910476Y-49524819D01*
X107910476Y-49524819D02*
X108339047Y-50524819D01*
X173680238Y-42689819D02*
X174156428Y-42689819D01*
X174156428Y-42689819D02*
X174156428Y-41689819D01*
X173346904Y-42166009D02*
X173013571Y-42166009D01*
X172870714Y-42689819D02*
X173346904Y-42689819D01*
X173346904Y-42689819D02*
X173346904Y-41689819D01*
X173346904Y-41689819D02*
X172870714Y-41689819D01*
X172442142Y-42689819D02*
X172442142Y-41689819D01*
X172442142Y-41689819D02*
X172204047Y-41689819D01*
X172204047Y-41689819D02*
X172061190Y-41737438D01*
X172061190Y-41737438D02*
X171965952Y-41832676D01*
X171965952Y-41832676D02*
X171918333Y-41927914D01*
X171918333Y-41927914D02*
X171870714Y-42118390D01*
X171870714Y-42118390D02*
X171870714Y-42261247D01*
X171870714Y-42261247D02*
X171918333Y-42451723D01*
X171918333Y-42451723D02*
X171965952Y-42546961D01*
X171965952Y-42546961D02*
X172061190Y-42642200D01*
X172061190Y-42642200D02*
X172204047Y-42689819D01*
X172204047Y-42689819D02*
X172442142Y-42689819D01*
X170918333Y-42689819D02*
X171489761Y-42689819D01*
X171204047Y-42689819D02*
X171204047Y-41689819D01*
X171204047Y-41689819D02*
X171299285Y-41832676D01*
X171299285Y-41832676D02*
X171394523Y-41927914D01*
X171394523Y-41927914D02*
X171489761Y-41975533D01*
X170537380Y-41785057D02*
X170489761Y-41737438D01*
X170489761Y-41737438D02*
X170394523Y-41689819D01*
X170394523Y-41689819D02*
X170156428Y-41689819D01*
X170156428Y-41689819D02*
X170061190Y-41737438D01*
X170061190Y-41737438D02*
X170013571Y-41785057D01*
X170013571Y-41785057D02*
X169965952Y-41880295D01*
X169965952Y-41880295D02*
X169965952Y-41975533D01*
X169965952Y-41975533D02*
X170013571Y-42118390D01*
X170013571Y-42118390D02*
X170584999Y-42689819D01*
X170584999Y-42689819D02*
X169965952Y-42689819D01*
X167649285Y-40789819D02*
X168220713Y-40789819D01*
X167934999Y-40789819D02*
X167934999Y-39789819D01*
X167934999Y-39789819D02*
X168030237Y-39932676D01*
X168030237Y-39932676D02*
X168125475Y-40027914D01*
X168125475Y-40027914D02*
X168220713Y-40075533D01*
X90908094Y-31474819D02*
X90908094Y-30474819D01*
X90908094Y-30474819D02*
X90669999Y-30474819D01*
X90669999Y-30474819D02*
X90527142Y-30522438D01*
X90527142Y-30522438D02*
X90431904Y-30617676D01*
X90431904Y-30617676D02*
X90384285Y-30712914D01*
X90384285Y-30712914D02*
X90336666Y-30903390D01*
X90336666Y-30903390D02*
X90336666Y-31046247D01*
X90336666Y-31046247D02*
X90384285Y-31236723D01*
X90384285Y-31236723D02*
X90431904Y-31331961D01*
X90431904Y-31331961D02*
X90527142Y-31427200D01*
X90527142Y-31427200D02*
X90669999Y-31474819D01*
X90669999Y-31474819D02*
X90908094Y-31474819D01*
X89479523Y-30808152D02*
X89479523Y-31474819D01*
X89717618Y-30427200D02*
X89955713Y-31141485D01*
X89955713Y-31141485D02*
X89336666Y-31141485D01*
X173204047Y-73789819D02*
X173680237Y-73789819D01*
X173680237Y-73789819D02*
X173680237Y-72789819D01*
X172870713Y-73266009D02*
X172537380Y-73266009D01*
X172394523Y-73789819D02*
X172870713Y-73789819D01*
X172870713Y-73789819D02*
X172870713Y-72789819D01*
X172870713Y-72789819D02*
X172394523Y-72789819D01*
X171965951Y-73789819D02*
X171965951Y-72789819D01*
X171965951Y-72789819D02*
X171727856Y-72789819D01*
X171727856Y-72789819D02*
X171584999Y-72837438D01*
X171584999Y-72837438D02*
X171489761Y-72932676D01*
X171489761Y-72932676D02*
X171442142Y-73027914D01*
X171442142Y-73027914D02*
X171394523Y-73218390D01*
X171394523Y-73218390D02*
X171394523Y-73361247D01*
X171394523Y-73361247D02*
X171442142Y-73551723D01*
X171442142Y-73551723D02*
X171489761Y-73646961D01*
X171489761Y-73646961D02*
X171584999Y-73742200D01*
X171584999Y-73742200D02*
X171727856Y-73789819D01*
X171727856Y-73789819D02*
X171965951Y-73789819D01*
X171061189Y-72789819D02*
X170394523Y-72789819D01*
X170394523Y-72789819D02*
X170823094Y-73789819D01*
X175949285Y-75689819D02*
X176520713Y-75689819D01*
X176234999Y-75689819D02*
X176234999Y-74689819D01*
X176234999Y-74689819D02*
X176330237Y-74832676D01*
X176330237Y-74832676D02*
X176425475Y-74927914D01*
X176425475Y-74927914D02*
X176520713Y-74975533D01*
X72334285Y-69574819D02*
X72334285Y-68574819D01*
X72334285Y-68574819D02*
X72096190Y-68574819D01*
X72096190Y-68574819D02*
X71953333Y-68622438D01*
X71953333Y-68622438D02*
X71858095Y-68717676D01*
X71858095Y-68717676D02*
X71810476Y-68812914D01*
X71810476Y-68812914D02*
X71762857Y-69003390D01*
X71762857Y-69003390D02*
X71762857Y-69146247D01*
X71762857Y-69146247D02*
X71810476Y-69336723D01*
X71810476Y-69336723D02*
X71858095Y-69431961D01*
X71858095Y-69431961D02*
X71953333Y-69527200D01*
X71953333Y-69527200D02*
X72096190Y-69574819D01*
X72096190Y-69574819D02*
X72334285Y-69574819D01*
X71381904Y-68670057D02*
X71334285Y-68622438D01*
X71334285Y-68622438D02*
X71239047Y-68574819D01*
X71239047Y-68574819D02*
X71000952Y-68574819D01*
X71000952Y-68574819D02*
X70905714Y-68622438D01*
X70905714Y-68622438D02*
X70858095Y-68670057D01*
X70858095Y-68670057D02*
X70810476Y-68765295D01*
X70810476Y-68765295D02*
X70810476Y-68860533D01*
X70810476Y-68860533D02*
X70858095Y-69003390D01*
X70858095Y-69003390D02*
X71429523Y-69574819D01*
X71429523Y-69574819D02*
X70810476Y-69574819D01*
X70477142Y-68574819D02*
X69810476Y-68574819D01*
X69810476Y-68574819D02*
X70239047Y-69574819D01*
X39854047Y-42689819D02*
X40330237Y-42689819D01*
X40330237Y-42689819D02*
X40330237Y-41689819D01*
X39520713Y-42166009D02*
X39187380Y-42166009D01*
X39044523Y-42689819D02*
X39520713Y-42689819D01*
X39520713Y-42689819D02*
X39520713Y-41689819D01*
X39520713Y-41689819D02*
X39044523Y-41689819D01*
X38615951Y-42689819D02*
X38615951Y-41689819D01*
X38615951Y-41689819D02*
X38377856Y-41689819D01*
X38377856Y-41689819D02*
X38234999Y-41737438D01*
X38234999Y-41737438D02*
X38139761Y-41832676D01*
X38139761Y-41832676D02*
X38092142Y-41927914D01*
X38092142Y-41927914D02*
X38044523Y-42118390D01*
X38044523Y-42118390D02*
X38044523Y-42261247D01*
X38044523Y-42261247D02*
X38092142Y-42451723D01*
X38092142Y-42451723D02*
X38139761Y-42546961D01*
X38139761Y-42546961D02*
X38234999Y-42642200D01*
X38234999Y-42642200D02*
X38377856Y-42689819D01*
X38377856Y-42689819D02*
X38615951Y-42689819D01*
X37711189Y-41689819D02*
X37092142Y-41689819D01*
X37092142Y-41689819D02*
X37425475Y-42070771D01*
X37425475Y-42070771D02*
X37282618Y-42070771D01*
X37282618Y-42070771D02*
X37187380Y-42118390D01*
X37187380Y-42118390D02*
X37139761Y-42166009D01*
X37139761Y-42166009D02*
X37092142Y-42261247D01*
X37092142Y-42261247D02*
X37092142Y-42499342D01*
X37092142Y-42499342D02*
X37139761Y-42594580D01*
X37139761Y-42594580D02*
X37187380Y-42642200D01*
X37187380Y-42642200D02*
X37282618Y-42689819D01*
X37282618Y-42689819D02*
X37568332Y-42689819D01*
X37568332Y-42689819D02*
X37663570Y-42642200D01*
X37663570Y-42642200D02*
X37711189Y-42594580D01*
X34299285Y-40789819D02*
X34870713Y-40789819D01*
X34584999Y-40789819D02*
X34584999Y-39789819D01*
X34584999Y-39789819D02*
X34680237Y-39932676D01*
X34680237Y-39932676D02*
X34775475Y-40027914D01*
X34775475Y-40027914D02*
X34870713Y-40075533D01*
X224734285Y-31474819D02*
X224734285Y-30474819D01*
X224734285Y-30474819D02*
X224496190Y-30474819D01*
X224496190Y-30474819D02*
X224353333Y-30522438D01*
X224353333Y-30522438D02*
X224258095Y-30617676D01*
X224258095Y-30617676D02*
X224210476Y-30712914D01*
X224210476Y-30712914D02*
X224162857Y-30903390D01*
X224162857Y-30903390D02*
X224162857Y-31046247D01*
X224162857Y-31046247D02*
X224210476Y-31236723D01*
X224210476Y-31236723D02*
X224258095Y-31331961D01*
X224258095Y-31331961D02*
X224353333Y-31427200D01*
X224353333Y-31427200D02*
X224496190Y-31474819D01*
X224496190Y-31474819D02*
X224734285Y-31474819D01*
X223210476Y-31474819D02*
X223781904Y-31474819D01*
X223496190Y-31474819D02*
X223496190Y-30474819D01*
X223496190Y-30474819D02*
X223591428Y-30617676D01*
X223591428Y-30617676D02*
X223686666Y-30712914D01*
X223686666Y-30712914D02*
X223781904Y-30760533D01*
X222591428Y-30474819D02*
X222496190Y-30474819D01*
X222496190Y-30474819D02*
X222400952Y-30522438D01*
X222400952Y-30522438D02*
X222353333Y-30570057D01*
X222353333Y-30570057D02*
X222305714Y-30665295D01*
X222305714Y-30665295D02*
X222258095Y-30855771D01*
X222258095Y-30855771D02*
X222258095Y-31093866D01*
X222258095Y-31093866D02*
X222305714Y-31284342D01*
X222305714Y-31284342D02*
X222353333Y-31379580D01*
X222353333Y-31379580D02*
X222400952Y-31427200D01*
X222400952Y-31427200D02*
X222496190Y-31474819D01*
X222496190Y-31474819D02*
X222591428Y-31474819D01*
X222591428Y-31474819D02*
X222686666Y-31427200D01*
X222686666Y-31427200D02*
X222734285Y-31379580D01*
X222734285Y-31379580D02*
X222781904Y-31284342D01*
X222781904Y-31284342D02*
X222829523Y-31093866D01*
X222829523Y-31093866D02*
X222829523Y-30855771D01*
X222829523Y-30855771D02*
X222781904Y-30665295D01*
X222781904Y-30665295D02*
X222734285Y-30570057D01*
X222734285Y-30570057D02*
X222686666Y-30522438D01*
X222686666Y-30522438D02*
X222591428Y-30474819D01*
X110434285Y-69574819D02*
X110434285Y-68574819D01*
X110434285Y-68574819D02*
X110196190Y-68574819D01*
X110196190Y-68574819D02*
X110053333Y-68622438D01*
X110053333Y-68622438D02*
X109958095Y-68717676D01*
X109958095Y-68717676D02*
X109910476Y-68812914D01*
X109910476Y-68812914D02*
X109862857Y-69003390D01*
X109862857Y-69003390D02*
X109862857Y-69146247D01*
X109862857Y-69146247D02*
X109910476Y-69336723D01*
X109910476Y-69336723D02*
X109958095Y-69431961D01*
X109958095Y-69431961D02*
X110053333Y-69527200D01*
X110053333Y-69527200D02*
X110196190Y-69574819D01*
X110196190Y-69574819D02*
X110434285Y-69574819D01*
X109481904Y-68670057D02*
X109434285Y-68622438D01*
X109434285Y-68622438D02*
X109339047Y-68574819D01*
X109339047Y-68574819D02*
X109100952Y-68574819D01*
X109100952Y-68574819D02*
X109005714Y-68622438D01*
X109005714Y-68622438D02*
X108958095Y-68670057D01*
X108958095Y-68670057D02*
X108910476Y-68765295D01*
X108910476Y-68765295D02*
X108910476Y-68860533D01*
X108910476Y-68860533D02*
X108958095Y-69003390D01*
X108958095Y-69003390D02*
X109529523Y-69574819D01*
X109529523Y-69574819D02*
X108910476Y-69574819D01*
X108434285Y-69574819D02*
X108243809Y-69574819D01*
X108243809Y-69574819D02*
X108148571Y-69527200D01*
X108148571Y-69527200D02*
X108100952Y-69479580D01*
X108100952Y-69479580D02*
X108005714Y-69336723D01*
X108005714Y-69336723D02*
X107958095Y-69146247D01*
X107958095Y-69146247D02*
X107958095Y-68765295D01*
X107958095Y-68765295D02*
X108005714Y-68670057D01*
X108005714Y-68670057D02*
X108053333Y-68622438D01*
X108053333Y-68622438D02*
X108148571Y-68574819D01*
X108148571Y-68574819D02*
X108339047Y-68574819D01*
X108339047Y-68574819D02*
X108434285Y-68622438D01*
X108434285Y-68622438D02*
X108481904Y-68670057D01*
X108481904Y-68670057D02*
X108529523Y-68765295D01*
X108529523Y-68765295D02*
X108529523Y-69003390D01*
X108529523Y-69003390D02*
X108481904Y-69098628D01*
X108481904Y-69098628D02*
X108434285Y-69146247D01*
X108434285Y-69146247D02*
X108339047Y-69193866D01*
X108339047Y-69193866D02*
X108148571Y-69193866D01*
X108148571Y-69193866D02*
X108053333Y-69146247D01*
X108053333Y-69146247D02*
X108005714Y-69098628D01*
X108005714Y-69098628D02*
X107958095Y-69003390D01*
X91384285Y-69574819D02*
X91384285Y-68574819D01*
X91384285Y-68574819D02*
X91146190Y-68574819D01*
X91146190Y-68574819D02*
X91003333Y-68622438D01*
X91003333Y-68622438D02*
X90908095Y-68717676D01*
X90908095Y-68717676D02*
X90860476Y-68812914D01*
X90860476Y-68812914D02*
X90812857Y-69003390D01*
X90812857Y-69003390D02*
X90812857Y-69146247D01*
X90812857Y-69146247D02*
X90860476Y-69336723D01*
X90860476Y-69336723D02*
X90908095Y-69431961D01*
X90908095Y-69431961D02*
X91003333Y-69527200D01*
X91003333Y-69527200D02*
X91146190Y-69574819D01*
X91146190Y-69574819D02*
X91384285Y-69574819D01*
X90431904Y-68670057D02*
X90384285Y-68622438D01*
X90384285Y-68622438D02*
X90289047Y-68574819D01*
X90289047Y-68574819D02*
X90050952Y-68574819D01*
X90050952Y-68574819D02*
X89955714Y-68622438D01*
X89955714Y-68622438D02*
X89908095Y-68670057D01*
X89908095Y-68670057D02*
X89860476Y-68765295D01*
X89860476Y-68765295D02*
X89860476Y-68860533D01*
X89860476Y-68860533D02*
X89908095Y-69003390D01*
X89908095Y-69003390D02*
X90479523Y-69574819D01*
X90479523Y-69574819D02*
X89860476Y-69574819D01*
X89289047Y-69003390D02*
X89384285Y-68955771D01*
X89384285Y-68955771D02*
X89431904Y-68908152D01*
X89431904Y-68908152D02*
X89479523Y-68812914D01*
X89479523Y-68812914D02*
X89479523Y-68765295D01*
X89479523Y-68765295D02*
X89431904Y-68670057D01*
X89431904Y-68670057D02*
X89384285Y-68622438D01*
X89384285Y-68622438D02*
X89289047Y-68574819D01*
X89289047Y-68574819D02*
X89098571Y-68574819D01*
X89098571Y-68574819D02*
X89003333Y-68622438D01*
X89003333Y-68622438D02*
X88955714Y-68670057D01*
X88955714Y-68670057D02*
X88908095Y-68765295D01*
X88908095Y-68765295D02*
X88908095Y-68812914D01*
X88908095Y-68812914D02*
X88955714Y-68908152D01*
X88955714Y-68908152D02*
X89003333Y-68955771D01*
X89003333Y-68955771D02*
X89098571Y-69003390D01*
X89098571Y-69003390D02*
X89289047Y-69003390D01*
X89289047Y-69003390D02*
X89384285Y-69051009D01*
X89384285Y-69051009D02*
X89431904Y-69098628D01*
X89431904Y-69098628D02*
X89479523Y-69193866D01*
X89479523Y-69193866D02*
X89479523Y-69384342D01*
X89479523Y-69384342D02*
X89431904Y-69479580D01*
X89431904Y-69479580D02*
X89384285Y-69527200D01*
X89384285Y-69527200D02*
X89289047Y-69574819D01*
X89289047Y-69574819D02*
X89098571Y-69574819D01*
X89098571Y-69574819D02*
X89003333Y-69527200D01*
X89003333Y-69527200D02*
X88955714Y-69479580D01*
X88955714Y-69479580D02*
X88908095Y-69384342D01*
X88908095Y-69384342D02*
X88908095Y-69193866D01*
X88908095Y-69193866D02*
X88955714Y-69098628D01*
X88955714Y-69098628D02*
X89003333Y-69051009D01*
X89003333Y-69051009D02*
X89098571Y-69003390D01*
X224734285Y-88624819D02*
X224734285Y-87624819D01*
X224734285Y-87624819D02*
X224496190Y-87624819D01*
X224496190Y-87624819D02*
X224353333Y-87672438D01*
X224353333Y-87672438D02*
X224258095Y-87767676D01*
X224258095Y-87767676D02*
X224210476Y-87862914D01*
X224210476Y-87862914D02*
X224162857Y-88053390D01*
X224162857Y-88053390D02*
X224162857Y-88196247D01*
X224162857Y-88196247D02*
X224210476Y-88386723D01*
X224210476Y-88386723D02*
X224258095Y-88481961D01*
X224258095Y-88481961D02*
X224353333Y-88577200D01*
X224353333Y-88577200D02*
X224496190Y-88624819D01*
X224496190Y-88624819D02*
X224734285Y-88624819D01*
X223305714Y-87958152D02*
X223305714Y-88624819D01*
X223543809Y-87577200D02*
X223781904Y-88291485D01*
X223781904Y-88291485D02*
X223162857Y-88291485D01*
X222353333Y-87624819D02*
X222543809Y-87624819D01*
X222543809Y-87624819D02*
X222639047Y-87672438D01*
X222639047Y-87672438D02*
X222686666Y-87720057D01*
X222686666Y-87720057D02*
X222781904Y-87862914D01*
X222781904Y-87862914D02*
X222829523Y-88053390D01*
X222829523Y-88053390D02*
X222829523Y-88434342D01*
X222829523Y-88434342D02*
X222781904Y-88529580D01*
X222781904Y-88529580D02*
X222734285Y-88577200D01*
X222734285Y-88577200D02*
X222639047Y-88624819D01*
X222639047Y-88624819D02*
X222448571Y-88624819D01*
X222448571Y-88624819D02*
X222353333Y-88577200D01*
X222353333Y-88577200D02*
X222305714Y-88529580D01*
X222305714Y-88529580D02*
X222258095Y-88434342D01*
X222258095Y-88434342D02*
X222258095Y-88196247D01*
X222258095Y-88196247D02*
X222305714Y-88101009D01*
X222305714Y-88101009D02*
X222353333Y-88053390D01*
X222353333Y-88053390D02*
X222448571Y-88005771D01*
X222448571Y-88005771D02*
X222639047Y-88005771D01*
X222639047Y-88005771D02*
X222734285Y-88053390D01*
X222734285Y-88053390D02*
X222781904Y-88101009D01*
X222781904Y-88101009D02*
X222829523Y-88196247D01*
X186158094Y-31474819D02*
X186158094Y-30474819D01*
X186158094Y-30474819D02*
X185919999Y-30474819D01*
X185919999Y-30474819D02*
X185777142Y-30522438D01*
X185777142Y-30522438D02*
X185681904Y-30617676D01*
X185681904Y-30617676D02*
X185634285Y-30712914D01*
X185634285Y-30712914D02*
X185586666Y-30903390D01*
X185586666Y-30903390D02*
X185586666Y-31046247D01*
X185586666Y-31046247D02*
X185634285Y-31236723D01*
X185634285Y-31236723D02*
X185681904Y-31331961D01*
X185681904Y-31331961D02*
X185777142Y-31427200D01*
X185777142Y-31427200D02*
X185919999Y-31474819D01*
X185919999Y-31474819D02*
X186158094Y-31474819D01*
X185015237Y-30903390D02*
X185110475Y-30855771D01*
X185110475Y-30855771D02*
X185158094Y-30808152D01*
X185158094Y-30808152D02*
X185205713Y-30712914D01*
X185205713Y-30712914D02*
X185205713Y-30665295D01*
X185205713Y-30665295D02*
X185158094Y-30570057D01*
X185158094Y-30570057D02*
X185110475Y-30522438D01*
X185110475Y-30522438D02*
X185015237Y-30474819D01*
X185015237Y-30474819D02*
X184824761Y-30474819D01*
X184824761Y-30474819D02*
X184729523Y-30522438D01*
X184729523Y-30522438D02*
X184681904Y-30570057D01*
X184681904Y-30570057D02*
X184634285Y-30665295D01*
X184634285Y-30665295D02*
X184634285Y-30712914D01*
X184634285Y-30712914D02*
X184681904Y-30808152D01*
X184681904Y-30808152D02*
X184729523Y-30855771D01*
X184729523Y-30855771D02*
X184824761Y-30903390D01*
X184824761Y-30903390D02*
X185015237Y-30903390D01*
X185015237Y-30903390D02*
X185110475Y-30951009D01*
X185110475Y-30951009D02*
X185158094Y-30998628D01*
X185158094Y-30998628D02*
X185205713Y-31093866D01*
X185205713Y-31093866D02*
X185205713Y-31284342D01*
X185205713Y-31284342D02*
X185158094Y-31379580D01*
X185158094Y-31379580D02*
X185110475Y-31427200D01*
X185110475Y-31427200D02*
X185015237Y-31474819D01*
X185015237Y-31474819D02*
X184824761Y-31474819D01*
X184824761Y-31474819D02*
X184729523Y-31427200D01*
X184729523Y-31427200D02*
X184681904Y-31379580D01*
X184681904Y-31379580D02*
X184634285Y-31284342D01*
X184634285Y-31284342D02*
X184634285Y-31093866D01*
X184634285Y-31093866D02*
X184681904Y-30998628D01*
X184681904Y-30998628D02*
X184729523Y-30951009D01*
X184729523Y-30951009D02*
X184824761Y-30903390D01*
X262834285Y-50524819D02*
X262834285Y-49524819D01*
X262834285Y-49524819D02*
X262596190Y-49524819D01*
X262596190Y-49524819D02*
X262453333Y-49572438D01*
X262453333Y-49572438D02*
X262358095Y-49667676D01*
X262358095Y-49667676D02*
X262310476Y-49762914D01*
X262310476Y-49762914D02*
X262262857Y-49953390D01*
X262262857Y-49953390D02*
X262262857Y-50096247D01*
X262262857Y-50096247D02*
X262310476Y-50286723D01*
X262310476Y-50286723D02*
X262358095Y-50381961D01*
X262358095Y-50381961D02*
X262453333Y-50477200D01*
X262453333Y-50477200D02*
X262596190Y-50524819D01*
X262596190Y-50524819D02*
X262834285Y-50524819D01*
X261881904Y-49620057D02*
X261834285Y-49572438D01*
X261834285Y-49572438D02*
X261739047Y-49524819D01*
X261739047Y-49524819D02*
X261500952Y-49524819D01*
X261500952Y-49524819D02*
X261405714Y-49572438D01*
X261405714Y-49572438D02*
X261358095Y-49620057D01*
X261358095Y-49620057D02*
X261310476Y-49715295D01*
X261310476Y-49715295D02*
X261310476Y-49810533D01*
X261310476Y-49810533D02*
X261358095Y-49953390D01*
X261358095Y-49953390D02*
X261929523Y-50524819D01*
X261929523Y-50524819D02*
X261310476Y-50524819D01*
X260453333Y-49858152D02*
X260453333Y-50524819D01*
X260691428Y-49477200D02*
X260929523Y-50191485D01*
X260929523Y-50191485D02*
X260310476Y-50191485D01*
X91384285Y-50524819D02*
X91384285Y-49524819D01*
X91384285Y-49524819D02*
X91146190Y-49524819D01*
X91146190Y-49524819D02*
X91003333Y-49572438D01*
X91003333Y-49572438D02*
X90908095Y-49667676D01*
X90908095Y-49667676D02*
X90860476Y-49762914D01*
X90860476Y-49762914D02*
X90812857Y-49953390D01*
X90812857Y-49953390D02*
X90812857Y-50096247D01*
X90812857Y-50096247D02*
X90860476Y-50286723D01*
X90860476Y-50286723D02*
X90908095Y-50381961D01*
X90908095Y-50381961D02*
X91003333Y-50477200D01*
X91003333Y-50477200D02*
X91146190Y-50524819D01*
X91146190Y-50524819D02*
X91384285Y-50524819D01*
X89860476Y-50524819D02*
X90431904Y-50524819D01*
X90146190Y-50524819D02*
X90146190Y-49524819D01*
X90146190Y-49524819D02*
X90241428Y-49667676D01*
X90241428Y-49667676D02*
X90336666Y-49762914D01*
X90336666Y-49762914D02*
X90431904Y-49810533D01*
X89003333Y-49524819D02*
X89193809Y-49524819D01*
X89193809Y-49524819D02*
X89289047Y-49572438D01*
X89289047Y-49572438D02*
X89336666Y-49620057D01*
X89336666Y-49620057D02*
X89431904Y-49762914D01*
X89431904Y-49762914D02*
X89479523Y-49953390D01*
X89479523Y-49953390D02*
X89479523Y-50334342D01*
X89479523Y-50334342D02*
X89431904Y-50429580D01*
X89431904Y-50429580D02*
X89384285Y-50477200D01*
X89384285Y-50477200D02*
X89289047Y-50524819D01*
X89289047Y-50524819D02*
X89098571Y-50524819D01*
X89098571Y-50524819D02*
X89003333Y-50477200D01*
X89003333Y-50477200D02*
X88955714Y-50429580D01*
X88955714Y-50429580D02*
X88908095Y-50334342D01*
X88908095Y-50334342D02*
X88908095Y-50096247D01*
X88908095Y-50096247D02*
X88955714Y-50001009D01*
X88955714Y-50001009D02*
X89003333Y-49953390D01*
X89003333Y-49953390D02*
X89098571Y-49905771D01*
X89098571Y-49905771D02*
X89289047Y-49905771D01*
X89289047Y-49905771D02*
X89384285Y-49953390D01*
X89384285Y-49953390D02*
X89431904Y-50001009D01*
X89431904Y-50001009D02*
X89479523Y-50096247D01*
X205684285Y-50524819D02*
X205684285Y-49524819D01*
X205684285Y-49524819D02*
X205446190Y-49524819D01*
X205446190Y-49524819D02*
X205303333Y-49572438D01*
X205303333Y-49572438D02*
X205208095Y-49667676D01*
X205208095Y-49667676D02*
X205160476Y-49762914D01*
X205160476Y-49762914D02*
X205112857Y-49953390D01*
X205112857Y-49953390D02*
X205112857Y-50096247D01*
X205112857Y-50096247D02*
X205160476Y-50286723D01*
X205160476Y-50286723D02*
X205208095Y-50381961D01*
X205208095Y-50381961D02*
X205303333Y-50477200D01*
X205303333Y-50477200D02*
X205446190Y-50524819D01*
X205446190Y-50524819D02*
X205684285Y-50524819D01*
X204731904Y-49620057D02*
X204684285Y-49572438D01*
X204684285Y-49572438D02*
X204589047Y-49524819D01*
X204589047Y-49524819D02*
X204350952Y-49524819D01*
X204350952Y-49524819D02*
X204255714Y-49572438D01*
X204255714Y-49572438D02*
X204208095Y-49620057D01*
X204208095Y-49620057D02*
X204160476Y-49715295D01*
X204160476Y-49715295D02*
X204160476Y-49810533D01*
X204160476Y-49810533D02*
X204208095Y-49953390D01*
X204208095Y-49953390D02*
X204779523Y-50524819D01*
X204779523Y-50524819D02*
X204160476Y-50524819D01*
X203208095Y-50524819D02*
X203779523Y-50524819D01*
X203493809Y-50524819D02*
X203493809Y-49524819D01*
X203493809Y-49524819D02*
X203589047Y-49667676D01*
X203589047Y-49667676D02*
X203684285Y-49762914D01*
X203684285Y-49762914D02*
X203779523Y-49810533D01*
X129484285Y-88624819D02*
X129484285Y-87624819D01*
X129484285Y-87624819D02*
X129246190Y-87624819D01*
X129246190Y-87624819D02*
X129103333Y-87672438D01*
X129103333Y-87672438D02*
X129008095Y-87767676D01*
X129008095Y-87767676D02*
X128960476Y-87862914D01*
X128960476Y-87862914D02*
X128912857Y-88053390D01*
X128912857Y-88053390D02*
X128912857Y-88196247D01*
X128912857Y-88196247D02*
X128960476Y-88386723D01*
X128960476Y-88386723D02*
X129008095Y-88481961D01*
X129008095Y-88481961D02*
X129103333Y-88577200D01*
X129103333Y-88577200D02*
X129246190Y-88624819D01*
X129246190Y-88624819D02*
X129484285Y-88624819D01*
X128055714Y-87958152D02*
X128055714Y-88624819D01*
X128293809Y-87577200D02*
X128531904Y-88291485D01*
X128531904Y-88291485D02*
X127912857Y-88291485D01*
X127579523Y-87720057D02*
X127531904Y-87672438D01*
X127531904Y-87672438D02*
X127436666Y-87624819D01*
X127436666Y-87624819D02*
X127198571Y-87624819D01*
X127198571Y-87624819D02*
X127103333Y-87672438D01*
X127103333Y-87672438D02*
X127055714Y-87720057D01*
X127055714Y-87720057D02*
X127008095Y-87815295D01*
X127008095Y-87815295D02*
X127008095Y-87910533D01*
X127008095Y-87910533D02*
X127055714Y-88053390D01*
X127055714Y-88053390D02*
X127627142Y-88624819D01*
X127627142Y-88624819D02*
X127008095Y-88624819D01*
X129484285Y-69574819D02*
X129484285Y-68574819D01*
X129484285Y-68574819D02*
X129246190Y-68574819D01*
X129246190Y-68574819D02*
X129103333Y-68622438D01*
X129103333Y-68622438D02*
X129008095Y-68717676D01*
X129008095Y-68717676D02*
X128960476Y-68812914D01*
X128960476Y-68812914D02*
X128912857Y-69003390D01*
X128912857Y-69003390D02*
X128912857Y-69146247D01*
X128912857Y-69146247D02*
X128960476Y-69336723D01*
X128960476Y-69336723D02*
X129008095Y-69431961D01*
X129008095Y-69431961D02*
X129103333Y-69527200D01*
X129103333Y-69527200D02*
X129246190Y-69574819D01*
X129246190Y-69574819D02*
X129484285Y-69574819D01*
X128579523Y-68574819D02*
X127960476Y-68574819D01*
X127960476Y-68574819D02*
X128293809Y-68955771D01*
X128293809Y-68955771D02*
X128150952Y-68955771D01*
X128150952Y-68955771D02*
X128055714Y-69003390D01*
X128055714Y-69003390D02*
X128008095Y-69051009D01*
X128008095Y-69051009D02*
X127960476Y-69146247D01*
X127960476Y-69146247D02*
X127960476Y-69384342D01*
X127960476Y-69384342D02*
X128008095Y-69479580D01*
X128008095Y-69479580D02*
X128055714Y-69527200D01*
X128055714Y-69527200D02*
X128150952Y-69574819D01*
X128150952Y-69574819D02*
X128436666Y-69574819D01*
X128436666Y-69574819D02*
X128531904Y-69527200D01*
X128531904Y-69527200D02*
X128579523Y-69479580D01*
X127341428Y-68574819D02*
X127246190Y-68574819D01*
X127246190Y-68574819D02*
X127150952Y-68622438D01*
X127150952Y-68622438D02*
X127103333Y-68670057D01*
X127103333Y-68670057D02*
X127055714Y-68765295D01*
X127055714Y-68765295D02*
X127008095Y-68955771D01*
X127008095Y-68955771D02*
X127008095Y-69193866D01*
X127008095Y-69193866D02*
X127055714Y-69384342D01*
X127055714Y-69384342D02*
X127103333Y-69479580D01*
X127103333Y-69479580D02*
X127150952Y-69527200D01*
X127150952Y-69527200D02*
X127246190Y-69574819D01*
X127246190Y-69574819D02*
X127341428Y-69574819D01*
X127341428Y-69574819D02*
X127436666Y-69527200D01*
X127436666Y-69527200D02*
X127484285Y-69479580D01*
X127484285Y-69479580D02*
X127531904Y-69384342D01*
X127531904Y-69384342D02*
X127579523Y-69193866D01*
X127579523Y-69193866D02*
X127579523Y-68955771D01*
X127579523Y-68955771D02*
X127531904Y-68765295D01*
X127531904Y-68765295D02*
X127484285Y-68670057D01*
X127484285Y-68670057D02*
X127436666Y-68622438D01*
X127436666Y-68622438D02*
X127341428Y-68574819D01*
X53284285Y-88624819D02*
X53284285Y-87624819D01*
X53284285Y-87624819D02*
X53046190Y-87624819D01*
X53046190Y-87624819D02*
X52903333Y-87672438D01*
X52903333Y-87672438D02*
X52808095Y-87767676D01*
X52808095Y-87767676D02*
X52760476Y-87862914D01*
X52760476Y-87862914D02*
X52712857Y-88053390D01*
X52712857Y-88053390D02*
X52712857Y-88196247D01*
X52712857Y-88196247D02*
X52760476Y-88386723D01*
X52760476Y-88386723D02*
X52808095Y-88481961D01*
X52808095Y-88481961D02*
X52903333Y-88577200D01*
X52903333Y-88577200D02*
X53046190Y-88624819D01*
X53046190Y-88624819D02*
X53284285Y-88624819D01*
X52379523Y-87624819D02*
X51760476Y-87624819D01*
X51760476Y-87624819D02*
X52093809Y-88005771D01*
X52093809Y-88005771D02*
X51950952Y-88005771D01*
X51950952Y-88005771D02*
X51855714Y-88053390D01*
X51855714Y-88053390D02*
X51808095Y-88101009D01*
X51808095Y-88101009D02*
X51760476Y-88196247D01*
X51760476Y-88196247D02*
X51760476Y-88434342D01*
X51760476Y-88434342D02*
X51808095Y-88529580D01*
X51808095Y-88529580D02*
X51855714Y-88577200D01*
X51855714Y-88577200D02*
X51950952Y-88624819D01*
X51950952Y-88624819D02*
X52236666Y-88624819D01*
X52236666Y-88624819D02*
X52331904Y-88577200D01*
X52331904Y-88577200D02*
X52379523Y-88529580D01*
X51189047Y-88053390D02*
X51284285Y-88005771D01*
X51284285Y-88005771D02*
X51331904Y-87958152D01*
X51331904Y-87958152D02*
X51379523Y-87862914D01*
X51379523Y-87862914D02*
X51379523Y-87815295D01*
X51379523Y-87815295D02*
X51331904Y-87720057D01*
X51331904Y-87720057D02*
X51284285Y-87672438D01*
X51284285Y-87672438D02*
X51189047Y-87624819D01*
X51189047Y-87624819D02*
X50998571Y-87624819D01*
X50998571Y-87624819D02*
X50903333Y-87672438D01*
X50903333Y-87672438D02*
X50855714Y-87720057D01*
X50855714Y-87720057D02*
X50808095Y-87815295D01*
X50808095Y-87815295D02*
X50808095Y-87862914D01*
X50808095Y-87862914D02*
X50855714Y-87958152D01*
X50855714Y-87958152D02*
X50903333Y-88005771D01*
X50903333Y-88005771D02*
X50998571Y-88053390D01*
X50998571Y-88053390D02*
X51189047Y-88053390D01*
X51189047Y-88053390D02*
X51284285Y-88101009D01*
X51284285Y-88101009D02*
X51331904Y-88148628D01*
X51331904Y-88148628D02*
X51379523Y-88243866D01*
X51379523Y-88243866D02*
X51379523Y-88434342D01*
X51379523Y-88434342D02*
X51331904Y-88529580D01*
X51331904Y-88529580D02*
X51284285Y-88577200D01*
X51284285Y-88577200D02*
X51189047Y-88624819D01*
X51189047Y-88624819D02*
X50998571Y-88624819D01*
X50998571Y-88624819D02*
X50903333Y-88577200D01*
X50903333Y-88577200D02*
X50855714Y-88529580D01*
X50855714Y-88529580D02*
X50808095Y-88434342D01*
X50808095Y-88434342D02*
X50808095Y-88243866D01*
X50808095Y-88243866D02*
X50855714Y-88148628D01*
X50855714Y-88148628D02*
X50903333Y-88101009D01*
X50903333Y-88101009D02*
X50998571Y-88053390D01*
X72334285Y-88624819D02*
X72334285Y-87624819D01*
X72334285Y-87624819D02*
X72096190Y-87624819D01*
X72096190Y-87624819D02*
X71953333Y-87672438D01*
X71953333Y-87672438D02*
X71858095Y-87767676D01*
X71858095Y-87767676D02*
X71810476Y-87862914D01*
X71810476Y-87862914D02*
X71762857Y-88053390D01*
X71762857Y-88053390D02*
X71762857Y-88196247D01*
X71762857Y-88196247D02*
X71810476Y-88386723D01*
X71810476Y-88386723D02*
X71858095Y-88481961D01*
X71858095Y-88481961D02*
X71953333Y-88577200D01*
X71953333Y-88577200D02*
X72096190Y-88624819D01*
X72096190Y-88624819D02*
X72334285Y-88624819D01*
X71429523Y-87624819D02*
X70810476Y-87624819D01*
X70810476Y-87624819D02*
X71143809Y-88005771D01*
X71143809Y-88005771D02*
X71000952Y-88005771D01*
X71000952Y-88005771D02*
X70905714Y-88053390D01*
X70905714Y-88053390D02*
X70858095Y-88101009D01*
X70858095Y-88101009D02*
X70810476Y-88196247D01*
X70810476Y-88196247D02*
X70810476Y-88434342D01*
X70810476Y-88434342D02*
X70858095Y-88529580D01*
X70858095Y-88529580D02*
X70905714Y-88577200D01*
X70905714Y-88577200D02*
X71000952Y-88624819D01*
X71000952Y-88624819D02*
X71286666Y-88624819D01*
X71286666Y-88624819D02*
X71381904Y-88577200D01*
X71381904Y-88577200D02*
X71429523Y-88529580D01*
X70334285Y-88624819D02*
X70143809Y-88624819D01*
X70143809Y-88624819D02*
X70048571Y-88577200D01*
X70048571Y-88577200D02*
X70000952Y-88529580D01*
X70000952Y-88529580D02*
X69905714Y-88386723D01*
X69905714Y-88386723D02*
X69858095Y-88196247D01*
X69858095Y-88196247D02*
X69858095Y-87815295D01*
X69858095Y-87815295D02*
X69905714Y-87720057D01*
X69905714Y-87720057D02*
X69953333Y-87672438D01*
X69953333Y-87672438D02*
X70048571Y-87624819D01*
X70048571Y-87624819D02*
X70239047Y-87624819D01*
X70239047Y-87624819D02*
X70334285Y-87672438D01*
X70334285Y-87672438D02*
X70381904Y-87720057D01*
X70381904Y-87720057D02*
X70429523Y-87815295D01*
X70429523Y-87815295D02*
X70429523Y-88053390D01*
X70429523Y-88053390D02*
X70381904Y-88148628D01*
X70381904Y-88148628D02*
X70334285Y-88196247D01*
X70334285Y-88196247D02*
X70239047Y-88243866D01*
X70239047Y-88243866D02*
X70048571Y-88243866D01*
X70048571Y-88243866D02*
X69953333Y-88196247D01*
X69953333Y-88196247D02*
X69905714Y-88148628D01*
X69905714Y-88148628D02*
X69858095Y-88053390D01*
X211304047Y-73789819D02*
X211780237Y-73789819D01*
X211780237Y-73789819D02*
X211780237Y-72789819D01*
X210970713Y-73266009D02*
X210637380Y-73266009D01*
X210494523Y-73789819D02*
X210970713Y-73789819D01*
X210970713Y-73789819D02*
X210970713Y-72789819D01*
X210970713Y-72789819D02*
X210494523Y-72789819D01*
X210065951Y-73789819D02*
X210065951Y-72789819D01*
X210065951Y-72789819D02*
X209827856Y-72789819D01*
X209827856Y-72789819D02*
X209684999Y-72837438D01*
X209684999Y-72837438D02*
X209589761Y-72932676D01*
X209589761Y-72932676D02*
X209542142Y-73027914D01*
X209542142Y-73027914D02*
X209494523Y-73218390D01*
X209494523Y-73218390D02*
X209494523Y-73361247D01*
X209494523Y-73361247D02*
X209542142Y-73551723D01*
X209542142Y-73551723D02*
X209589761Y-73646961D01*
X209589761Y-73646961D02*
X209684999Y-73742200D01*
X209684999Y-73742200D02*
X209827856Y-73789819D01*
X209827856Y-73789819D02*
X210065951Y-73789819D01*
X208923094Y-73218390D02*
X209018332Y-73170771D01*
X209018332Y-73170771D02*
X209065951Y-73123152D01*
X209065951Y-73123152D02*
X209113570Y-73027914D01*
X209113570Y-73027914D02*
X209113570Y-72980295D01*
X209113570Y-72980295D02*
X209065951Y-72885057D01*
X209065951Y-72885057D02*
X209018332Y-72837438D01*
X209018332Y-72837438D02*
X208923094Y-72789819D01*
X208923094Y-72789819D02*
X208732618Y-72789819D01*
X208732618Y-72789819D02*
X208637380Y-72837438D01*
X208637380Y-72837438D02*
X208589761Y-72885057D01*
X208589761Y-72885057D02*
X208542142Y-72980295D01*
X208542142Y-72980295D02*
X208542142Y-73027914D01*
X208542142Y-73027914D02*
X208589761Y-73123152D01*
X208589761Y-73123152D02*
X208637380Y-73170771D01*
X208637380Y-73170771D02*
X208732618Y-73218390D01*
X208732618Y-73218390D02*
X208923094Y-73218390D01*
X208923094Y-73218390D02*
X209018332Y-73266009D01*
X209018332Y-73266009D02*
X209065951Y-73313628D01*
X209065951Y-73313628D02*
X209113570Y-73408866D01*
X209113570Y-73408866D02*
X209113570Y-73599342D01*
X209113570Y-73599342D02*
X209065951Y-73694580D01*
X209065951Y-73694580D02*
X209018332Y-73742200D01*
X209018332Y-73742200D02*
X208923094Y-73789819D01*
X208923094Y-73789819D02*
X208732618Y-73789819D01*
X208732618Y-73789819D02*
X208637380Y-73742200D01*
X208637380Y-73742200D02*
X208589761Y-73694580D01*
X208589761Y-73694580D02*
X208542142Y-73599342D01*
X208542142Y-73599342D02*
X208542142Y-73408866D01*
X208542142Y-73408866D02*
X208589761Y-73313628D01*
X208589761Y-73313628D02*
X208637380Y-73266009D01*
X208637380Y-73266009D02*
X208732618Y-73218390D01*
X214049285Y-75689819D02*
X214620713Y-75689819D01*
X214334999Y-75689819D02*
X214334999Y-74689819D01*
X214334999Y-74689819D02*
X214430237Y-74832676D01*
X214430237Y-74832676D02*
X214525475Y-74927914D01*
X214525475Y-74927914D02*
X214620713Y-74975533D01*
X262834285Y-31474819D02*
X262834285Y-30474819D01*
X262834285Y-30474819D02*
X262596190Y-30474819D01*
X262596190Y-30474819D02*
X262453333Y-30522438D01*
X262453333Y-30522438D02*
X262358095Y-30617676D01*
X262358095Y-30617676D02*
X262310476Y-30712914D01*
X262310476Y-30712914D02*
X262262857Y-30903390D01*
X262262857Y-30903390D02*
X262262857Y-31046247D01*
X262262857Y-31046247D02*
X262310476Y-31236723D01*
X262310476Y-31236723D02*
X262358095Y-31331961D01*
X262358095Y-31331961D02*
X262453333Y-31427200D01*
X262453333Y-31427200D02*
X262596190Y-31474819D01*
X262596190Y-31474819D02*
X262834285Y-31474819D01*
X261310476Y-31474819D02*
X261881904Y-31474819D01*
X261596190Y-31474819D02*
X261596190Y-30474819D01*
X261596190Y-30474819D02*
X261691428Y-30617676D01*
X261691428Y-30617676D02*
X261786666Y-30712914D01*
X261786666Y-30712914D02*
X261881904Y-30760533D01*
X260929523Y-30570057D02*
X260881904Y-30522438D01*
X260881904Y-30522438D02*
X260786666Y-30474819D01*
X260786666Y-30474819D02*
X260548571Y-30474819D01*
X260548571Y-30474819D02*
X260453333Y-30522438D01*
X260453333Y-30522438D02*
X260405714Y-30570057D01*
X260405714Y-30570057D02*
X260358095Y-30665295D01*
X260358095Y-30665295D02*
X260358095Y-30760533D01*
X260358095Y-30760533D02*
X260405714Y-30903390D01*
X260405714Y-30903390D02*
X260977142Y-31474819D01*
X260977142Y-31474819D02*
X260358095Y-31474819D01*
X224734285Y-50524819D02*
X224734285Y-49524819D01*
X224734285Y-49524819D02*
X224496190Y-49524819D01*
X224496190Y-49524819D02*
X224353333Y-49572438D01*
X224353333Y-49572438D02*
X224258095Y-49667676D01*
X224258095Y-49667676D02*
X224210476Y-49762914D01*
X224210476Y-49762914D02*
X224162857Y-49953390D01*
X224162857Y-49953390D02*
X224162857Y-50096247D01*
X224162857Y-50096247D02*
X224210476Y-50286723D01*
X224210476Y-50286723D02*
X224258095Y-50381961D01*
X224258095Y-50381961D02*
X224353333Y-50477200D01*
X224353333Y-50477200D02*
X224496190Y-50524819D01*
X224496190Y-50524819D02*
X224734285Y-50524819D01*
X223781904Y-49620057D02*
X223734285Y-49572438D01*
X223734285Y-49572438D02*
X223639047Y-49524819D01*
X223639047Y-49524819D02*
X223400952Y-49524819D01*
X223400952Y-49524819D02*
X223305714Y-49572438D01*
X223305714Y-49572438D02*
X223258095Y-49620057D01*
X223258095Y-49620057D02*
X223210476Y-49715295D01*
X223210476Y-49715295D02*
X223210476Y-49810533D01*
X223210476Y-49810533D02*
X223258095Y-49953390D01*
X223258095Y-49953390D02*
X223829523Y-50524819D01*
X223829523Y-50524819D02*
X223210476Y-50524819D01*
X222829523Y-49620057D02*
X222781904Y-49572438D01*
X222781904Y-49572438D02*
X222686666Y-49524819D01*
X222686666Y-49524819D02*
X222448571Y-49524819D01*
X222448571Y-49524819D02*
X222353333Y-49572438D01*
X222353333Y-49572438D02*
X222305714Y-49620057D01*
X222305714Y-49620057D02*
X222258095Y-49715295D01*
X222258095Y-49715295D02*
X222258095Y-49810533D01*
X222258095Y-49810533D02*
X222305714Y-49953390D01*
X222305714Y-49953390D02*
X222877142Y-50524819D01*
X222877142Y-50524819D02*
X222258095Y-50524819D01*
X109958094Y-31474819D02*
X109958094Y-30474819D01*
X109958094Y-30474819D02*
X109719999Y-30474819D01*
X109719999Y-30474819D02*
X109577142Y-30522438D01*
X109577142Y-30522438D02*
X109481904Y-30617676D01*
X109481904Y-30617676D02*
X109434285Y-30712914D01*
X109434285Y-30712914D02*
X109386666Y-30903390D01*
X109386666Y-30903390D02*
X109386666Y-31046247D01*
X109386666Y-31046247D02*
X109434285Y-31236723D01*
X109434285Y-31236723D02*
X109481904Y-31331961D01*
X109481904Y-31331961D02*
X109577142Y-31427200D01*
X109577142Y-31427200D02*
X109719999Y-31474819D01*
X109719999Y-31474819D02*
X109958094Y-31474819D01*
X108481904Y-30474819D02*
X108958094Y-30474819D01*
X108958094Y-30474819D02*
X109005713Y-30951009D01*
X109005713Y-30951009D02*
X108958094Y-30903390D01*
X108958094Y-30903390D02*
X108862856Y-30855771D01*
X108862856Y-30855771D02*
X108624761Y-30855771D01*
X108624761Y-30855771D02*
X108529523Y-30903390D01*
X108529523Y-30903390D02*
X108481904Y-30951009D01*
X108481904Y-30951009D02*
X108434285Y-31046247D01*
X108434285Y-31046247D02*
X108434285Y-31284342D01*
X108434285Y-31284342D02*
X108481904Y-31379580D01*
X108481904Y-31379580D02*
X108529523Y-31427200D01*
X108529523Y-31427200D02*
X108624761Y-31474819D01*
X108624761Y-31474819D02*
X108862856Y-31474819D01*
X108862856Y-31474819D02*
X108958094Y-31427200D01*
X108958094Y-31427200D02*
X109005713Y-31379580D01*
X167584285Y-50524819D02*
X167584285Y-49524819D01*
X167584285Y-49524819D02*
X167346190Y-49524819D01*
X167346190Y-49524819D02*
X167203333Y-49572438D01*
X167203333Y-49572438D02*
X167108095Y-49667676D01*
X167108095Y-49667676D02*
X167060476Y-49762914D01*
X167060476Y-49762914D02*
X167012857Y-49953390D01*
X167012857Y-49953390D02*
X167012857Y-50096247D01*
X167012857Y-50096247D02*
X167060476Y-50286723D01*
X167060476Y-50286723D02*
X167108095Y-50381961D01*
X167108095Y-50381961D02*
X167203333Y-50477200D01*
X167203333Y-50477200D02*
X167346190Y-50524819D01*
X167346190Y-50524819D02*
X167584285Y-50524819D01*
X166060476Y-50524819D02*
X166631904Y-50524819D01*
X166346190Y-50524819D02*
X166346190Y-49524819D01*
X166346190Y-49524819D02*
X166441428Y-49667676D01*
X166441428Y-49667676D02*
X166536666Y-49762914D01*
X166536666Y-49762914D02*
X166631904Y-49810533D01*
X165584285Y-50524819D02*
X165393809Y-50524819D01*
X165393809Y-50524819D02*
X165298571Y-50477200D01*
X165298571Y-50477200D02*
X165250952Y-50429580D01*
X165250952Y-50429580D02*
X165155714Y-50286723D01*
X165155714Y-50286723D02*
X165108095Y-50096247D01*
X165108095Y-50096247D02*
X165108095Y-49715295D01*
X165108095Y-49715295D02*
X165155714Y-49620057D01*
X165155714Y-49620057D02*
X165203333Y-49572438D01*
X165203333Y-49572438D02*
X165298571Y-49524819D01*
X165298571Y-49524819D02*
X165489047Y-49524819D01*
X165489047Y-49524819D02*
X165584285Y-49572438D01*
X165584285Y-49572438D02*
X165631904Y-49620057D01*
X165631904Y-49620057D02*
X165679523Y-49715295D01*
X165679523Y-49715295D02*
X165679523Y-49953390D01*
X165679523Y-49953390D02*
X165631904Y-50048628D01*
X165631904Y-50048628D02*
X165584285Y-50096247D01*
X165584285Y-50096247D02*
X165489047Y-50143866D01*
X165489047Y-50143866D02*
X165298571Y-50143866D01*
X165298571Y-50143866D02*
X165203333Y-50096247D01*
X165203333Y-50096247D02*
X165155714Y-50048628D01*
X165155714Y-50048628D02*
X165108095Y-49953390D01*
X77954047Y-42689819D02*
X78430237Y-42689819D01*
X78430237Y-42689819D02*
X78430237Y-41689819D01*
X77620713Y-42166009D02*
X77287380Y-42166009D01*
X77144523Y-42689819D02*
X77620713Y-42689819D01*
X77620713Y-42689819D02*
X77620713Y-41689819D01*
X77620713Y-41689819D02*
X77144523Y-41689819D01*
X76715951Y-42689819D02*
X76715951Y-41689819D01*
X76715951Y-41689819D02*
X76477856Y-41689819D01*
X76477856Y-41689819D02*
X76334999Y-41737438D01*
X76334999Y-41737438D02*
X76239761Y-41832676D01*
X76239761Y-41832676D02*
X76192142Y-41927914D01*
X76192142Y-41927914D02*
X76144523Y-42118390D01*
X76144523Y-42118390D02*
X76144523Y-42261247D01*
X76144523Y-42261247D02*
X76192142Y-42451723D01*
X76192142Y-42451723D02*
X76239761Y-42546961D01*
X76239761Y-42546961D02*
X76334999Y-42642200D01*
X76334999Y-42642200D02*
X76477856Y-42689819D01*
X76477856Y-42689819D02*
X76715951Y-42689819D01*
X75763570Y-41785057D02*
X75715951Y-41737438D01*
X75715951Y-41737438D02*
X75620713Y-41689819D01*
X75620713Y-41689819D02*
X75382618Y-41689819D01*
X75382618Y-41689819D02*
X75287380Y-41737438D01*
X75287380Y-41737438D02*
X75239761Y-41785057D01*
X75239761Y-41785057D02*
X75192142Y-41880295D01*
X75192142Y-41880295D02*
X75192142Y-41975533D01*
X75192142Y-41975533D02*
X75239761Y-42118390D01*
X75239761Y-42118390D02*
X75811189Y-42689819D01*
X75811189Y-42689819D02*
X75192142Y-42689819D01*
X72399285Y-40789819D02*
X72970713Y-40789819D01*
X72684999Y-40789819D02*
X72684999Y-39789819D01*
X72684999Y-39789819D02*
X72780237Y-39932676D01*
X72780237Y-39932676D02*
X72875475Y-40027914D01*
X72875475Y-40027914D02*
X72970713Y-40075533D01*
X129484285Y-50524819D02*
X129484285Y-49524819D01*
X129484285Y-49524819D02*
X129246190Y-49524819D01*
X129246190Y-49524819D02*
X129103333Y-49572438D01*
X129103333Y-49572438D02*
X129008095Y-49667676D01*
X129008095Y-49667676D02*
X128960476Y-49762914D01*
X128960476Y-49762914D02*
X128912857Y-49953390D01*
X128912857Y-49953390D02*
X128912857Y-50096247D01*
X128912857Y-50096247D02*
X128960476Y-50286723D01*
X128960476Y-50286723D02*
X129008095Y-50381961D01*
X129008095Y-50381961D02*
X129103333Y-50477200D01*
X129103333Y-50477200D02*
X129246190Y-50524819D01*
X129246190Y-50524819D02*
X129484285Y-50524819D01*
X127960476Y-50524819D02*
X128531904Y-50524819D01*
X128246190Y-50524819D02*
X128246190Y-49524819D01*
X128246190Y-49524819D02*
X128341428Y-49667676D01*
X128341428Y-49667676D02*
X128436666Y-49762914D01*
X128436666Y-49762914D02*
X128531904Y-49810533D01*
X127389047Y-49953390D02*
X127484285Y-49905771D01*
X127484285Y-49905771D02*
X127531904Y-49858152D01*
X127531904Y-49858152D02*
X127579523Y-49762914D01*
X127579523Y-49762914D02*
X127579523Y-49715295D01*
X127579523Y-49715295D02*
X127531904Y-49620057D01*
X127531904Y-49620057D02*
X127484285Y-49572438D01*
X127484285Y-49572438D02*
X127389047Y-49524819D01*
X127389047Y-49524819D02*
X127198571Y-49524819D01*
X127198571Y-49524819D02*
X127103333Y-49572438D01*
X127103333Y-49572438D02*
X127055714Y-49620057D01*
X127055714Y-49620057D02*
X127008095Y-49715295D01*
X127008095Y-49715295D02*
X127008095Y-49762914D01*
X127008095Y-49762914D02*
X127055714Y-49858152D01*
X127055714Y-49858152D02*
X127103333Y-49905771D01*
X127103333Y-49905771D02*
X127198571Y-49953390D01*
X127198571Y-49953390D02*
X127389047Y-49953390D01*
X127389047Y-49953390D02*
X127484285Y-50001009D01*
X127484285Y-50001009D02*
X127531904Y-50048628D01*
X127531904Y-50048628D02*
X127579523Y-50143866D01*
X127579523Y-50143866D02*
X127579523Y-50334342D01*
X127579523Y-50334342D02*
X127531904Y-50429580D01*
X127531904Y-50429580D02*
X127484285Y-50477200D01*
X127484285Y-50477200D02*
X127389047Y-50524819D01*
X127389047Y-50524819D02*
X127198571Y-50524819D01*
X127198571Y-50524819D02*
X127103333Y-50477200D01*
X127103333Y-50477200D02*
X127055714Y-50429580D01*
X127055714Y-50429580D02*
X127008095Y-50334342D01*
X127008095Y-50334342D02*
X127008095Y-50143866D01*
X127008095Y-50143866D02*
X127055714Y-50048628D01*
X127055714Y-50048628D02*
X127103333Y-50001009D01*
X127103333Y-50001009D02*
X127198571Y-49953390D01*
X262834285Y-69574819D02*
X262834285Y-68574819D01*
X262834285Y-68574819D02*
X262596190Y-68574819D01*
X262596190Y-68574819D02*
X262453333Y-68622438D01*
X262453333Y-68622438D02*
X262358095Y-68717676D01*
X262358095Y-68717676D02*
X262310476Y-68812914D01*
X262310476Y-68812914D02*
X262262857Y-69003390D01*
X262262857Y-69003390D02*
X262262857Y-69146247D01*
X262262857Y-69146247D02*
X262310476Y-69336723D01*
X262310476Y-69336723D02*
X262358095Y-69431961D01*
X262358095Y-69431961D02*
X262453333Y-69527200D01*
X262453333Y-69527200D02*
X262596190Y-69574819D01*
X262596190Y-69574819D02*
X262834285Y-69574819D01*
X261929523Y-68574819D02*
X261310476Y-68574819D01*
X261310476Y-68574819D02*
X261643809Y-68955771D01*
X261643809Y-68955771D02*
X261500952Y-68955771D01*
X261500952Y-68955771D02*
X261405714Y-69003390D01*
X261405714Y-69003390D02*
X261358095Y-69051009D01*
X261358095Y-69051009D02*
X261310476Y-69146247D01*
X261310476Y-69146247D02*
X261310476Y-69384342D01*
X261310476Y-69384342D02*
X261358095Y-69479580D01*
X261358095Y-69479580D02*
X261405714Y-69527200D01*
X261405714Y-69527200D02*
X261500952Y-69574819D01*
X261500952Y-69574819D02*
X261786666Y-69574819D01*
X261786666Y-69574819D02*
X261881904Y-69527200D01*
X261881904Y-69527200D02*
X261929523Y-69479580D01*
X260453333Y-68574819D02*
X260643809Y-68574819D01*
X260643809Y-68574819D02*
X260739047Y-68622438D01*
X260739047Y-68622438D02*
X260786666Y-68670057D01*
X260786666Y-68670057D02*
X260881904Y-68812914D01*
X260881904Y-68812914D02*
X260929523Y-69003390D01*
X260929523Y-69003390D02*
X260929523Y-69384342D01*
X260929523Y-69384342D02*
X260881904Y-69479580D01*
X260881904Y-69479580D02*
X260834285Y-69527200D01*
X260834285Y-69527200D02*
X260739047Y-69574819D01*
X260739047Y-69574819D02*
X260548571Y-69574819D01*
X260548571Y-69574819D02*
X260453333Y-69527200D01*
X260453333Y-69527200D02*
X260405714Y-69479580D01*
X260405714Y-69479580D02*
X260358095Y-69384342D01*
X260358095Y-69384342D02*
X260358095Y-69146247D01*
X260358095Y-69146247D02*
X260405714Y-69051009D01*
X260405714Y-69051009D02*
X260453333Y-69003390D01*
X260453333Y-69003390D02*
X260548571Y-68955771D01*
X260548571Y-68955771D02*
X260739047Y-68955771D01*
X260739047Y-68955771D02*
X260834285Y-69003390D01*
X260834285Y-69003390D02*
X260881904Y-69051009D01*
X260881904Y-69051009D02*
X260929523Y-69146247D01*
X205208094Y-31474819D02*
X205208094Y-30474819D01*
X205208094Y-30474819D02*
X204969999Y-30474819D01*
X204969999Y-30474819D02*
X204827142Y-30522438D01*
X204827142Y-30522438D02*
X204731904Y-30617676D01*
X204731904Y-30617676D02*
X204684285Y-30712914D01*
X204684285Y-30712914D02*
X204636666Y-30903390D01*
X204636666Y-30903390D02*
X204636666Y-31046247D01*
X204636666Y-31046247D02*
X204684285Y-31236723D01*
X204684285Y-31236723D02*
X204731904Y-31331961D01*
X204731904Y-31331961D02*
X204827142Y-31427200D01*
X204827142Y-31427200D02*
X204969999Y-31474819D01*
X204969999Y-31474819D02*
X205208094Y-31474819D01*
X204160475Y-31474819D02*
X203969999Y-31474819D01*
X203969999Y-31474819D02*
X203874761Y-31427200D01*
X203874761Y-31427200D02*
X203827142Y-31379580D01*
X203827142Y-31379580D02*
X203731904Y-31236723D01*
X203731904Y-31236723D02*
X203684285Y-31046247D01*
X203684285Y-31046247D02*
X203684285Y-30665295D01*
X203684285Y-30665295D02*
X203731904Y-30570057D01*
X203731904Y-30570057D02*
X203779523Y-30522438D01*
X203779523Y-30522438D02*
X203874761Y-30474819D01*
X203874761Y-30474819D02*
X204065237Y-30474819D01*
X204065237Y-30474819D02*
X204160475Y-30522438D01*
X204160475Y-30522438D02*
X204208094Y-30570057D01*
X204208094Y-30570057D02*
X204255713Y-30665295D01*
X204255713Y-30665295D02*
X204255713Y-30903390D01*
X204255713Y-30903390D02*
X204208094Y-30998628D01*
X204208094Y-30998628D02*
X204160475Y-31046247D01*
X204160475Y-31046247D02*
X204065237Y-31093866D01*
X204065237Y-31093866D02*
X203874761Y-31093866D01*
X203874761Y-31093866D02*
X203779523Y-31046247D01*
X203779523Y-31046247D02*
X203731904Y-30998628D01*
X203731904Y-30998628D02*
X203684285Y-30903390D01*
X249880238Y-42689819D02*
X250356428Y-42689819D01*
X250356428Y-42689819D02*
X250356428Y-41689819D01*
X249546904Y-42166009D02*
X249213571Y-42166009D01*
X249070714Y-42689819D02*
X249546904Y-42689819D01*
X249546904Y-42689819D02*
X249546904Y-41689819D01*
X249546904Y-41689819D02*
X249070714Y-41689819D01*
X248642142Y-42689819D02*
X248642142Y-41689819D01*
X248642142Y-41689819D02*
X248404047Y-41689819D01*
X248404047Y-41689819D02*
X248261190Y-41737438D01*
X248261190Y-41737438D02*
X248165952Y-41832676D01*
X248165952Y-41832676D02*
X248118333Y-41927914D01*
X248118333Y-41927914D02*
X248070714Y-42118390D01*
X248070714Y-42118390D02*
X248070714Y-42261247D01*
X248070714Y-42261247D02*
X248118333Y-42451723D01*
X248118333Y-42451723D02*
X248165952Y-42546961D01*
X248165952Y-42546961D02*
X248261190Y-42642200D01*
X248261190Y-42642200D02*
X248404047Y-42689819D01*
X248404047Y-42689819D02*
X248642142Y-42689819D01*
X247118333Y-42689819D02*
X247689761Y-42689819D01*
X247404047Y-42689819D02*
X247404047Y-41689819D01*
X247404047Y-41689819D02*
X247499285Y-41832676D01*
X247499285Y-41832676D02*
X247594523Y-41927914D01*
X247594523Y-41927914D02*
X247689761Y-41975533D01*
X246499285Y-41689819D02*
X246404047Y-41689819D01*
X246404047Y-41689819D02*
X246308809Y-41737438D01*
X246308809Y-41737438D02*
X246261190Y-41785057D01*
X246261190Y-41785057D02*
X246213571Y-41880295D01*
X246213571Y-41880295D02*
X246165952Y-42070771D01*
X246165952Y-42070771D02*
X246165952Y-42308866D01*
X246165952Y-42308866D02*
X246213571Y-42499342D01*
X246213571Y-42499342D02*
X246261190Y-42594580D01*
X246261190Y-42594580D02*
X246308809Y-42642200D01*
X246308809Y-42642200D02*
X246404047Y-42689819D01*
X246404047Y-42689819D02*
X246499285Y-42689819D01*
X246499285Y-42689819D02*
X246594523Y-42642200D01*
X246594523Y-42642200D02*
X246642142Y-42594580D01*
X246642142Y-42594580D02*
X246689761Y-42499342D01*
X246689761Y-42499342D02*
X246737380Y-42308866D01*
X246737380Y-42308866D02*
X246737380Y-42070771D01*
X246737380Y-42070771D02*
X246689761Y-41880295D01*
X246689761Y-41880295D02*
X246642142Y-41785057D01*
X246642142Y-41785057D02*
X246594523Y-41737438D01*
X246594523Y-41737438D02*
X246499285Y-41689819D01*
X243849285Y-40789819D02*
X244420713Y-40789819D01*
X244134999Y-40789819D02*
X244134999Y-39789819D01*
X244134999Y-39789819D02*
X244230237Y-39932676D01*
X244230237Y-39932676D02*
X244325475Y-40027914D01*
X244325475Y-40027914D02*
X244420713Y-40075533D01*
X243784285Y-69574819D02*
X243784285Y-68574819D01*
X243784285Y-68574819D02*
X243546190Y-68574819D01*
X243546190Y-68574819D02*
X243403333Y-68622438D01*
X243403333Y-68622438D02*
X243308095Y-68717676D01*
X243308095Y-68717676D02*
X243260476Y-68812914D01*
X243260476Y-68812914D02*
X243212857Y-69003390D01*
X243212857Y-69003390D02*
X243212857Y-69146247D01*
X243212857Y-69146247D02*
X243260476Y-69336723D01*
X243260476Y-69336723D02*
X243308095Y-69431961D01*
X243308095Y-69431961D02*
X243403333Y-69527200D01*
X243403333Y-69527200D02*
X243546190Y-69574819D01*
X243546190Y-69574819D02*
X243784285Y-69574819D01*
X242879523Y-68574819D02*
X242260476Y-68574819D01*
X242260476Y-68574819D02*
X242593809Y-68955771D01*
X242593809Y-68955771D02*
X242450952Y-68955771D01*
X242450952Y-68955771D02*
X242355714Y-69003390D01*
X242355714Y-69003390D02*
X242308095Y-69051009D01*
X242308095Y-69051009D02*
X242260476Y-69146247D01*
X242260476Y-69146247D02*
X242260476Y-69384342D01*
X242260476Y-69384342D02*
X242308095Y-69479580D01*
X242308095Y-69479580D02*
X242355714Y-69527200D01*
X242355714Y-69527200D02*
X242450952Y-69574819D01*
X242450952Y-69574819D02*
X242736666Y-69574819D01*
X242736666Y-69574819D02*
X242831904Y-69527200D01*
X242831904Y-69527200D02*
X242879523Y-69479580D01*
X241355714Y-68574819D02*
X241831904Y-68574819D01*
X241831904Y-68574819D02*
X241879523Y-69051009D01*
X241879523Y-69051009D02*
X241831904Y-69003390D01*
X241831904Y-69003390D02*
X241736666Y-68955771D01*
X241736666Y-68955771D02*
X241498571Y-68955771D01*
X241498571Y-68955771D02*
X241403333Y-69003390D01*
X241403333Y-69003390D02*
X241355714Y-69051009D01*
X241355714Y-69051009D02*
X241308095Y-69146247D01*
X241308095Y-69146247D02*
X241308095Y-69384342D01*
X241308095Y-69384342D02*
X241355714Y-69479580D01*
X241355714Y-69479580D02*
X241403333Y-69527200D01*
X241403333Y-69527200D02*
X241498571Y-69574819D01*
X241498571Y-69574819D02*
X241736666Y-69574819D01*
X241736666Y-69574819D02*
X241831904Y-69527200D01*
X241831904Y-69527200D02*
X241879523Y-69479580D01*
X243784285Y-50524819D02*
X243784285Y-49524819D01*
X243784285Y-49524819D02*
X243546190Y-49524819D01*
X243546190Y-49524819D02*
X243403333Y-49572438D01*
X243403333Y-49572438D02*
X243308095Y-49667676D01*
X243308095Y-49667676D02*
X243260476Y-49762914D01*
X243260476Y-49762914D02*
X243212857Y-49953390D01*
X243212857Y-49953390D02*
X243212857Y-50096247D01*
X243212857Y-50096247D02*
X243260476Y-50286723D01*
X243260476Y-50286723D02*
X243308095Y-50381961D01*
X243308095Y-50381961D02*
X243403333Y-50477200D01*
X243403333Y-50477200D02*
X243546190Y-50524819D01*
X243546190Y-50524819D02*
X243784285Y-50524819D01*
X242831904Y-49620057D02*
X242784285Y-49572438D01*
X242784285Y-49572438D02*
X242689047Y-49524819D01*
X242689047Y-49524819D02*
X242450952Y-49524819D01*
X242450952Y-49524819D02*
X242355714Y-49572438D01*
X242355714Y-49572438D02*
X242308095Y-49620057D01*
X242308095Y-49620057D02*
X242260476Y-49715295D01*
X242260476Y-49715295D02*
X242260476Y-49810533D01*
X242260476Y-49810533D02*
X242308095Y-49953390D01*
X242308095Y-49953390D02*
X242879523Y-50524819D01*
X242879523Y-50524819D02*
X242260476Y-50524819D01*
X241927142Y-49524819D02*
X241308095Y-49524819D01*
X241308095Y-49524819D02*
X241641428Y-49905771D01*
X241641428Y-49905771D02*
X241498571Y-49905771D01*
X241498571Y-49905771D02*
X241403333Y-49953390D01*
X241403333Y-49953390D02*
X241355714Y-50001009D01*
X241355714Y-50001009D02*
X241308095Y-50096247D01*
X241308095Y-50096247D02*
X241308095Y-50334342D01*
X241308095Y-50334342D02*
X241355714Y-50429580D01*
X241355714Y-50429580D02*
X241403333Y-50477200D01*
X241403333Y-50477200D02*
X241498571Y-50524819D01*
X241498571Y-50524819D02*
X241784285Y-50524819D01*
X241784285Y-50524819D02*
X241879523Y-50477200D01*
X241879523Y-50477200D02*
X241927142Y-50429580D01*
X110434285Y-88624819D02*
X110434285Y-87624819D01*
X110434285Y-87624819D02*
X110196190Y-87624819D01*
X110196190Y-87624819D02*
X110053333Y-87672438D01*
X110053333Y-87672438D02*
X109958095Y-87767676D01*
X109958095Y-87767676D02*
X109910476Y-87862914D01*
X109910476Y-87862914D02*
X109862857Y-88053390D01*
X109862857Y-88053390D02*
X109862857Y-88196247D01*
X109862857Y-88196247D02*
X109910476Y-88386723D01*
X109910476Y-88386723D02*
X109958095Y-88481961D01*
X109958095Y-88481961D02*
X110053333Y-88577200D01*
X110053333Y-88577200D02*
X110196190Y-88624819D01*
X110196190Y-88624819D02*
X110434285Y-88624819D01*
X109005714Y-87958152D02*
X109005714Y-88624819D01*
X109243809Y-87577200D02*
X109481904Y-88291485D01*
X109481904Y-88291485D02*
X108862857Y-88291485D01*
X107958095Y-88624819D02*
X108529523Y-88624819D01*
X108243809Y-88624819D02*
X108243809Y-87624819D01*
X108243809Y-87624819D02*
X108339047Y-87767676D01*
X108339047Y-87767676D02*
X108434285Y-87862914D01*
X108434285Y-87862914D02*
X108529523Y-87910533D01*
X71858094Y-31474819D02*
X71858094Y-30474819D01*
X71858094Y-30474819D02*
X71619999Y-30474819D01*
X71619999Y-30474819D02*
X71477142Y-30522438D01*
X71477142Y-30522438D02*
X71381904Y-30617676D01*
X71381904Y-30617676D02*
X71334285Y-30712914D01*
X71334285Y-30712914D02*
X71286666Y-30903390D01*
X71286666Y-30903390D02*
X71286666Y-31046247D01*
X71286666Y-31046247D02*
X71334285Y-31236723D01*
X71334285Y-31236723D02*
X71381904Y-31331961D01*
X71381904Y-31331961D02*
X71477142Y-31427200D01*
X71477142Y-31427200D02*
X71619999Y-31474819D01*
X71619999Y-31474819D02*
X71858094Y-31474819D01*
X70953332Y-30474819D02*
X70334285Y-30474819D01*
X70334285Y-30474819D02*
X70667618Y-30855771D01*
X70667618Y-30855771D02*
X70524761Y-30855771D01*
X70524761Y-30855771D02*
X70429523Y-30903390D01*
X70429523Y-30903390D02*
X70381904Y-30951009D01*
X70381904Y-30951009D02*
X70334285Y-31046247D01*
X70334285Y-31046247D02*
X70334285Y-31284342D01*
X70334285Y-31284342D02*
X70381904Y-31379580D01*
X70381904Y-31379580D02*
X70429523Y-31427200D01*
X70429523Y-31427200D02*
X70524761Y-31474819D01*
X70524761Y-31474819D02*
X70810475Y-31474819D01*
X70810475Y-31474819D02*
X70905713Y-31427200D01*
X70905713Y-31427200D02*
X70953332Y-31379580D01*
X249314047Y-73789819D02*
X249790237Y-73789819D01*
X249790237Y-73789819D02*
X249790237Y-72789819D01*
X248980713Y-73266009D02*
X248647380Y-73266009D01*
X248504523Y-73789819D02*
X248980713Y-73789819D01*
X248980713Y-73789819D02*
X248980713Y-72789819D01*
X248980713Y-72789819D02*
X248504523Y-72789819D01*
X248075951Y-73789819D02*
X248075951Y-72789819D01*
X248075951Y-72789819D02*
X247837856Y-72789819D01*
X247837856Y-72789819D02*
X247694999Y-72837438D01*
X247694999Y-72837438D02*
X247599761Y-72932676D01*
X247599761Y-72932676D02*
X247552142Y-73027914D01*
X247552142Y-73027914D02*
X247504523Y-73218390D01*
X247504523Y-73218390D02*
X247504523Y-73361247D01*
X247504523Y-73361247D02*
X247552142Y-73551723D01*
X247552142Y-73551723D02*
X247599761Y-73646961D01*
X247599761Y-73646961D02*
X247694999Y-73742200D01*
X247694999Y-73742200D02*
X247837856Y-73789819D01*
X247837856Y-73789819D02*
X248075951Y-73789819D01*
X247028332Y-73789819D02*
X246837856Y-73789819D01*
X246837856Y-73789819D02*
X246742618Y-73742200D01*
X246742618Y-73742200D02*
X246694999Y-73694580D01*
X246694999Y-73694580D02*
X246599761Y-73551723D01*
X246599761Y-73551723D02*
X246552142Y-73361247D01*
X246552142Y-73361247D02*
X246552142Y-72980295D01*
X246552142Y-72980295D02*
X246599761Y-72885057D01*
X246599761Y-72885057D02*
X246647380Y-72837438D01*
X246647380Y-72837438D02*
X246742618Y-72789819D01*
X246742618Y-72789819D02*
X246933094Y-72789819D01*
X246933094Y-72789819D02*
X247028332Y-72837438D01*
X247028332Y-72837438D02*
X247075951Y-72885057D01*
X247075951Y-72885057D02*
X247123570Y-72980295D01*
X247123570Y-72980295D02*
X247123570Y-73218390D01*
X247123570Y-73218390D02*
X247075951Y-73313628D01*
X247075951Y-73313628D02*
X247028332Y-73361247D01*
X247028332Y-73361247D02*
X246933094Y-73408866D01*
X246933094Y-73408866D02*
X246742618Y-73408866D01*
X246742618Y-73408866D02*
X246647380Y-73361247D01*
X246647380Y-73361247D02*
X246599761Y-73313628D01*
X246599761Y-73313628D02*
X246552142Y-73218390D01*
X252059285Y-75689819D02*
X252630713Y-75689819D01*
X252344999Y-75689819D02*
X252344999Y-74689819D01*
X252344999Y-74689819D02*
X252440237Y-74832676D01*
X252440237Y-74832676D02*
X252535475Y-74927914D01*
X252535475Y-74927914D02*
X252630713Y-74975533D01*
X167584285Y-88624819D02*
X167584285Y-87624819D01*
X167584285Y-87624819D02*
X167346190Y-87624819D01*
X167346190Y-87624819D02*
X167203333Y-87672438D01*
X167203333Y-87672438D02*
X167108095Y-87767676D01*
X167108095Y-87767676D02*
X167060476Y-87862914D01*
X167060476Y-87862914D02*
X167012857Y-88053390D01*
X167012857Y-88053390D02*
X167012857Y-88196247D01*
X167012857Y-88196247D02*
X167060476Y-88386723D01*
X167060476Y-88386723D02*
X167108095Y-88481961D01*
X167108095Y-88481961D02*
X167203333Y-88577200D01*
X167203333Y-88577200D02*
X167346190Y-88624819D01*
X167346190Y-88624819D02*
X167584285Y-88624819D01*
X166155714Y-87958152D02*
X166155714Y-88624819D01*
X166393809Y-87577200D02*
X166631904Y-88291485D01*
X166631904Y-88291485D02*
X166012857Y-88291485D01*
X165727142Y-87624819D02*
X165108095Y-87624819D01*
X165108095Y-87624819D02*
X165441428Y-88005771D01*
X165441428Y-88005771D02*
X165298571Y-88005771D01*
X165298571Y-88005771D02*
X165203333Y-88053390D01*
X165203333Y-88053390D02*
X165155714Y-88101009D01*
X165155714Y-88101009D02*
X165108095Y-88196247D01*
X165108095Y-88196247D02*
X165108095Y-88434342D01*
X165108095Y-88434342D02*
X165155714Y-88529580D01*
X165155714Y-88529580D02*
X165203333Y-88577200D01*
X165203333Y-88577200D02*
X165298571Y-88624819D01*
X165298571Y-88624819D02*
X165584285Y-88624819D01*
X165584285Y-88624819D02*
X165679523Y-88577200D01*
X165679523Y-88577200D02*
X165727142Y-88529580D01*
X243784285Y-88624819D02*
X243784285Y-87624819D01*
X243784285Y-87624819D02*
X243546190Y-87624819D01*
X243546190Y-87624819D02*
X243403333Y-87672438D01*
X243403333Y-87672438D02*
X243308095Y-87767676D01*
X243308095Y-87767676D02*
X243260476Y-87862914D01*
X243260476Y-87862914D02*
X243212857Y-88053390D01*
X243212857Y-88053390D02*
X243212857Y-88196247D01*
X243212857Y-88196247D02*
X243260476Y-88386723D01*
X243260476Y-88386723D02*
X243308095Y-88481961D01*
X243308095Y-88481961D02*
X243403333Y-88577200D01*
X243403333Y-88577200D02*
X243546190Y-88624819D01*
X243546190Y-88624819D02*
X243784285Y-88624819D01*
X242355714Y-87958152D02*
X242355714Y-88624819D01*
X242593809Y-87577200D02*
X242831904Y-88291485D01*
X242831904Y-88291485D02*
X242212857Y-88291485D01*
X241927142Y-87624819D02*
X241260476Y-87624819D01*
X241260476Y-87624819D02*
X241689047Y-88624819D01*
X224734285Y-69574819D02*
X224734285Y-68574819D01*
X224734285Y-68574819D02*
X224496190Y-68574819D01*
X224496190Y-68574819D02*
X224353333Y-68622438D01*
X224353333Y-68622438D02*
X224258095Y-68717676D01*
X224258095Y-68717676D02*
X224210476Y-68812914D01*
X224210476Y-68812914D02*
X224162857Y-69003390D01*
X224162857Y-69003390D02*
X224162857Y-69146247D01*
X224162857Y-69146247D02*
X224210476Y-69336723D01*
X224210476Y-69336723D02*
X224258095Y-69431961D01*
X224258095Y-69431961D02*
X224353333Y-69527200D01*
X224353333Y-69527200D02*
X224496190Y-69574819D01*
X224496190Y-69574819D02*
X224734285Y-69574819D01*
X223829523Y-68574819D02*
X223210476Y-68574819D01*
X223210476Y-68574819D02*
X223543809Y-68955771D01*
X223543809Y-68955771D02*
X223400952Y-68955771D01*
X223400952Y-68955771D02*
X223305714Y-69003390D01*
X223305714Y-69003390D02*
X223258095Y-69051009D01*
X223258095Y-69051009D02*
X223210476Y-69146247D01*
X223210476Y-69146247D02*
X223210476Y-69384342D01*
X223210476Y-69384342D02*
X223258095Y-69479580D01*
X223258095Y-69479580D02*
X223305714Y-69527200D01*
X223305714Y-69527200D02*
X223400952Y-69574819D01*
X223400952Y-69574819D02*
X223686666Y-69574819D01*
X223686666Y-69574819D02*
X223781904Y-69527200D01*
X223781904Y-69527200D02*
X223829523Y-69479580D01*
X222353333Y-68908152D02*
X222353333Y-69574819D01*
X222591428Y-68527200D02*
X222829523Y-69241485D01*
X222829523Y-69241485D02*
X222210476Y-69241485D01*
X186634285Y-88624819D02*
X186634285Y-87624819D01*
X186634285Y-87624819D02*
X186396190Y-87624819D01*
X186396190Y-87624819D02*
X186253333Y-87672438D01*
X186253333Y-87672438D02*
X186158095Y-87767676D01*
X186158095Y-87767676D02*
X186110476Y-87862914D01*
X186110476Y-87862914D02*
X186062857Y-88053390D01*
X186062857Y-88053390D02*
X186062857Y-88196247D01*
X186062857Y-88196247D02*
X186110476Y-88386723D01*
X186110476Y-88386723D02*
X186158095Y-88481961D01*
X186158095Y-88481961D02*
X186253333Y-88577200D01*
X186253333Y-88577200D02*
X186396190Y-88624819D01*
X186396190Y-88624819D02*
X186634285Y-88624819D01*
X185205714Y-87958152D02*
X185205714Y-88624819D01*
X185443809Y-87577200D02*
X185681904Y-88291485D01*
X185681904Y-88291485D02*
X185062857Y-88291485D01*
X184253333Y-87958152D02*
X184253333Y-88624819D01*
X184491428Y-87577200D02*
X184729523Y-88291485D01*
X184729523Y-88291485D02*
X184110476Y-88291485D01*
X77864047Y-73789819D02*
X78340237Y-73789819D01*
X78340237Y-73789819D02*
X78340237Y-72789819D01*
X77530713Y-73266009D02*
X77197380Y-73266009D01*
X77054523Y-73789819D02*
X77530713Y-73789819D01*
X77530713Y-73789819D02*
X77530713Y-72789819D01*
X77530713Y-72789819D02*
X77054523Y-72789819D01*
X76625951Y-73789819D02*
X76625951Y-72789819D01*
X76625951Y-72789819D02*
X76387856Y-72789819D01*
X76387856Y-72789819D02*
X76244999Y-72837438D01*
X76244999Y-72837438D02*
X76149761Y-72932676D01*
X76149761Y-72932676D02*
X76102142Y-73027914D01*
X76102142Y-73027914D02*
X76054523Y-73218390D01*
X76054523Y-73218390D02*
X76054523Y-73361247D01*
X76054523Y-73361247D02*
X76102142Y-73551723D01*
X76102142Y-73551723D02*
X76149761Y-73646961D01*
X76149761Y-73646961D02*
X76244999Y-73742200D01*
X76244999Y-73742200D02*
X76387856Y-73789819D01*
X76387856Y-73789819D02*
X76625951Y-73789819D01*
X75149761Y-72789819D02*
X75625951Y-72789819D01*
X75625951Y-72789819D02*
X75673570Y-73266009D01*
X75673570Y-73266009D02*
X75625951Y-73218390D01*
X75625951Y-73218390D02*
X75530713Y-73170771D01*
X75530713Y-73170771D02*
X75292618Y-73170771D01*
X75292618Y-73170771D02*
X75197380Y-73218390D01*
X75197380Y-73218390D02*
X75149761Y-73266009D01*
X75149761Y-73266009D02*
X75102142Y-73361247D01*
X75102142Y-73361247D02*
X75102142Y-73599342D01*
X75102142Y-73599342D02*
X75149761Y-73694580D01*
X75149761Y-73694580D02*
X75197380Y-73742200D01*
X75197380Y-73742200D02*
X75292618Y-73789819D01*
X75292618Y-73789819D02*
X75530713Y-73789819D01*
X75530713Y-73789819D02*
X75625951Y-73742200D01*
X75625951Y-73742200D02*
X75673570Y-73694580D01*
X80609285Y-75689819D02*
X81180713Y-75689819D01*
X80894999Y-75689819D02*
X80894999Y-74689819D01*
X80894999Y-74689819D02*
X80990237Y-74832676D01*
X80990237Y-74832676D02*
X81085475Y-74927914D01*
X81085475Y-74927914D02*
X81180713Y-74975533D01*
X205684285Y-69574819D02*
X205684285Y-68574819D01*
X205684285Y-68574819D02*
X205446190Y-68574819D01*
X205446190Y-68574819D02*
X205303333Y-68622438D01*
X205303333Y-68622438D02*
X205208095Y-68717676D01*
X205208095Y-68717676D02*
X205160476Y-68812914D01*
X205160476Y-68812914D02*
X205112857Y-69003390D01*
X205112857Y-69003390D02*
X205112857Y-69146247D01*
X205112857Y-69146247D02*
X205160476Y-69336723D01*
X205160476Y-69336723D02*
X205208095Y-69431961D01*
X205208095Y-69431961D02*
X205303333Y-69527200D01*
X205303333Y-69527200D02*
X205446190Y-69574819D01*
X205446190Y-69574819D02*
X205684285Y-69574819D01*
X204779523Y-68574819D02*
X204160476Y-68574819D01*
X204160476Y-68574819D02*
X204493809Y-68955771D01*
X204493809Y-68955771D02*
X204350952Y-68955771D01*
X204350952Y-68955771D02*
X204255714Y-69003390D01*
X204255714Y-69003390D02*
X204208095Y-69051009D01*
X204208095Y-69051009D02*
X204160476Y-69146247D01*
X204160476Y-69146247D02*
X204160476Y-69384342D01*
X204160476Y-69384342D02*
X204208095Y-69479580D01*
X204208095Y-69479580D02*
X204255714Y-69527200D01*
X204255714Y-69527200D02*
X204350952Y-69574819D01*
X204350952Y-69574819D02*
X204636666Y-69574819D01*
X204636666Y-69574819D02*
X204731904Y-69527200D01*
X204731904Y-69527200D02*
X204779523Y-69479580D01*
X203827142Y-68574819D02*
X203208095Y-68574819D01*
X203208095Y-68574819D02*
X203541428Y-68955771D01*
X203541428Y-68955771D02*
X203398571Y-68955771D01*
X203398571Y-68955771D02*
X203303333Y-69003390D01*
X203303333Y-69003390D02*
X203255714Y-69051009D01*
X203255714Y-69051009D02*
X203208095Y-69146247D01*
X203208095Y-69146247D02*
X203208095Y-69384342D01*
X203208095Y-69384342D02*
X203255714Y-69479580D01*
X203255714Y-69479580D02*
X203303333Y-69527200D01*
X203303333Y-69527200D02*
X203398571Y-69574819D01*
X203398571Y-69574819D02*
X203684285Y-69574819D01*
X203684285Y-69574819D02*
X203779523Y-69527200D01*
X203779523Y-69527200D02*
X203827142Y-69479580D01*
X167584285Y-69574819D02*
X167584285Y-68574819D01*
X167584285Y-68574819D02*
X167346190Y-68574819D01*
X167346190Y-68574819D02*
X167203333Y-68622438D01*
X167203333Y-68622438D02*
X167108095Y-68717676D01*
X167108095Y-68717676D02*
X167060476Y-68812914D01*
X167060476Y-68812914D02*
X167012857Y-69003390D01*
X167012857Y-69003390D02*
X167012857Y-69146247D01*
X167012857Y-69146247D02*
X167060476Y-69336723D01*
X167060476Y-69336723D02*
X167108095Y-69431961D01*
X167108095Y-69431961D02*
X167203333Y-69527200D01*
X167203333Y-69527200D02*
X167346190Y-69574819D01*
X167346190Y-69574819D02*
X167584285Y-69574819D01*
X166679523Y-68574819D02*
X166060476Y-68574819D01*
X166060476Y-68574819D02*
X166393809Y-68955771D01*
X166393809Y-68955771D02*
X166250952Y-68955771D01*
X166250952Y-68955771D02*
X166155714Y-69003390D01*
X166155714Y-69003390D02*
X166108095Y-69051009D01*
X166108095Y-69051009D02*
X166060476Y-69146247D01*
X166060476Y-69146247D02*
X166060476Y-69384342D01*
X166060476Y-69384342D02*
X166108095Y-69479580D01*
X166108095Y-69479580D02*
X166155714Y-69527200D01*
X166155714Y-69527200D02*
X166250952Y-69574819D01*
X166250952Y-69574819D02*
X166536666Y-69574819D01*
X166536666Y-69574819D02*
X166631904Y-69527200D01*
X166631904Y-69527200D02*
X166679523Y-69479580D01*
X165108095Y-69574819D02*
X165679523Y-69574819D01*
X165393809Y-69574819D02*
X165393809Y-68574819D01*
X165393809Y-68574819D02*
X165489047Y-68717676D01*
X165489047Y-68717676D02*
X165584285Y-68812914D01*
X165584285Y-68812914D02*
X165679523Y-68860533D01*
X53284285Y-50524819D02*
X53284285Y-49524819D01*
X53284285Y-49524819D02*
X53046190Y-49524819D01*
X53046190Y-49524819D02*
X52903333Y-49572438D01*
X52903333Y-49572438D02*
X52808095Y-49667676D01*
X52808095Y-49667676D02*
X52760476Y-49762914D01*
X52760476Y-49762914D02*
X52712857Y-49953390D01*
X52712857Y-49953390D02*
X52712857Y-50096247D01*
X52712857Y-50096247D02*
X52760476Y-50286723D01*
X52760476Y-50286723D02*
X52808095Y-50381961D01*
X52808095Y-50381961D02*
X52903333Y-50477200D01*
X52903333Y-50477200D02*
X53046190Y-50524819D01*
X53046190Y-50524819D02*
X53284285Y-50524819D01*
X51760476Y-50524819D02*
X52331904Y-50524819D01*
X52046190Y-50524819D02*
X52046190Y-49524819D01*
X52046190Y-49524819D02*
X52141428Y-49667676D01*
X52141428Y-49667676D02*
X52236666Y-49762914D01*
X52236666Y-49762914D02*
X52331904Y-49810533D01*
X50903333Y-49858152D02*
X50903333Y-50524819D01*
X51141428Y-49477200D02*
X51379523Y-50191485D01*
X51379523Y-50191485D02*
X50760476Y-50191485D01*
X116054047Y-42689819D02*
X116530237Y-42689819D01*
X116530237Y-42689819D02*
X116530237Y-41689819D01*
X115720713Y-42166009D02*
X115387380Y-42166009D01*
X115244523Y-42689819D02*
X115720713Y-42689819D01*
X115720713Y-42689819D02*
X115720713Y-41689819D01*
X115720713Y-41689819D02*
X115244523Y-41689819D01*
X114815951Y-42689819D02*
X114815951Y-41689819D01*
X114815951Y-41689819D02*
X114577856Y-41689819D01*
X114577856Y-41689819D02*
X114434999Y-41737438D01*
X114434999Y-41737438D02*
X114339761Y-41832676D01*
X114339761Y-41832676D02*
X114292142Y-41927914D01*
X114292142Y-41927914D02*
X114244523Y-42118390D01*
X114244523Y-42118390D02*
X114244523Y-42261247D01*
X114244523Y-42261247D02*
X114292142Y-42451723D01*
X114292142Y-42451723D02*
X114339761Y-42546961D01*
X114339761Y-42546961D02*
X114434999Y-42642200D01*
X114434999Y-42642200D02*
X114577856Y-42689819D01*
X114577856Y-42689819D02*
X114815951Y-42689819D01*
X113292142Y-42689819D02*
X113863570Y-42689819D01*
X113577856Y-42689819D02*
X113577856Y-41689819D01*
X113577856Y-41689819D02*
X113673094Y-41832676D01*
X113673094Y-41832676D02*
X113768332Y-41927914D01*
X113768332Y-41927914D02*
X113863570Y-41975533D01*
X110499285Y-40789819D02*
X111070713Y-40789819D01*
X110784999Y-40789819D02*
X110784999Y-39789819D01*
X110784999Y-39789819D02*
X110880237Y-39932676D01*
X110880237Y-39932676D02*
X110975475Y-40027914D01*
X110975475Y-40027914D02*
X111070713Y-40075533D01*
X34234285Y-88624819D02*
X34234285Y-87624819D01*
X34234285Y-87624819D02*
X33996190Y-87624819D01*
X33996190Y-87624819D02*
X33853333Y-87672438D01*
X33853333Y-87672438D02*
X33758095Y-87767676D01*
X33758095Y-87767676D02*
X33710476Y-87862914D01*
X33710476Y-87862914D02*
X33662857Y-88053390D01*
X33662857Y-88053390D02*
X33662857Y-88196247D01*
X33662857Y-88196247D02*
X33710476Y-88386723D01*
X33710476Y-88386723D02*
X33758095Y-88481961D01*
X33758095Y-88481961D02*
X33853333Y-88577200D01*
X33853333Y-88577200D02*
X33996190Y-88624819D01*
X33996190Y-88624819D02*
X34234285Y-88624819D01*
X33329523Y-87624819D02*
X32710476Y-87624819D01*
X32710476Y-87624819D02*
X33043809Y-88005771D01*
X33043809Y-88005771D02*
X32900952Y-88005771D01*
X32900952Y-88005771D02*
X32805714Y-88053390D01*
X32805714Y-88053390D02*
X32758095Y-88101009D01*
X32758095Y-88101009D02*
X32710476Y-88196247D01*
X32710476Y-88196247D02*
X32710476Y-88434342D01*
X32710476Y-88434342D02*
X32758095Y-88529580D01*
X32758095Y-88529580D02*
X32805714Y-88577200D01*
X32805714Y-88577200D02*
X32900952Y-88624819D01*
X32900952Y-88624819D02*
X33186666Y-88624819D01*
X33186666Y-88624819D02*
X33281904Y-88577200D01*
X33281904Y-88577200D02*
X33329523Y-88529580D01*
X32377142Y-87624819D02*
X31710476Y-87624819D01*
X31710476Y-87624819D02*
X32139047Y-88624819D01*
X116054047Y-73789819D02*
X116530237Y-73789819D01*
X116530237Y-73789819D02*
X116530237Y-72789819D01*
X115720713Y-73266009D02*
X115387380Y-73266009D01*
X115244523Y-73789819D02*
X115720713Y-73789819D01*
X115720713Y-73789819D02*
X115720713Y-72789819D01*
X115720713Y-72789819D02*
X115244523Y-72789819D01*
X114815951Y-73789819D02*
X114815951Y-72789819D01*
X114815951Y-72789819D02*
X114577856Y-72789819D01*
X114577856Y-72789819D02*
X114434999Y-72837438D01*
X114434999Y-72837438D02*
X114339761Y-72932676D01*
X114339761Y-72932676D02*
X114292142Y-73027914D01*
X114292142Y-73027914D02*
X114244523Y-73218390D01*
X114244523Y-73218390D02*
X114244523Y-73361247D01*
X114244523Y-73361247D02*
X114292142Y-73551723D01*
X114292142Y-73551723D02*
X114339761Y-73646961D01*
X114339761Y-73646961D02*
X114434999Y-73742200D01*
X114434999Y-73742200D02*
X114577856Y-73789819D01*
X114577856Y-73789819D02*
X114815951Y-73789819D01*
X113387380Y-72789819D02*
X113577856Y-72789819D01*
X113577856Y-72789819D02*
X113673094Y-72837438D01*
X113673094Y-72837438D02*
X113720713Y-72885057D01*
X113720713Y-72885057D02*
X113815951Y-73027914D01*
X113815951Y-73027914D02*
X113863570Y-73218390D01*
X113863570Y-73218390D02*
X113863570Y-73599342D01*
X113863570Y-73599342D02*
X113815951Y-73694580D01*
X113815951Y-73694580D02*
X113768332Y-73742200D01*
X113768332Y-73742200D02*
X113673094Y-73789819D01*
X113673094Y-73789819D02*
X113482618Y-73789819D01*
X113482618Y-73789819D02*
X113387380Y-73742200D01*
X113387380Y-73742200D02*
X113339761Y-73694580D01*
X113339761Y-73694580D02*
X113292142Y-73599342D01*
X113292142Y-73599342D02*
X113292142Y-73361247D01*
X113292142Y-73361247D02*
X113339761Y-73266009D01*
X113339761Y-73266009D02*
X113387380Y-73218390D01*
X113387380Y-73218390D02*
X113482618Y-73170771D01*
X113482618Y-73170771D02*
X113673094Y-73170771D01*
X113673094Y-73170771D02*
X113768332Y-73218390D01*
X113768332Y-73218390D02*
X113815951Y-73266009D01*
X113815951Y-73266009D02*
X113863570Y-73361247D01*
X118799285Y-75689819D02*
X119370713Y-75689819D01*
X119084999Y-75689819D02*
X119084999Y-74689819D01*
X119084999Y-74689819D02*
X119180237Y-74832676D01*
X119180237Y-74832676D02*
X119275475Y-74927914D01*
X119275475Y-74927914D02*
X119370713Y-74975533D01*
X129008094Y-31474819D02*
X129008094Y-30474819D01*
X129008094Y-30474819D02*
X128769999Y-30474819D01*
X128769999Y-30474819D02*
X128627142Y-30522438D01*
X128627142Y-30522438D02*
X128531904Y-30617676D01*
X128531904Y-30617676D02*
X128484285Y-30712914D01*
X128484285Y-30712914D02*
X128436666Y-30903390D01*
X128436666Y-30903390D02*
X128436666Y-31046247D01*
X128436666Y-31046247D02*
X128484285Y-31236723D01*
X128484285Y-31236723D02*
X128531904Y-31331961D01*
X128531904Y-31331961D02*
X128627142Y-31427200D01*
X128627142Y-31427200D02*
X128769999Y-31474819D01*
X128769999Y-31474819D02*
X129008094Y-31474819D01*
X127579523Y-30474819D02*
X127769999Y-30474819D01*
X127769999Y-30474819D02*
X127865237Y-30522438D01*
X127865237Y-30522438D02*
X127912856Y-30570057D01*
X127912856Y-30570057D02*
X128008094Y-30712914D01*
X128008094Y-30712914D02*
X128055713Y-30903390D01*
X128055713Y-30903390D02*
X128055713Y-31284342D01*
X128055713Y-31284342D02*
X128008094Y-31379580D01*
X128008094Y-31379580D02*
X127960475Y-31427200D01*
X127960475Y-31427200D02*
X127865237Y-31474819D01*
X127865237Y-31474819D02*
X127674761Y-31474819D01*
X127674761Y-31474819D02*
X127579523Y-31427200D01*
X127579523Y-31427200D02*
X127531904Y-31379580D01*
X127531904Y-31379580D02*
X127484285Y-31284342D01*
X127484285Y-31284342D02*
X127484285Y-31046247D01*
X127484285Y-31046247D02*
X127531904Y-30951009D01*
X127531904Y-30951009D02*
X127579523Y-30903390D01*
X127579523Y-30903390D02*
X127674761Y-30855771D01*
X127674761Y-30855771D02*
X127865237Y-30855771D01*
X127865237Y-30855771D02*
X127960475Y-30903390D01*
X127960475Y-30903390D02*
X128008094Y-30951009D01*
X128008094Y-30951009D02*
X128055713Y-31046247D01*
X53284285Y-69574819D02*
X53284285Y-68574819D01*
X53284285Y-68574819D02*
X53046190Y-68574819D01*
X53046190Y-68574819D02*
X52903333Y-68622438D01*
X52903333Y-68622438D02*
X52808095Y-68717676D01*
X52808095Y-68717676D02*
X52760476Y-68812914D01*
X52760476Y-68812914D02*
X52712857Y-69003390D01*
X52712857Y-69003390D02*
X52712857Y-69146247D01*
X52712857Y-69146247D02*
X52760476Y-69336723D01*
X52760476Y-69336723D02*
X52808095Y-69431961D01*
X52808095Y-69431961D02*
X52903333Y-69527200D01*
X52903333Y-69527200D02*
X53046190Y-69574819D01*
X53046190Y-69574819D02*
X53284285Y-69574819D01*
X52331904Y-68670057D02*
X52284285Y-68622438D01*
X52284285Y-68622438D02*
X52189047Y-68574819D01*
X52189047Y-68574819D02*
X51950952Y-68574819D01*
X51950952Y-68574819D02*
X51855714Y-68622438D01*
X51855714Y-68622438D02*
X51808095Y-68670057D01*
X51808095Y-68670057D02*
X51760476Y-68765295D01*
X51760476Y-68765295D02*
X51760476Y-68860533D01*
X51760476Y-68860533D02*
X51808095Y-69003390D01*
X51808095Y-69003390D02*
X52379523Y-69574819D01*
X52379523Y-69574819D02*
X51760476Y-69574819D01*
X50903333Y-68574819D02*
X51093809Y-68574819D01*
X51093809Y-68574819D02*
X51189047Y-68622438D01*
X51189047Y-68622438D02*
X51236666Y-68670057D01*
X51236666Y-68670057D02*
X51331904Y-68812914D01*
X51331904Y-68812914D02*
X51379523Y-69003390D01*
X51379523Y-69003390D02*
X51379523Y-69384342D01*
X51379523Y-69384342D02*
X51331904Y-69479580D01*
X51331904Y-69479580D02*
X51284285Y-69527200D01*
X51284285Y-69527200D02*
X51189047Y-69574819D01*
X51189047Y-69574819D02*
X50998571Y-69574819D01*
X50998571Y-69574819D02*
X50903333Y-69527200D01*
X50903333Y-69527200D02*
X50855714Y-69479580D01*
X50855714Y-69479580D02*
X50808095Y-69384342D01*
X50808095Y-69384342D02*
X50808095Y-69146247D01*
X50808095Y-69146247D02*
X50855714Y-69051009D01*
X50855714Y-69051009D02*
X50903333Y-69003390D01*
X50903333Y-69003390D02*
X50998571Y-68955771D01*
X50998571Y-68955771D02*
X51189047Y-68955771D01*
X51189047Y-68955771D02*
X51284285Y-69003390D01*
X51284285Y-69003390D02*
X51331904Y-69051009D01*
X51331904Y-69051009D02*
X51379523Y-69146247D01*
X34234285Y-50524819D02*
X34234285Y-49524819D01*
X34234285Y-49524819D02*
X33996190Y-49524819D01*
X33996190Y-49524819D02*
X33853333Y-49572438D01*
X33853333Y-49572438D02*
X33758095Y-49667676D01*
X33758095Y-49667676D02*
X33710476Y-49762914D01*
X33710476Y-49762914D02*
X33662857Y-49953390D01*
X33662857Y-49953390D02*
X33662857Y-50096247D01*
X33662857Y-50096247D02*
X33710476Y-50286723D01*
X33710476Y-50286723D02*
X33758095Y-50381961D01*
X33758095Y-50381961D02*
X33853333Y-50477200D01*
X33853333Y-50477200D02*
X33996190Y-50524819D01*
X33996190Y-50524819D02*
X34234285Y-50524819D01*
X32710476Y-50524819D02*
X33281904Y-50524819D01*
X32996190Y-50524819D02*
X32996190Y-49524819D01*
X32996190Y-49524819D02*
X33091428Y-49667676D01*
X33091428Y-49667676D02*
X33186666Y-49762914D01*
X33186666Y-49762914D02*
X33281904Y-49810533D01*
X32377142Y-49524819D02*
X31758095Y-49524819D01*
X31758095Y-49524819D02*
X32091428Y-49905771D01*
X32091428Y-49905771D02*
X31948571Y-49905771D01*
X31948571Y-49905771D02*
X31853333Y-49953390D01*
X31853333Y-49953390D02*
X31805714Y-50001009D01*
X31805714Y-50001009D02*
X31758095Y-50096247D01*
X31758095Y-50096247D02*
X31758095Y-50334342D01*
X31758095Y-50334342D02*
X31805714Y-50429580D01*
X31805714Y-50429580D02*
X31853333Y-50477200D01*
X31853333Y-50477200D02*
X31948571Y-50524819D01*
X31948571Y-50524819D02*
X32234285Y-50524819D01*
X32234285Y-50524819D02*
X32329523Y-50477200D01*
X32329523Y-50477200D02*
X32377142Y-50429580D01*
X39854047Y-73789819D02*
X40330237Y-73789819D01*
X40330237Y-73789819D02*
X40330237Y-72789819D01*
X39520713Y-73266009D02*
X39187380Y-73266009D01*
X39044523Y-73789819D02*
X39520713Y-73789819D01*
X39520713Y-73789819D02*
X39520713Y-72789819D01*
X39520713Y-72789819D02*
X39044523Y-72789819D01*
X38615951Y-73789819D02*
X38615951Y-72789819D01*
X38615951Y-72789819D02*
X38377856Y-72789819D01*
X38377856Y-72789819D02*
X38234999Y-72837438D01*
X38234999Y-72837438D02*
X38139761Y-72932676D01*
X38139761Y-72932676D02*
X38092142Y-73027914D01*
X38092142Y-73027914D02*
X38044523Y-73218390D01*
X38044523Y-73218390D02*
X38044523Y-73361247D01*
X38044523Y-73361247D02*
X38092142Y-73551723D01*
X38092142Y-73551723D02*
X38139761Y-73646961D01*
X38139761Y-73646961D02*
X38234999Y-73742200D01*
X38234999Y-73742200D02*
X38377856Y-73789819D01*
X38377856Y-73789819D02*
X38615951Y-73789819D01*
X37187380Y-73123152D02*
X37187380Y-73789819D01*
X37425475Y-72742200D02*
X37663570Y-73456485D01*
X37663570Y-73456485D02*
X37044523Y-73456485D01*
X42599285Y-75689819D02*
X43170713Y-75689819D01*
X42884999Y-75689819D02*
X42884999Y-74689819D01*
X42884999Y-74689819D02*
X42980237Y-74832676D01*
X42980237Y-74832676D02*
X43075475Y-74927914D01*
X43075475Y-74927914D02*
X43170713Y-74975533D01*
X262834285Y-88624819D02*
X262834285Y-87624819D01*
X262834285Y-87624819D02*
X262596190Y-87624819D01*
X262596190Y-87624819D02*
X262453333Y-87672438D01*
X262453333Y-87672438D02*
X262358095Y-87767676D01*
X262358095Y-87767676D02*
X262310476Y-87862914D01*
X262310476Y-87862914D02*
X262262857Y-88053390D01*
X262262857Y-88053390D02*
X262262857Y-88196247D01*
X262262857Y-88196247D02*
X262310476Y-88386723D01*
X262310476Y-88386723D02*
X262358095Y-88481961D01*
X262358095Y-88481961D02*
X262453333Y-88577200D01*
X262453333Y-88577200D02*
X262596190Y-88624819D01*
X262596190Y-88624819D02*
X262834285Y-88624819D01*
X261405714Y-87958152D02*
X261405714Y-88624819D01*
X261643809Y-87577200D02*
X261881904Y-88291485D01*
X261881904Y-88291485D02*
X261262857Y-88291485D01*
X260739047Y-88053390D02*
X260834285Y-88005771D01*
X260834285Y-88005771D02*
X260881904Y-87958152D01*
X260881904Y-87958152D02*
X260929523Y-87862914D01*
X260929523Y-87862914D02*
X260929523Y-87815295D01*
X260929523Y-87815295D02*
X260881904Y-87720057D01*
X260881904Y-87720057D02*
X260834285Y-87672438D01*
X260834285Y-87672438D02*
X260739047Y-87624819D01*
X260739047Y-87624819D02*
X260548571Y-87624819D01*
X260548571Y-87624819D02*
X260453333Y-87672438D01*
X260453333Y-87672438D02*
X260405714Y-87720057D01*
X260405714Y-87720057D02*
X260358095Y-87815295D01*
X260358095Y-87815295D02*
X260358095Y-87862914D01*
X260358095Y-87862914D02*
X260405714Y-87958152D01*
X260405714Y-87958152D02*
X260453333Y-88005771D01*
X260453333Y-88005771D02*
X260548571Y-88053390D01*
X260548571Y-88053390D02*
X260739047Y-88053390D01*
X260739047Y-88053390D02*
X260834285Y-88101009D01*
X260834285Y-88101009D02*
X260881904Y-88148628D01*
X260881904Y-88148628D02*
X260929523Y-88243866D01*
X260929523Y-88243866D02*
X260929523Y-88434342D01*
X260929523Y-88434342D02*
X260881904Y-88529580D01*
X260881904Y-88529580D02*
X260834285Y-88577200D01*
X260834285Y-88577200D02*
X260739047Y-88624819D01*
X260739047Y-88624819D02*
X260548571Y-88624819D01*
X260548571Y-88624819D02*
X260453333Y-88577200D01*
X260453333Y-88577200D02*
X260405714Y-88529580D01*
X260405714Y-88529580D02*
X260358095Y-88434342D01*
X260358095Y-88434342D02*
X260358095Y-88243866D01*
X260358095Y-88243866D02*
X260405714Y-88148628D01*
X260405714Y-88148628D02*
X260453333Y-88101009D01*
X260453333Y-88101009D02*
X260548571Y-88053390D01*
X33758094Y-31474819D02*
X33758094Y-30474819D01*
X33758094Y-30474819D02*
X33519999Y-30474819D01*
X33519999Y-30474819D02*
X33377142Y-30522438D01*
X33377142Y-30522438D02*
X33281904Y-30617676D01*
X33281904Y-30617676D02*
X33234285Y-30712914D01*
X33234285Y-30712914D02*
X33186666Y-30903390D01*
X33186666Y-30903390D02*
X33186666Y-31046247D01*
X33186666Y-31046247D02*
X33234285Y-31236723D01*
X33234285Y-31236723D02*
X33281904Y-31331961D01*
X33281904Y-31331961D02*
X33377142Y-31427200D01*
X33377142Y-31427200D02*
X33519999Y-31474819D01*
X33519999Y-31474819D02*
X33758094Y-31474819D01*
X32234285Y-31474819D02*
X32805713Y-31474819D01*
X32519999Y-31474819D02*
X32519999Y-30474819D01*
X32519999Y-30474819D02*
X32615237Y-30617676D01*
X32615237Y-30617676D02*
X32710475Y-30712914D01*
X32710475Y-30712914D02*
X32805713Y-30760533D01*
X205684285Y-88624819D02*
X205684285Y-87624819D01*
X205684285Y-87624819D02*
X205446190Y-87624819D01*
X205446190Y-87624819D02*
X205303333Y-87672438D01*
X205303333Y-87672438D02*
X205208095Y-87767676D01*
X205208095Y-87767676D02*
X205160476Y-87862914D01*
X205160476Y-87862914D02*
X205112857Y-88053390D01*
X205112857Y-88053390D02*
X205112857Y-88196247D01*
X205112857Y-88196247D02*
X205160476Y-88386723D01*
X205160476Y-88386723D02*
X205208095Y-88481961D01*
X205208095Y-88481961D02*
X205303333Y-88577200D01*
X205303333Y-88577200D02*
X205446190Y-88624819D01*
X205446190Y-88624819D02*
X205684285Y-88624819D01*
X204255714Y-87958152D02*
X204255714Y-88624819D01*
X204493809Y-87577200D02*
X204731904Y-88291485D01*
X204731904Y-88291485D02*
X204112857Y-88291485D01*
X203255714Y-87624819D02*
X203731904Y-87624819D01*
X203731904Y-87624819D02*
X203779523Y-88101009D01*
X203779523Y-88101009D02*
X203731904Y-88053390D01*
X203731904Y-88053390D02*
X203636666Y-88005771D01*
X203636666Y-88005771D02*
X203398571Y-88005771D01*
X203398571Y-88005771D02*
X203303333Y-88053390D01*
X203303333Y-88053390D02*
X203255714Y-88101009D01*
X203255714Y-88101009D02*
X203208095Y-88196247D01*
X203208095Y-88196247D02*
X203208095Y-88434342D01*
X203208095Y-88434342D02*
X203255714Y-88529580D01*
X203255714Y-88529580D02*
X203303333Y-88577200D01*
X203303333Y-88577200D02*
X203398571Y-88624819D01*
X203398571Y-88624819D02*
X203636666Y-88624819D01*
X203636666Y-88624819D02*
X203731904Y-88577200D01*
X203731904Y-88577200D02*
X203779523Y-88529580D01*
X186634285Y-50524819D02*
X186634285Y-49524819D01*
X186634285Y-49524819D02*
X186396190Y-49524819D01*
X186396190Y-49524819D02*
X186253333Y-49572438D01*
X186253333Y-49572438D02*
X186158095Y-49667676D01*
X186158095Y-49667676D02*
X186110476Y-49762914D01*
X186110476Y-49762914D02*
X186062857Y-49953390D01*
X186062857Y-49953390D02*
X186062857Y-50096247D01*
X186062857Y-50096247D02*
X186110476Y-50286723D01*
X186110476Y-50286723D02*
X186158095Y-50381961D01*
X186158095Y-50381961D02*
X186253333Y-50477200D01*
X186253333Y-50477200D02*
X186396190Y-50524819D01*
X186396190Y-50524819D02*
X186634285Y-50524819D01*
X185681904Y-49620057D02*
X185634285Y-49572438D01*
X185634285Y-49572438D02*
X185539047Y-49524819D01*
X185539047Y-49524819D02*
X185300952Y-49524819D01*
X185300952Y-49524819D02*
X185205714Y-49572438D01*
X185205714Y-49572438D02*
X185158095Y-49620057D01*
X185158095Y-49620057D02*
X185110476Y-49715295D01*
X185110476Y-49715295D02*
X185110476Y-49810533D01*
X185110476Y-49810533D02*
X185158095Y-49953390D01*
X185158095Y-49953390D02*
X185729523Y-50524819D01*
X185729523Y-50524819D02*
X185110476Y-50524819D01*
X184491428Y-49524819D02*
X184396190Y-49524819D01*
X184396190Y-49524819D02*
X184300952Y-49572438D01*
X184300952Y-49572438D02*
X184253333Y-49620057D01*
X184253333Y-49620057D02*
X184205714Y-49715295D01*
X184205714Y-49715295D02*
X184158095Y-49905771D01*
X184158095Y-49905771D02*
X184158095Y-50143866D01*
X184158095Y-50143866D02*
X184205714Y-50334342D01*
X184205714Y-50334342D02*
X184253333Y-50429580D01*
X184253333Y-50429580D02*
X184300952Y-50477200D01*
X184300952Y-50477200D02*
X184396190Y-50524819D01*
X184396190Y-50524819D02*
X184491428Y-50524819D01*
X184491428Y-50524819D02*
X184586666Y-50477200D01*
X184586666Y-50477200D02*
X184634285Y-50429580D01*
X184634285Y-50429580D02*
X184681904Y-50334342D01*
X184681904Y-50334342D02*
X184729523Y-50143866D01*
X184729523Y-50143866D02*
X184729523Y-49905771D01*
X184729523Y-49905771D02*
X184681904Y-49715295D01*
X184681904Y-49715295D02*
X184634285Y-49620057D01*
X184634285Y-49620057D02*
X184586666Y-49572438D01*
X184586666Y-49572438D02*
X184491428Y-49524819D01*
X167108094Y-31474819D02*
X167108094Y-30474819D01*
X167108094Y-30474819D02*
X166869999Y-30474819D01*
X166869999Y-30474819D02*
X166727142Y-30522438D01*
X166727142Y-30522438D02*
X166631904Y-30617676D01*
X166631904Y-30617676D02*
X166584285Y-30712914D01*
X166584285Y-30712914D02*
X166536666Y-30903390D01*
X166536666Y-30903390D02*
X166536666Y-31046247D01*
X166536666Y-31046247D02*
X166584285Y-31236723D01*
X166584285Y-31236723D02*
X166631904Y-31331961D01*
X166631904Y-31331961D02*
X166727142Y-31427200D01*
X166727142Y-31427200D02*
X166869999Y-31474819D01*
X166869999Y-31474819D02*
X167108094Y-31474819D01*
X166203332Y-30474819D02*
X165536666Y-30474819D01*
X165536666Y-30474819D02*
X165965237Y-31474819D01*
D12*
%TO.C,D25*%
X31370000Y-70120000D02*
X35380000Y-70120000D01*
X31370000Y-72120000D02*
X35380000Y-72120000D01*
X35380000Y-72120000D02*
X35380000Y-70120000D01*
%TO.C,D15*%
X69470000Y-51070000D02*
X73480000Y-51070000D01*
X69470000Y-53070000D02*
X73480000Y-53070000D01*
X73480000Y-53070000D02*
X73480000Y-51070000D01*
%TO.C,D40*%
X88520000Y-89170000D02*
X92530000Y-89170000D01*
X88520000Y-91170000D02*
X92530000Y-91170000D01*
X92530000Y-91170000D02*
X92530000Y-89170000D01*
%TO.C,LED11*%
X206685000Y-35985000D02*
X213235000Y-35985000D01*
X206685000Y-41485000D02*
X206685000Y-35985000D01*
X206685000Y-41485000D02*
X213685000Y-41485000D01*
X207485000Y-37835000D02*
X207485000Y-39635000D01*
X212885000Y-37835000D02*
X212885000Y-39635000D01*
X213235000Y-35985000D02*
X213685000Y-36435000D01*
X213685000Y-36435000D02*
X213685000Y-41485000D01*
%TO.C,D2*%
X50420000Y-32020000D02*
X54430000Y-32020000D01*
X50420000Y-34020000D02*
X54430000Y-34020000D01*
X54430000Y-34020000D02*
X54430000Y-32020000D01*
%TO.C,D32*%
X183770000Y-70120000D02*
X187780000Y-70120000D01*
X183770000Y-72120000D02*
X187780000Y-72120000D01*
X187780000Y-72120000D02*
X187780000Y-70120000D01*
%TO.C,D11*%
X240920000Y-32020000D02*
X244930000Y-32020000D01*
X240920000Y-34020000D02*
X244930000Y-34020000D01*
X244930000Y-34020000D02*
X244930000Y-32020000D01*
%TO.C,D17*%
X107570000Y-51070000D02*
X111580000Y-51070000D01*
X107570000Y-53070000D02*
X111580000Y-53070000D01*
X111580000Y-53070000D02*
X111580000Y-51070000D01*
%TO.C,LED12*%
X168585000Y-35985000D02*
X175135000Y-35985000D01*
X168585000Y-41485000D02*
X168585000Y-35985000D01*
X168585000Y-41485000D02*
X175585000Y-41485000D01*
X169385000Y-37835000D02*
X169385000Y-39635000D01*
X174785000Y-37835000D02*
X174785000Y-39635000D01*
X175135000Y-35985000D02*
X175585000Y-36435000D01*
X175585000Y-36435000D02*
X175585000Y-41485000D01*
%TO.C,D4*%
X88520000Y-32020000D02*
X92530000Y-32020000D01*
X88520000Y-34020000D02*
X92530000Y-34020000D01*
X92530000Y-34020000D02*
X92530000Y-32020000D01*
%TO.C,LED7*%
X168585000Y-79135000D02*
X168585000Y-74085000D01*
X169035000Y-79585000D02*
X168585000Y-79135000D01*
X169385000Y-77735000D02*
X169385000Y-75935000D01*
X174785000Y-77735000D02*
X174785000Y-75935000D01*
X175585000Y-74085000D02*
X168585000Y-74085000D01*
X175585000Y-74085000D02*
X175585000Y-79585000D01*
X175585000Y-79585000D02*
X169035000Y-79585000D01*
%TO.C,D27*%
X69470000Y-70120000D02*
X73480000Y-70120000D01*
X69470000Y-72120000D02*
X73480000Y-72120000D01*
X73480000Y-72120000D02*
X73480000Y-70120000D01*
%TO.C,LED3*%
X35235000Y-35985000D02*
X41785000Y-35985000D01*
X35235000Y-41485000D02*
X35235000Y-35985000D01*
X35235000Y-41485000D02*
X42235000Y-41485000D01*
X36035000Y-37835000D02*
X36035000Y-39635000D01*
X41435000Y-37835000D02*
X41435000Y-39635000D01*
X41785000Y-35985000D02*
X42235000Y-36435000D01*
X42235000Y-36435000D02*
X42235000Y-41485000D01*
%TO.C,D10*%
X221870000Y-32020000D02*
X225880000Y-32020000D01*
X221870000Y-34020000D02*
X225880000Y-34020000D01*
X225880000Y-34020000D02*
X225880000Y-32020000D01*
%TO.C,D29*%
X107570000Y-70120000D02*
X111580000Y-70120000D01*
X107570000Y-72120000D02*
X111580000Y-72120000D01*
X111580000Y-72120000D02*
X111580000Y-70120000D01*
%TO.C,D28*%
X88520000Y-70120000D02*
X92530000Y-70120000D01*
X88520000Y-72120000D02*
X92530000Y-72120000D01*
X92530000Y-72120000D02*
X92530000Y-70120000D01*
%TO.C,D46*%
X221870000Y-89170000D02*
X225880000Y-89170000D01*
X221870000Y-91170000D02*
X225880000Y-91170000D01*
X225880000Y-91170000D02*
X225880000Y-89170000D01*
%TO.C,D8*%
X183770000Y-32020000D02*
X187780000Y-32020000D01*
X183770000Y-34020000D02*
X187780000Y-34020000D01*
X187780000Y-34020000D02*
X187780000Y-32020000D01*
%TO.C,D24*%
X259970000Y-51070000D02*
X263980000Y-51070000D01*
X259970000Y-53070000D02*
X263980000Y-53070000D01*
X263980000Y-53070000D02*
X263980000Y-51070000D01*
%TO.C,D16*%
X88520000Y-51070000D02*
X92530000Y-51070000D01*
X88520000Y-53070000D02*
X92530000Y-53070000D01*
X92530000Y-53070000D02*
X92530000Y-51070000D01*
%TO.C,D21*%
X202820000Y-51070000D02*
X206830000Y-51070000D01*
X202820000Y-53070000D02*
X206830000Y-53070000D01*
X206830000Y-53070000D02*
X206830000Y-51070000D01*
%TO.C,D42*%
X126620000Y-89170000D02*
X130630000Y-89170000D01*
X126620000Y-91170000D02*
X130630000Y-91170000D01*
X130630000Y-91170000D02*
X130630000Y-89170000D01*
%TO.C,D30*%
X126620000Y-70120000D02*
X130630000Y-70120000D01*
X126620000Y-72120000D02*
X130630000Y-72120000D01*
X130630000Y-72120000D02*
X130630000Y-70120000D01*
%TO.C,D38*%
X50420000Y-89170000D02*
X54430000Y-89170000D01*
X50420000Y-91170000D02*
X54430000Y-91170000D01*
X54430000Y-91170000D02*
X54430000Y-89170000D01*
%TO.C,D39*%
X69470000Y-89170000D02*
X73480000Y-89170000D01*
X69470000Y-91170000D02*
X73480000Y-91170000D01*
X73480000Y-91170000D02*
X73480000Y-89170000D01*
%TO.C,LED8*%
X206685000Y-79135000D02*
X206685000Y-74085000D01*
X207135000Y-79585000D02*
X206685000Y-79135000D01*
X207485000Y-77735000D02*
X207485000Y-75935000D01*
X212885000Y-77735000D02*
X212885000Y-75935000D01*
X213685000Y-74085000D02*
X206685000Y-74085000D01*
X213685000Y-74085000D02*
X213685000Y-79585000D01*
X213685000Y-79585000D02*
X207135000Y-79585000D01*
%TO.C,D12*%
X259970000Y-32020000D02*
X263980000Y-32020000D01*
X259970000Y-34020000D02*
X263980000Y-34020000D01*
X263980000Y-34020000D02*
X263980000Y-32020000D01*
%TO.C,D22*%
X221870000Y-51070000D02*
X225880000Y-51070000D01*
X221870000Y-53070000D02*
X225880000Y-53070000D01*
X225880000Y-53070000D02*
X225880000Y-51070000D01*
%TO.C,D5*%
X107570000Y-32020000D02*
X111580000Y-32020000D01*
X107570000Y-34020000D02*
X111580000Y-34020000D01*
X111580000Y-34020000D02*
X111580000Y-32020000D01*
%TO.C,D19*%
X164720000Y-51070000D02*
X168730000Y-51070000D01*
X164720000Y-53070000D02*
X168730000Y-53070000D01*
X168730000Y-53070000D02*
X168730000Y-51070000D01*
%TO.C,LED2*%
X73335000Y-35985000D02*
X79885000Y-35985000D01*
X73335000Y-41485000D02*
X73335000Y-35985000D01*
X73335000Y-41485000D02*
X80335000Y-41485000D01*
X74135000Y-37835000D02*
X74135000Y-39635000D01*
X79535000Y-37835000D02*
X79535000Y-39635000D01*
X79885000Y-35985000D02*
X80335000Y-36435000D01*
X80335000Y-36435000D02*
X80335000Y-41485000D01*
%TO.C,D18*%
X126620000Y-51070000D02*
X130630000Y-51070000D01*
X126620000Y-53070000D02*
X130630000Y-53070000D01*
X130630000Y-53070000D02*
X130630000Y-51070000D01*
%TO.C,D36*%
X259970000Y-70120000D02*
X263980000Y-70120000D01*
X259970000Y-72120000D02*
X263980000Y-72120000D01*
X263980000Y-72120000D02*
X263980000Y-70120000D01*
%TO.C,D9*%
X202820000Y-32020000D02*
X206830000Y-32020000D01*
X202820000Y-34020000D02*
X206830000Y-34020000D01*
X206830000Y-34020000D02*
X206830000Y-32020000D01*
%TO.C,LED10*%
X244785000Y-35985000D02*
X251335000Y-35985000D01*
X244785000Y-41485000D02*
X244785000Y-35985000D01*
X244785000Y-41485000D02*
X251785000Y-41485000D01*
X245585000Y-37835000D02*
X245585000Y-39635000D01*
X250985000Y-37835000D02*
X250985000Y-39635000D01*
X251335000Y-35985000D02*
X251785000Y-36435000D01*
X251785000Y-36435000D02*
X251785000Y-41485000D01*
%TO.C,D35*%
X240920000Y-70120000D02*
X244930000Y-70120000D01*
X240920000Y-72120000D02*
X244930000Y-72120000D01*
X244930000Y-72120000D02*
X244930000Y-70120000D01*
%TO.C,D23*%
X240920000Y-51070000D02*
X244930000Y-51070000D01*
X240920000Y-53070000D02*
X244930000Y-53070000D01*
X244930000Y-53070000D02*
X244930000Y-51070000D01*
%TO.C,D41*%
X107570000Y-89170000D02*
X111580000Y-89170000D01*
X107570000Y-91170000D02*
X111580000Y-91170000D01*
X111580000Y-91170000D02*
X111580000Y-89170000D01*
%TO.C,D3*%
X69470000Y-32020000D02*
X73480000Y-32020000D01*
X69470000Y-34020000D02*
X73480000Y-34020000D01*
X73480000Y-34020000D02*
X73480000Y-32020000D01*
%TO.C,LED9*%
X244695000Y-79135000D02*
X244695000Y-74085000D01*
X245145000Y-79585000D02*
X244695000Y-79135000D01*
X245495000Y-77735000D02*
X245495000Y-75935000D01*
X250895000Y-77735000D02*
X250895000Y-75935000D01*
X251695000Y-74085000D02*
X244695000Y-74085000D01*
X251695000Y-74085000D02*
X251695000Y-79585000D01*
X251695000Y-79585000D02*
X245145000Y-79585000D01*
%TO.C,D43*%
X164720000Y-89170000D02*
X168730000Y-89170000D01*
X164720000Y-91170000D02*
X168730000Y-91170000D01*
X168730000Y-91170000D02*
X168730000Y-89170000D01*
%TO.C,D47*%
X240920000Y-89170000D02*
X244930000Y-89170000D01*
X240920000Y-91170000D02*
X244930000Y-91170000D01*
X244930000Y-91170000D02*
X244930000Y-89170000D01*
%TO.C,D34*%
X221870000Y-70120000D02*
X225880000Y-70120000D01*
X221870000Y-72120000D02*
X225880000Y-72120000D01*
X225880000Y-72120000D02*
X225880000Y-70120000D01*
%TO.C,D44*%
X183770000Y-89170000D02*
X187780000Y-89170000D01*
X183770000Y-91170000D02*
X187780000Y-91170000D01*
X187780000Y-91170000D02*
X187780000Y-89170000D01*
%TO.C,LED5*%
X73245000Y-79135000D02*
X73245000Y-74085000D01*
X73695000Y-79585000D02*
X73245000Y-79135000D01*
X74045000Y-77735000D02*
X74045000Y-75935000D01*
X79445000Y-77735000D02*
X79445000Y-75935000D01*
X80245000Y-74085000D02*
X73245000Y-74085000D01*
X80245000Y-74085000D02*
X80245000Y-79585000D01*
X80245000Y-79585000D02*
X73695000Y-79585000D01*
%TO.C,D33*%
X202820000Y-70120000D02*
X206830000Y-70120000D01*
X202820000Y-72120000D02*
X206830000Y-72120000D01*
X206830000Y-72120000D02*
X206830000Y-70120000D01*
%TO.C,D31*%
X164720000Y-70120000D02*
X168730000Y-70120000D01*
X164720000Y-72120000D02*
X168730000Y-72120000D01*
X168730000Y-72120000D02*
X168730000Y-70120000D01*
%TO.C,D14*%
X50420000Y-51070000D02*
X54430000Y-51070000D01*
X50420000Y-53070000D02*
X54430000Y-53070000D01*
X54430000Y-53070000D02*
X54430000Y-51070000D01*
%TO.C,LED1*%
X111435000Y-35985000D02*
X117985000Y-35985000D01*
X111435000Y-41485000D02*
X111435000Y-35985000D01*
X111435000Y-41485000D02*
X118435000Y-41485000D01*
X112235000Y-37835000D02*
X112235000Y-39635000D01*
X117635000Y-37835000D02*
X117635000Y-39635000D01*
X117985000Y-35985000D02*
X118435000Y-36435000D01*
X118435000Y-36435000D02*
X118435000Y-41485000D01*
%TO.C,D37*%
X31370000Y-89170000D02*
X35380000Y-89170000D01*
X31370000Y-91170000D02*
X35380000Y-91170000D01*
X35380000Y-91170000D02*
X35380000Y-89170000D01*
%TO.C,LED6*%
X111435000Y-79135000D02*
X111435000Y-74085000D01*
X111885000Y-79585000D02*
X111435000Y-79135000D01*
X112235000Y-77735000D02*
X112235000Y-75935000D01*
X117635000Y-77735000D02*
X117635000Y-75935000D01*
X118435000Y-74085000D02*
X111435000Y-74085000D01*
X118435000Y-74085000D02*
X118435000Y-79585000D01*
X118435000Y-79585000D02*
X111885000Y-79585000D01*
%TO.C,D6*%
X126620000Y-32020000D02*
X130630000Y-32020000D01*
X126620000Y-34020000D02*
X130630000Y-34020000D01*
X130630000Y-34020000D02*
X130630000Y-32020000D01*
%TO.C,D26*%
X50420000Y-70120000D02*
X54430000Y-70120000D01*
X50420000Y-72120000D02*
X54430000Y-72120000D01*
X54430000Y-72120000D02*
X54430000Y-70120000D01*
%TO.C,D13*%
X31370000Y-51070000D02*
X35380000Y-51070000D01*
X31370000Y-53070000D02*
X35380000Y-53070000D01*
X35380000Y-53070000D02*
X35380000Y-51070000D01*
%TO.C,LED4*%
X35235000Y-79135000D02*
X35235000Y-74085000D01*
X35685000Y-79585000D02*
X35235000Y-79135000D01*
X36035000Y-77735000D02*
X36035000Y-75935000D01*
X41435000Y-77735000D02*
X41435000Y-75935000D01*
X42235000Y-74085000D02*
X35235000Y-74085000D01*
X42235000Y-74085000D02*
X42235000Y-79585000D01*
X42235000Y-79585000D02*
X35685000Y-79585000D01*
%TO.C,D48*%
X259970000Y-89170000D02*
X263980000Y-89170000D01*
X259970000Y-91170000D02*
X263980000Y-91170000D01*
X263980000Y-91170000D02*
X263980000Y-89170000D01*
%TO.C,D1*%
X31370000Y-32020000D02*
X35380000Y-32020000D01*
X31370000Y-34020000D02*
X35380000Y-34020000D01*
X35380000Y-34020000D02*
X35380000Y-32020000D01*
%TO.C,D45*%
X202820000Y-89170000D02*
X206830000Y-89170000D01*
X202820000Y-91170000D02*
X206830000Y-91170000D01*
X206830000Y-91170000D02*
X206830000Y-89170000D01*
%TO.C,D20*%
X183770000Y-51070000D02*
X187780000Y-51070000D01*
X183770000Y-53070000D02*
X187780000Y-53070000D01*
X187780000Y-53070000D02*
X187780000Y-51070000D01*
%TO.C,D7*%
X164720000Y-32020000D02*
X168730000Y-32020000D01*
X164720000Y-34020000D02*
X168730000Y-34020000D01*
X168730000Y-34020000D02*
X168730000Y-32020000D01*
%TD*%
M02*
