%TF.GenerationSoftware,KiCad,Pcbnew,9.0.2*%
%TF.CreationDate,2025-10-16T11:04:55+03:00*%
%TF.ProjectId,eg48,65673438-2e6b-4696-9361-645f70636258,rev?*%
%TF.SameCoordinates,Original*%
%TF.FileFunction,Profile,NP*%
%FSLAX46Y46*%
G04 Gerber Fmt 4.6, Leading zero omitted, Abs format (unit mm)*
G04 Created by KiCad (PCBNEW 9.0.2) date 2025-10-16 11:04:55*
%MOMM*%
%LPD*%
G01*
G04 APERTURE LIST*
%TA.AperFunction,Profile*%
%ADD10C,0.050000*%
%TD*%
%TA.AperFunction,Profile*%
%ADD11C,0.100000*%
%TD*%
G04 APERTURE END LIST*
D10*
X19050000Y-19050000D02*
X267970000Y-19050000D01*
X267970000Y-96520000D01*
X19050000Y-96520000D01*
X19050000Y-19050000D01*
D11*
%TO.C,SW49*%
X136618500Y-79606000D02*
X137718500Y-79606000D01*
X138118500Y-79606000D02*
X139218500Y-79606000D01*
X139618500Y-79606000D02*
X140718500Y-79606000D01*
X141118500Y-79606000D02*
X142218500Y-79606000D01*
X142618500Y-79606000D02*
X143718500Y-79606000D01*
X144118500Y-79606000D02*
X145218500Y-79606000D01*
X145618500Y-79606000D02*
X146718500Y-79606000D01*
X147118500Y-79606000D02*
X148218500Y-79606000D01*
X148618500Y-79606000D02*
X149718500Y-79606000D01*
X150018500Y-79606000D02*
X150018500Y-80706000D01*
X150018500Y-81106000D02*
X150018500Y-82206000D01*
X150018500Y-82606000D02*
X150018500Y-83706000D01*
X150018500Y-84106000D02*
X150018500Y-85206000D01*
X150018500Y-85606000D02*
X150018500Y-86706000D01*
X150018500Y-87106000D02*
X150018500Y-88206000D01*
X150018500Y-88606000D02*
X150018500Y-89706000D01*
X150018500Y-90106000D02*
X150018500Y-91206000D01*
X150018500Y-91606000D02*
X150018500Y-92606000D01*
X150018500Y-92606000D02*
X148918500Y-92606000D01*
X148518500Y-92606000D02*
X147418500Y-92606000D01*
X147018500Y-92606000D02*
X145918500Y-92606000D01*
X145518500Y-92606000D02*
X144418500Y-92606000D01*
X144018500Y-92606000D02*
X142918500Y-92606000D01*
X142518500Y-92606000D02*
X141418500Y-92606000D01*
X141018500Y-92606000D02*
X139918500Y-92606000D01*
X139518500Y-92606000D02*
X138418500Y-92606000D01*
X138018500Y-92606000D02*
X136918500Y-92606000D01*
X136618500Y-92606000D02*
X136618500Y-91506000D01*
X136618500Y-91106000D02*
X136618500Y-90006000D01*
X136618500Y-89606000D02*
X136618500Y-88506000D01*
X136618500Y-88106000D02*
X136618500Y-87006000D01*
X136618500Y-86606000D02*
X136618500Y-85506000D01*
X136618500Y-85106000D02*
X136618500Y-84006000D01*
X136618500Y-83606000D02*
X136618500Y-82506000D01*
X136618500Y-82106000D02*
X136618500Y-81006000D01*
X136618500Y-80606000D02*
X136618500Y-79606000D01*
%TD*%
M02*
