M48
; DRILL file {KiCad 9.0.2} date 2025-09-07T11:59:12+0300
; FORMAT={-:-/ absolute / metric / decimal}
; #@! TF.CreationDate,2025-09-07T11:59:12+03:00
; #@! TF.GenerationSoftware,Kicad,Pcbnew,9.0.2
; #@! TF.FileFunction,NonPlated,1,2,NPTH
FMAT,2
METRIC
; #@! TA.AperFunction,NonPlated,NPTH,ComponentDrill
T1C0.991
; #@! TA.AperFunction,NonPlated,NPTH,ComponentDrill
T2C1.702
; #@! TA.AperFunction,NonPlated,NPTH,ComponentDrill
T3C3.429
%
G90
G05
T1
X34.35Y-25.02
X34.35Y-44.07
X34.35Y-63.12
X34.35Y-82.17
X53.4Y-25.02
X53.4Y-44.07
X53.4Y-63.12
X53.4Y-82.17
X72.45Y-25.02
X72.45Y-44.07
X72.45Y-63.12
X72.45Y-82.17
X91.5Y-25.02
X91.5Y-44.07
X91.5Y-63.12
X91.5Y-82.17
X110.55Y-25.02
X110.55Y-44.07
X110.55Y-63.12
X110.55Y-82.17
X129.6Y-25.02
X129.6Y-44.07
X129.6Y-63.12
X129.6Y-82.17
X167.7Y-25.02
X167.7Y-44.07
X167.7Y-63.12
X167.7Y-82.17
X186.75Y-25.02
X186.75Y-44.07
X186.75Y-63.12
X186.75Y-82.17
X205.8Y-25.02
X205.8Y-44.07
X205.8Y-63.12
X205.8Y-82.17
X224.85Y-25.02
X224.85Y-44.07
X224.85Y-63.12
X224.85Y-82.17
X243.9Y-25.01
X243.9Y-44.07
X243.9Y-63.12
X243.9Y-82.17
X262.95Y-25.02
X262.95Y-44.07
X262.95Y-63.12
X262.95Y-82.17
T2
X23.63Y-29.22
X23.63Y-48.27
X23.63Y-67.32
X23.63Y-86.37
X34.63Y-29.22
X34.63Y-48.27
X34.63Y-67.32
X34.63Y-86.37
X42.68Y-29.22
X42.68Y-48.27
X42.68Y-67.32
X42.68Y-86.37
X53.68Y-29.22
X53.68Y-48.27
X53.68Y-67.32
X53.68Y-86.37
X61.73Y-29.22
X61.73Y-48.27
X61.73Y-67.32
X61.73Y-86.37
X72.73Y-29.22
X72.73Y-48.27
X72.73Y-67.32
X72.73Y-86.37
X80.78Y-29.22
X80.78Y-48.27
X80.78Y-67.32
X80.78Y-86.37
X91.78Y-29.22
X91.78Y-48.27
X91.78Y-67.32
X91.78Y-86.37
X99.83Y-29.22
X99.83Y-48.27
X99.83Y-67.32
X99.83Y-86.37
X110.83Y-29.22
X110.83Y-48.27
X110.83Y-67.32
X110.83Y-86.37
X118.88Y-29.22
X118.88Y-48.27
X118.88Y-67.32
X118.88Y-86.37
X129.88Y-29.22
X129.88Y-48.27
X129.88Y-67.32
X129.88Y-86.37
X156.98Y-29.22
X156.98Y-48.27
X156.98Y-67.32
X156.98Y-86.37
X167.98Y-29.22
X167.98Y-48.27
X167.98Y-67.32
X167.98Y-86.37
X176.03Y-29.22
X176.03Y-48.27
X176.03Y-67.32
X176.03Y-86.37
X187.03Y-29.22
X187.03Y-48.27
X187.03Y-67.32
X187.03Y-86.37
X195.08Y-29.22
X195.08Y-48.27
X195.08Y-67.32
X195.08Y-86.37
X206.08Y-29.22
X206.08Y-48.27
X206.08Y-67.32
X206.08Y-86.37
X214.13Y-29.22
X214.13Y-48.27
X214.13Y-67.32
X214.13Y-86.37
X225.13Y-29.22
X225.13Y-48.27
X225.13Y-67.32
X225.13Y-86.37
X233.18Y-29.21
X233.18Y-48.27
X233.18Y-67.32
X233.18Y-86.37
X244.18Y-29.21
X244.18Y-48.27
X244.18Y-67.32
X244.18Y-86.37
X252.23Y-29.22
X252.23Y-48.27
X252.23Y-67.32
X252.23Y-86.37
X263.23Y-29.22
X263.23Y-48.27
X263.23Y-67.32
X263.23Y-86.37
T3
X29.13Y-29.22
X29.13Y-48.27
X29.13Y-67.32
X29.13Y-86.37
X48.18Y-29.22
X48.18Y-48.27
X48.18Y-67.32
X48.18Y-86.37
X67.23Y-29.22
X67.23Y-48.27
X67.23Y-67.32
X67.23Y-86.37
X86.28Y-29.22
X86.28Y-48.27
X86.28Y-67.32
X86.28Y-86.37
X105.33Y-29.22
X105.33Y-48.27
X105.33Y-67.32
X105.33Y-86.37
X124.38Y-29.22
X124.38Y-48.27
X124.38Y-67.32
X124.38Y-86.37
X162.48Y-29.22
X162.48Y-48.27
X162.48Y-67.32
X162.48Y-86.37
X181.53Y-29.22
X181.53Y-48.27
X181.53Y-67.32
X181.53Y-86.37
X200.58Y-29.22
X200.58Y-48.27
X200.58Y-67.32
X200.58Y-86.37
X219.63Y-29.22
X219.63Y-48.27
X219.63Y-67.32
X219.63Y-86.37
X238.68Y-29.21
X238.68Y-48.27
X238.68Y-67.32
X238.68Y-86.37
X257.73Y-29.22
X257.73Y-48.27
X257.73Y-67.32
X257.73Y-86.37
M30
